<svg width="16" height="13" viewBox="0 0 16 13" fill="none" xmlns="http://www.w3.org/2000/svg">
<mask id="mask0" mask-type="alpha" maskUnits="userSpaceOnUse" x="0" y="0" width="16" height="13">
<rect width="16" height="13" fill="#7D9CB8"/>
</mask>
<g mask="url(#mask0)">
<path fill-rule="evenodd" clip-rule="evenodd" d="M8.01279 542.93C10.7528 542.93 13.0528 542.08 13.7828 540.92V540.93C13.9328 540.67 14.0128 540.81 14.0128 540.93V542.63C14.0128 544.29 11.3228 546 8.01279 546C4.70279 546 2.01279 544.3 2.01279 542.63V540.93C2.01279 540.81 2.09279 540.67 2.24279 540.93C2.97279 542.08 5.27279 542.93 8.01279 542.93ZM8.01279 538.34C10.7628 538.34 13.0828 537.59 13.7828 536.56C13.9328 536.35 14.0128 536.46 14.0128 536.56V538.57C14.0128 540.07 11.3228 541.29 8.01279 541.29C4.70279 541.29 2.01279 540.06 2.01279 538.56V536.56C2.01279 536.46 2.09279 536.35 2.23279 536.56C2.95279 537.59 5.26279 538.34 8.01279 538.34ZM2.01279 533.24C2.01279 532 4.70279 531 8.01279 531C11.3228 531 14.0128 532.01 14.0128 533.24V534.32C14.0128 535.63 11.3228 536.7 8.01279 536.7C4.70279 536.7 2.01279 535.63 2.01279 534.32V533.24ZM12.4128 571C12.1528 570.77 12.0528 570.53 11.9528 570L12.5128 566.5C12.5228 566.48 14.0128 563.5 11.3928 561.5C10.4219 560.761 9.90841 560.652 9.57733 560.581C9.46508 560.557 9.37381 560.538 9.29279 560.5C9.25275 560.48 9.18375 560.402 9.08916 560.295C8.90026 560.082 8.60926 559.753 8.24279 559.54C7.55279 559.14 6.66279 559 6.66279 559C6.89894 559.528 7.08314 560.077 7.21279 560.64C6.88279 560.76 6.41279 560.94 5.93279 561.18C4.68656 561.798 4.4225 562.426 4.11069 563.167L4.09279 563.21C3.35279 564.19 2.50279 564.66 2.49279 564.66C2.47242 564.671 2.44994 564.683 2.42616 564.696C2.26316 564.783 2.03897 564.902 2.01279 565.12C2.00279 565.25 2.02279 565.35 2.47279 566C2.67279 566.3 3.97279 567.04 4.04279 567C4.1588 566.938 4.43761 566.824 4.78605 566.682C5.60902 566.346 6.82044 565.851 7.19279 565.5C7.19279 567.019 6.04859 568.316 5.13925 569.347C4.55183 570.013 4.06241 570.568 4.04279 571H2.65279C2.43279 571 2.35279 571.02 2.27279 571.06C2.19008 571.105 2.12362 571.175 2.08279 571.26C2.03279 571.34 2.01279 571.42 2.01279 571.64V573.36C2.01279 573.58 2.03279 573.66 2.07279 573.74C2.11792 573.823 2.18788 573.889 2.27279 573.93C2.35279 573.98 2.43279 574 2.65279 574H13.3728C13.5928 574 13.6728 573.98 13.7528 573.94C13.8355 573.895 13.902 573.825 13.9428 573.74C13.9928 573.66 14.0128 573.58 14.0128 573.36V571.64C14.0128 571.42 13.9928 571.34 13.9528 571.26C13.9077 571.177 13.8377 571.111 13.7528 571.07C13.6728 571.02 13.5928 571 13.3728 571H12.4128ZM8.01279 518C12.2128 518 13.4728 515.55 13.8528 514.08V514.06L14.8728 514.16L13.1428 511L10.8928 513.81L11.8128 513.89C11.5328 514.65 10.8128 515.65 9.01279 515.92V509.82C9.68 509.584 10.2423 509.12 10.6004 508.51C10.9585 507.899 11.0893 507.182 10.9696 506.484C10.8499 505.787 10.4875 505.154 9.94645 504.698C9.40538 504.242 8.72048 503.992 8.01279 503.992C7.3051 503.992 6.6202 504.242 6.07913 504.698C5.53806 505.154 5.17566 505.787 5.05599 506.484C4.93632 507.182 5.06708 507.899 5.42516 508.51C5.78323 509.12 6.34558 509.584 7.01279 509.82V515.92C5.21279 515.65 4.49279 514.65 4.20279 513.89L5.13279 513.81L2.88279 511L1.15279 514.17L2.17279 514.08C2.55279 515.55 3.81279 518 8.01279 518ZM8.7199 507.707C8.53236 507.895 8.27801 508 8.01279 508C7.74757 508 7.49322 507.895 7.30568 507.707C7.11815 507.52 7.01279 507.265 7.01279 507C7.01279 506.735 7.11815 506.48 7.30568 506.293C7.49322 506.105 7.74757 506 8.01279 506C8.27801 506 8.53236 506.105 8.7199 506.293C8.90743 506.48 9.01279 506.735 9.01279 507C9.01279 507.265 8.90743 507.52 8.7199 507.707ZM0.49471 477.082C0.326506 477.282 0.24326 477.539 0.262789 477.8L1.05279 486.78C1.07816 487.042 1.20577 487.283 1.40795 487.452C1.61012 487.62 1.87056 487.702 2.13279 487.68L11.1128 486.9C11.3747 486.875 11.6161 486.747 11.7846 486.545C11.9531 486.343 12.0351 486.082 12.0128 485.82L11.2228 476.84C11.1974 476.578 11.0698 476.337 10.8676 476.168C10.6655 476 10.405 475.918 10.1428 475.94L1.16279 476.73C0.902715 476.755 0.662915 476.882 0.49471 477.082ZM3.7199 479.707C3.53236 479.895 3.27801 480 3.01279 480C2.74757 480 2.49322 479.895 2.30568 479.707C2.11815 479.52 2.01279 479.265 2.01279 479C2.01279 478.735 2.11815 478.48 2.30568 478.293C2.49322 478.105 2.74757 478 3.01279 478C3.27801 478 3.53236 478.105 3.7199 478.293C3.90743 478.48 4.01279 478.735 4.01279 479C4.01279 479.265 3.90743 479.52 3.7199 479.707ZM6.7199 482.707C6.53236 482.895 6.27801 483 6.01279 483C5.74757 483 5.49322 482.895 5.30568 482.707C5.11815 482.52 5.01279 482.265 5.01279 482C5.01279 481.735 5.11815 481.48 5.30568 481.293C5.49322 481.105 5.74757 481 6.01279 481C6.27801 481 6.53236 481.105 6.7199 481.293C6.90743 481.48 7.01279 481.735 7.01279 482C7.01279 482.265 6.90743 482.52 6.7199 482.707ZM9.7199 484.707C9.53236 484.895 9.27801 485 9.01279 485C8.74757 485 8.49322 484.895 8.30568 484.707C8.11815 484.52 8.01279 484.265 8.01279 484C8.01279 483.735 8.11815 483.48 8.30568 483.293C8.49322 483.105 8.74757 483 9.01279 483C9.27801 483 9.53236 483.105 9.7199 483.293C9.90743 483.48 10.0128 483.735 10.0128 484C10.0128 484.265 9.90743 484.52 9.7199 484.707ZM15.1428 481.02L12.9428 480.82L13.5028 487.32C13.5251 487.582 13.4431 487.843 13.2746 488.045C13.1061 488.247 12.8647 488.375 12.6028 488.4L4.38279 489.11L4.30279 490.11C4.28326 490.371 4.36651 490.628 4.53471 490.828C4.70292 491.028 4.94272 491.155 5.20279 491.18L14.1828 491.97C14.4449 491.989 14.7042 491.905 14.9045 491.734C15.1047 491.564 15.2298 491.322 15.2528 491.06L16.0428 482.09C16.0623 481.829 15.9791 481.572 15.8109 481.372C15.6427 481.172 15.4029 481.045 15.1428 481.02ZM0.502789 458.02C0.222789 458.02 0.012789 458.25 0.012789 458.52V461.53C0.0114585 461.595 0.0231499 461.66 0.0471783 461.721C0.0712067 461.781 0.107089 461.836 0.152723 461.883C0.198357 461.929 0.252824 461.967 0.312935 461.992C0.373046 462.017 0.437591 462.03 0.502789 462.03H3.52279C3.80279 462.03 4.01279 461.81 4.01279 461.54V458.52C4.01279 458.24 3.79279 458.02 3.52279 458.02H0.502789ZM5.50279 458.02C5.22279 458.02 5.01279 458.25 5.01279 458.52V461.53C5.01146 461.595 5.02315 461.66 5.04718 461.721C5.07121 461.781 5.10709 461.836 5.15272 461.883C5.19836 461.929 5.25282 461.967 5.31294 461.992C5.37305 462.017 5.43759 462.03 5.50279 462.03H8.52279C8.80279 462.03 9.01279 461.81 9.01279 461.54V458.52C9.01279 458.24 8.79279 458.02 8.52279 458.02H5.50279ZM10.5028 458.02C10.2228 458.02 10.0128 458.25 10.0128 458.52V461.53C10.0115 461.595 10.0231 461.66 10.0472 461.721C10.0712 461.781 10.1071 461.836 10.1527 461.883C10.1984 461.929 10.2528 461.967 10.3129 461.992C10.373 462.017 10.4376 462.03 10.5028 462.03H13.5228C13.8028 462.03 14.0128 461.81 14.0128 461.54V458.52C14.0128 458.24 13.7928 458.02 13.5228 458.02H10.5028ZM5.50279 453.02C5.22279 453.02 5.01279 453.25 5.01279 453.52V456.53C5.01146 456.595 5.02315 456.66 5.04718 456.721C5.07121 456.781 5.10709 456.836 5.15272 456.883C5.19836 456.929 5.25282 456.967 5.31294 456.992C5.37305 457.017 5.43759 457.03 5.50279 457.03H8.52279C8.80279 457.03 9.01279 456.81 9.01279 456.54V453.52C9.01279 453.24 8.79279 453.02 8.52279 453.02H5.50279ZM10.4207 449.025C10.4207 449.154 10.4718 449.278 10.5628 449.37L12.6928 451.51C12.7846 451.601 12.9086 451.652 13.0378 451.652C13.167 451.652 13.291 451.601 13.3828 451.51L15.5228 449.38C15.5694 449.334 15.6063 449.28 15.6316 449.22C15.6569 449.16 15.6699 449.095 15.6699 449.03C15.6699 448.965 15.6569 448.9 15.6316 448.84C15.6063 448.78 15.5694 448.726 15.5228 448.68L13.3928 446.55C13.3472 446.503 13.2927 446.466 13.2326 446.441C13.1725 446.416 13.108 446.403 13.0428 446.403C12.9776 446.403 12.9131 446.416 12.853 446.441C12.7929 446.466 12.7384 446.503 12.6928 446.55L10.5628 448.68C10.4718 448.772 10.4207 448.896 10.4207 449.025ZM0.502789 453.02C0.222789 453.02 0.012789 453.24 0.012789 453.51V456.53C0.0114585 456.595 0.0231499 456.66 0.0471783 456.721C0.0712067 456.781 0.107089 456.836 0.152723 456.883C0.198357 456.929 0.252824 456.967 0.312935 456.992C0.373046 457.017 0.437591 457.03 0.502789 457.03H3.52279C3.80279 457.03 4.01279 456.81 4.01279 456.54V453.52C4.01279 453.24 3.79279 453.02 3.52279 453.02H0.502789ZM0.502789 448.02C0.222789 448.02 0.012789 448.24 0.012789 448.51V451.53C0.0114585 451.595 0.0231499 451.66 0.0471783 451.721C0.0712067 451.781 0.107089 451.836 0.152723 451.883C0.198357 451.929 0.252824 451.967 0.312935 451.992C0.373046 452.017 0.437591 452.03 0.502789 452.03H3.52279C3.80279 452.03 4.01279 451.81 4.01279 451.54V448.52C4.01279 448.24 3.79279 448.02 3.52279 448.02H0.502789ZM4.99121 449.039C4.99961 449.103 5.02054 449.164 5.05279 449.22L5.06279 449.21L6.56279 451.83C6.62932 451.941 6.73715 452.021 6.86271 452.053C6.98826 452.085 7.12132 452.066 7.23279 452L9.85279 450.51C9.96393 450.443 10.0442 450.336 10.0761 450.21C10.1079 450.085 10.0888 449.951 10.0228 449.84L8.52279 447.22C8.45626 447.109 8.34843 447.029 8.22287 446.997C8.09732 446.965 7.96426 446.984 7.85279 447.05L5.23279 448.55C5.17692 448.582 5.12794 448.625 5.08865 448.676C5.04935 448.727 5.02052 448.785 5.0038 448.848C4.98708 448.91 4.9828 448.975 4.99121 449.039ZM11.7662 451.896C11.6429 451.929 11.5376 452.01 11.4728 452.12L9.95279 454.74C9.92094 454.796 9.90059 454.859 9.89291 454.923C9.88523 454.987 9.89038 455.052 9.90805 455.115C9.92571 455.177 9.95556 455.235 9.99585 455.286C10.0361 455.337 10.0861 455.379 10.1428 455.41L12.7528 456.92C12.8086 456.952 12.8702 456.973 12.9341 456.982C12.998 456.99 13.0629 456.986 13.1251 456.969C13.1874 456.952 13.2457 456.923 13.2968 456.884C13.3478 456.845 13.3907 456.796 13.4228 456.74L14.9328 454.12C14.965 454.064 14.986 454.003 14.9944 453.939C15.0028 453.875 14.9985 453.81 14.9818 453.748C14.9651 453.685 14.9362 453.627 14.8969 453.576C14.8576 453.525 14.8087 453.482 14.7528 453.45L12.1328 451.94C12.021 451.878 11.8895 451.862 11.7662 451.896ZM4.01279 312V308H3.51279C2.69279 308 2.01279 308.67 2.01279 309.5V320.5C2.01279 320.898 2.17082 321.279 2.45213 321.561C2.73343 321.842 3.11496 322 3.51279 322H13.5128C13.6454 322 13.7726 321.947 13.8663 321.854C13.9601 321.76 14.0128 321.633 14.0128 321.5V321H3.51279C3.23279 321 3.01279 320.77 3.01279 320.5C3.01279 320.367 3.06547 320.24 3.15924 320.146C3.253 320.053 3.38018 320 3.51279 320H14.0128V309.5C14.0128 309.102 13.8548 308.721 13.5734 308.439C13.2921 308.158 12.9106 308 12.5128 308H7.01279V312L5.51279 310L4.01279 312ZM9.05279 336H7.97279C7.64279 336 7.52279 336.03 7.39279 336.1C7.27375 336.163 7.17628 336.261 7.11279 336.38C7.04279 336.5 7.01279 336.63 7.01279 336.96V348.04C7.01279 348.37 7.04279 348.49 7.11279 348.62C7.17628 348.739 7.27375 348.837 7.39279 348.9C7.51279 348.96 7.64279 349 7.97279 349H9.05279C9.38279 349 9.50279 348.97 9.63279 348.9C9.75183 348.837 9.8493 348.739 9.91279 348.62C9.97279 348.49 10.0128 348.37 10.0128 348.04V336.96C10.0128 336.63 9.98279 336.51 9.91279 336.38C9.8493 336.261 9.75183 336.163 9.63279 336.1C9.50279 336.04 9.38279 336 9.05279 336ZM4.05279 342.98H2.97279C2.64279 342.98 2.52279 343.02 2.39279 343.08C2.27229 343.146 2.17467 343.247 2.11279 343.37C2.04279 343.49 2.01279 343.61 2.01279 343.95V348.02C2.01279 348.36 2.04279 348.48 2.11279 348.6C2.17628 348.719 2.27375 348.817 2.39279 348.88C2.51279 348.95 2.64279 348.98 2.97279 348.98H4.05279C4.38279 348.98 4.50279 348.95 4.63279 348.88C4.75183 348.817 4.8493 348.719 4.91279 348.6C4.98279 348.48 5.01279 348.36 5.01279 348.02V343.95C5.01279 343.61 4.98279 343.49 4.91279 343.37C4.85091 343.247 4.75329 343.146 4.63279 343.08C4.51279 343.02 4.38279 342.98 4.05279 342.98ZM14.6328 339.1C14.5028 339.04 14.3828 339 14.0528 339H12.9728C12.6428 339 12.5228 339.03 12.3928 339.1C12.2737 339.163 12.1763 339.261 12.1128 339.38C12.0428 339.51 12.0128 339.63 12.0128 339.96V348.04C12.0128 348.37 12.0428 348.49 12.1128 348.62C12.1763 348.739 12.2737 348.837 12.3928 348.9C12.5128 348.96 12.6428 349 12.9728 349H14.0528C14.3828 349 14.5028 348.97 14.6328 348.9C14.7518 348.837 14.8493 348.739 14.9128 348.62C14.9728 348.49 15.0128 348.37 15.0128 348.04V339.96C15.0128 339.63 14.9828 339.51 14.9128 339.38C14.8493 339.261 14.7518 339.163 14.6328 339.1ZM7.11162 433.375C9.73808 432.305 10.2107 432.112 9.85279 429.04L9.86279 429.05C9.86279 429.05 15.6028 424.99 14.9628 420.35C14.9515 420.274 14.9165 420.204 14.8628 420.15C14.8328 420.1 14.7628 420.06 14.6628 420.05C10.0228 419.41 5.97279 425.16 5.97279 425.16C2.89173 424.801 2.69906 425.277 1.62594 427.93C1.47306 428.308 1.30231 428.73 1.10279 429.2C0.802789 429.91 1.29279 430.16 1.84279 429.96L3.59279 429.32L5.70279 431.42L5.05279 433.17C4.85279 433.71 5.10279 434.21 5.82279 433.91C6.30082 433.705 6.72907 433.531 7.11162 433.375ZM11.0792 424.639C10.9248 424.568 10.7865 424.466 10.6728 424.34C10.4592 424.102 10.3447 423.792 10.3527 423.473C10.3607 423.154 10.4907 422.849 10.7159 422.623C10.9411 422.396 11.2446 422.265 11.5638 422.255C11.8831 422.245 12.194 422.358 12.4328 422.57C12.5599 422.683 12.6626 422.821 12.7346 422.975C12.8066 423.129 12.8465 423.296 12.8517 423.466C12.8569 423.636 12.8274 423.805 12.765 423.963C12.7026 424.121 12.6086 424.265 12.4887 424.386C12.3688 424.506 12.2256 424.601 12.0678 424.664C11.91 424.728 11.7409 424.758 11.5709 424.754C11.4009 424.75 11.2336 424.711 11.0792 424.639ZM7.01279 372V371H2.01279V376.01C2.01542 376.273 2.12194 376.525 2.30919 376.711C2.49645 376.896 2.7493 377 3.01279 377H14.0128C14.2763 377 14.5291 376.896 14.7164 376.711C14.9036 376.525 15.0102 376.273 15.0128 376.01V371H10.0128V372H7.01279ZM1.08602 366.624C1.03636 366.747 1.01147 366.878 1.01279 367.01V370H16.0128V367.01C16.0141 366.878 15.9892 366.747 15.9396 366.624C15.8899 366.502 15.8164 366.39 15.7235 366.296C15.6305 366.202 15.5198 366.128 15.3978 366.077C15.2758 366.026 15.145 366 15.0128 366H12.5128L11.5128 364H5.51279L4.51279 366H2.01279C1.88062 366 1.74976 366.026 1.62778 366.077C1.5058 366.128 1.39511 366.202 1.30212 366.296C1.20913 366.39 1.13568 366.502 1.08602 366.624ZM11.0128 366H6.01279L6.51279 365H10.5128L11.0128 366ZM10.1828 228.12L8.62279 223.72C8.57685 223.595 8.49374 223.487 8.38466 223.411C8.27558 223.335 8.14578 223.294 8.01279 223.294C7.87979 223.294 7.75 223.335 7.64092 223.411C7.53184 223.487 7.44872 223.595 7.40279 223.72L5.84279 228.11H1.95279C1.81637 228.11 1.6834 228.153 1.57273 228.233C1.46205 228.312 1.37929 228.425 1.33614 228.554C1.293 228.684 1.29168 228.824 1.33236 228.954C1.37303 229.084 1.45365 229.198 1.56279 229.28L4.76279 231.7L3.56279 236.15C3.52398 236.283 3.52847 236.424 3.5756 236.554C3.62272 236.684 3.71004 236.796 3.82487 236.873C3.9397 236.949 4.07607 236.988 4.21416 236.982C4.35225 236.976 4.48488 236.926 4.59279 236.84L8.01279 234.22L11.4328 236.84C11.541 236.922 11.6723 236.969 11.8082 236.972C11.9441 236.976 12.0777 236.937 12.1903 236.861C12.3029 236.785 12.3888 236.675 12.4359 236.548C12.4829 236.42 12.4889 236.281 12.4528 236.15L11.2528 231.7L14.4728 229.28C14.5785 229.196 14.6557 229.082 14.6936 228.953C14.7315 228.823 14.7282 228.686 14.6843 228.558C14.6404 228.431 14.5579 228.32 14.4484 228.242C14.3388 228.163 14.2076 228.121 14.0728 228.12H10.1828ZM5.01279 175.5C5.01279 174.7 4.31279 174 3.51279 174C2.71279 174 2.01279 174.7 2.01279 175.5C2.01279 176.3 2.71279 177 3.51279 177C4.31279 177 5.01279 176.3 5.01279 175.5ZM10.0128 175.5C10.0128 174.7 9.31279 174 8.51279 174C7.71279 174 7.01279 174.7 7.01279 175.5C7.01279 176.3 7.71279 177 8.51279 177C9.31279 177 10.0128 176.3 10.0128 175.5ZM15.0128 175.5C15.0128 174.7 14.3128 174 13.5128 174C12.7128 174 12.0128 174.7 12.0128 175.5C12.0128 176.3 12.7128 177 13.5128 177C14.3128 177 15.0128 176.3 15.0128 175.5ZM11.0128 261L13.9728 262.48V262.49C13.9715 262.556 13.9831 262.621 14.007 262.682C14.0309 262.743 14.0666 262.799 14.1121 262.846C14.1576 262.894 14.212 262.932 14.2722 262.958C14.3324 262.984 14.3971 262.999 14.4628 263H14.5128C14.5793 263 14.6451 262.987 14.7065 262.961C14.7678 262.935 14.8234 262.898 14.8699 262.85C14.9165 262.803 14.9531 262.746 14.9776 262.684C15.0022 262.623 15.0141 262.556 15.0128 262.49V253.51C15.0128 253.23 14.7928 253 14.5128 253H14.4728C14.4063 253 14.3404 253.013 14.2791 253.039C14.2178 253.065 14.1622 253.102 14.1157 253.15C14.0691 253.197 14.0325 253.254 14.0079 253.316C13.9834 253.377 13.9715 253.444 13.9728 253.51V253.52L11.0128 255V261ZM7.77279 264.78L7.17279 261H10.0128V255H4.01279C3.21714 255 2.45408 255.316 1.89147 255.879C1.32886 256.441 1.01279 257.204 1.01279 258C1.01279 258.796 1.32886 259.559 1.89147 260.121C2.45408 260.684 3.21714 261 4.01279 261H5.17279L5.85279 265.05C5.89703 265.305 6.03846 265.533 6.24734 265.686C6.45622 265.839 6.71627 265.905 6.97279 265.87C7.09723 265.852 7.21681 265.809 7.32457 265.744C7.43234 265.679 7.52616 265.594 7.60058 265.492C7.675 265.391 7.72855 265.276 7.75811 265.153C7.78767 265.031 7.79266 264.904 7.77279 264.78ZM9.01279 196V200.5C9.01279 200.633 9.06547 200.76 9.15924 200.854C9.253 200.947 9.38018 201 9.51279 201H14.0128L9.01279 196ZM8.01279 196H3.29279C2.85279 196 2.69279 196.05 2.52279 196.13C2.36038 196.215 2.2278 196.348 2.14279 196.51C2.06279 196.68 2.01279 196.84 2.01279 197.28V208.72C2.01279 209.16 2.06279 209.32 2.14279 209.49C2.2278 209.652 2.36038 209.785 2.52279 209.87C2.69279 209.95 2.85279 210 3.29279 210H12.7328C13.1728 210 13.3328 209.95 13.5028 209.87C13.6652 209.785 13.7978 209.652 13.8828 209.49C13.9628 209.32 14.0128 209.16 14.0128 208.72V202H9.29279C8.85279 202 8.69279 201.95 8.52279 201.87C8.36279 201.78 8.24279 201.65 8.14279 201.49C8.06279 201.32 8.01279 201.16 8.01279 200.72V196ZM16.0028 59.71C16.1128 58.84 15.3628 58.08 14.5128 58.08H13.1228C12.9128 58.08 12.5828 57.86 12.4828 57.64L11.9528 56.44C11.8428 56.22 11.6328 56 11.3128 56H4.81279C4.59279 56 4.27279 56.22 4.17279 56.44L3.64279 57.64C3.53279 57.86 3.32279 58.08 3.00279 58.08H1.61279C0.762789 58.08 0.012789 59.06 0.012789 59.93V67.36C0.012789 68.24 0.762789 69 1.61279 69H14.4028C15.2528 69 16.0028 68.23 16.0028 67.36V59.71ZM12.0128 63C12.0128 65.17 10.1828 67 8.01279 67C5.84279 67 4.01279 65.17 4.01279 63C4.01279 60.83 5.84279 59 8.01279 59C10.1828 59 12.0128 60.83 12.0128 63ZM10.5128 63C10.5128 61.59 9.42279 60.5 8.01279 60.5C6.60279 60.5 5.51279 61.59 5.51279 63C5.51279 64.41 6.60279 65.5 8.01279 65.5C9.42279 65.5 10.5128 64.41 10.5128 63ZM12.0128 87V92.82C11.586 92.821 11.164 92.9094 10.7728 93.08C9.50279 93.62 8.80279 94.84 9.21279 95.8C9.62279 96.77 10.9828 97.12 12.2528 96.57C13.2528 96.15 13.9028 95.3 13.9328 94.49L14.0128 94.5V83L4.02279 85.96V95C4.02199 95.02 4.02199 95.04 4.02279 95.06C3.62697 95.0529 3.23339 95.1208 2.86279 95.26C1.56279 95.73 0.802789 96.9 1.16279 97.9C1.52279 98.88 2.86279 99.3 4.16279 98.83C5.33279 98.4 6.06279 97.4 5.93279 96.48L6.01279 96.5V89L12.0128 87ZM5.01279 126H11.0128V124H13.0128V126H14.0128C14.278 126 14.5324 125.895 14.7199 125.707C14.9074 125.52 15.0128 125.265 15.0128 125V113C15.0128 112.735 14.9074 112.48 14.7199 112.293C14.5324 112.105 14.278 112 14.0128 112H13.0128V114H11.0128V112H5.01279V114H3.01279V112H2.01279C1.74757 112 1.49322 112.105 1.30568 112.293C1.11815 112.48 1.01279 112.735 1.01279 113V125C1.01279 125.265 1.11815 125.52 1.30568 125.707C1.49322 125.895 1.74757 126 2.01279 126H3.01279V124H5.01279V126ZM5.01279 116V118H3.01279V116H5.01279ZM13.0128 116V118H11.0128V116H13.0128ZM5.01279 120V122H3.01279V120H5.01279ZM13.0128 120V122H11.0128V120H13.0128ZM14.1828 153C16.7828 152.79 15.8828 148.65 15.7828 148.25C15.2828 145.93 13.9928 142 11.1128 142C10.557 142.084 10.0173 142.252 9.51279 142.5C8.21279 143 7.62279 143 6.43279 142.5C5.73279 142.1 4.83279 142 4.83279 142C2.04279 142 0.642789 146.03 0.242789 148.25C0.142789 148.66 -0.747211 152.9 1.74279 153C2.50583 153.077 3.39363 152.073 4.17266 151.192C4.40437 150.93 4.62646 150.679 4.83279 150.47C5.72279 149.47 6.52279 148.97 7.91279 148.97C9.30279 148.97 10.2028 149.47 11.0028 150.47C11.2011 150.671 11.4135 150.91 11.6359 151.161C12.4224 152.05 13.333 153.078 14.1828 153ZM10.5128 147C10.2328 147 10.0128 146.77 10.0128 146.5C10.0128 146.367 10.0655 146.24 10.1592 146.146C10.253 146.053 10.3802 146 10.5128 146C10.6454 146 10.7726 146.053 10.8663 146.146C10.9601 146.24 11.0128 146.367 11.0128 146.5C11.0128 146.633 10.9601 146.76 10.8663 146.854C10.7726 146.947 10.6454 147 10.5128 147ZM12.5128 147C12.2328 147 12.0128 146.77 12.0128 146.5C12.0128 146.367 12.0655 146.24 12.1592 146.146C12.253 146.053 12.3802 146 12.5128 146C12.6454 146 12.7726 146.053 12.8663 146.146C12.9601 146.24 13.0128 146.367 13.0128 146.5C13.0128 146.633 12.9601 146.76 12.8663 146.854C12.7726 146.947 12.6454 147 12.5128 147ZM5.01279 145.5V146H5.51279C5.6454 146 5.77257 146.053 5.86634 146.146C5.96011 146.24 6.01279 146.367 6.01279 146.5C6.01279 146.633 5.96011 146.76 5.86634 146.854C5.77257 146.947 5.6454 147 5.51279 147H5.01279V147.5C5.01279 147.633 4.96011 147.76 4.86634 147.854C4.77257 147.947 4.6454 148 4.51279 148C4.38018 148 4.253 147.947 4.15924 147.854C4.06547 147.76 4.01279 147.633 4.01279 147.5V147H3.51279C3.38018 147 3.253 146.947 3.15924 146.854C3.06547 146.76 3.01279 146.633 3.01279 146.5C3.01279 146.367 3.06547 146.24 3.15924 146.146C3.253 146.053 3.38018 146 3.51279 146H4.01279V145.5C4.01279 145.367 4.06547 145.24 4.15924 145.146C4.253 145.053 4.38018 145 4.51279 145C4.6454 145 4.77257 145.053 4.86634 145.146C4.96011 145.24 5.01279 145.367 5.01279 145.5ZM14.0128 12.1C14.0128 10.7 13.4128 8 8.01279 8C2.61279 8 2.01279 10.6 2.01279 12.1C2.01279 12.8 2.37279 13 3.81279 13H12.3328C13.7728 13 14.0128 12.8 14.0128 12.1ZM5.01279 3.5C5.01279 5.83 6.35279 7 8.01279 7C9.67279 7 11.0128 5.83 11.0128 3.5C11.0128 1.17 9.67279 0 8.01279 0C6.35279 0 5.01279 1.17 5.01279 3.5ZM5.01279 35C0.0127892 35 0.012789 37.6 0.012789 39.1C0.012789 39.8 0.312789 40 1.51279 40H8.61279C9.81279 40 10.0128 39.8 10.0128 39.1C10.0128 37.7 10.0128 35 5.01279 35ZM11.6128 39.72L11.6028 40H14.6128C15.8128 40 16.0128 39.8 16.0128 39.1C16.0128 37.7 15.5128 35 11.0128 35L10.1428 35.02C11.5728 36.38 11.6128 38.35 11.6128 39.72ZM3.01279 31.5C3.01279 33.17 3.91279 34 5.01279 34C6.11279 34 7.01279 33.17 7.01279 31.5C7.01279 29.83 6.11279 29 5.01279 29C3.91279 29 3.01279 29.83 3.01279 31.5ZM9.01279 31.5C9.01279 33.17 9.91279 34 11.0128 34C12.1128 34 13.0128 33.17 13.0128 31.5C13.0128 29.83 12.1128 29 11.0128 29C9.91279 29 9.01279 29.83 9.01279 31.5ZM16.0128 -49C16.0128 -51.1 14.4428 -52.91 12.2428 -53.64C13.0428 -52.62 13.5128 -51.37 13.5128 -50C13.5128 -47.29 11.6728 -45.06 9.07279 -44.06C9.75686 -43.9679 10.4506 -43.9746 11.1328 -44.08C11.6028 -43.4 12.4428 -42.98 14.0228 -42.98C13.5828 -43.63 13.2828 -44.28 13.2028 -44.76C14.8928 -45.65 16.0128 -47.21 16.0128 -49ZM1.99279 -44C3.58279 -44 4.41279 -44.4 4.89279 -45.1V-45.09C5.25279 -45.03 5.63279 -45 6.01279 -45C9.32279 -45 12.0128 -47.24 12.0128 -50C12.0128 -52.76 9.32279 -55 6.01279 -55C2.70279 -55 0.012789 -52.76 0.012789 -50C0.012789 -48.22 1.13279 -46.65 2.82279 -45.76C2.74279 -45.29 2.44279 -44.64 1.99279 -44ZM6.59858 -14.5858C6.97365 -14.2107 7.48236 -14 8.01279 -14C8.54322 -14 9.05193 -14.2107 9.427 -14.5858C9.80207 -14.9609 10.0128 -15.4696 10.0128 -16H6.01279C6.01279 -15.4696 6.2235 -14.9609 6.59858 -14.5858ZM14.5628 -18.4C14.0228 -19.2 12.8628 -20 12.8628 -20V-23C12.8628 -25.6 11.4028 -27.5 9.19279 -28C9.19279 -28 9.20279 -29 8.01279 -29C6.82279 -29 6.82279 -28 6.82279 -28C4.35279 -27.5 3.16279 -25.6 3.16279 -23V-20C3.16279 -20 2.00279 -19.2 1.46279 -18.4C0.502789 -17.1 1.14279 -17 2.64279 -17H13.3828C14.8728 -17 15.5228 -17.1 14.5628 -18.4ZM1.01279 853H13.5128C14.3328 853 15.0128 852.33 15.0128 851.5V840C15.0128 839.735 14.9074 839.48 14.7199 839.293C14.5324 839.105 14.278 839 14.0128 839H4.01279C3.74838 839.003 3.49554 839.109 3.30856 839.296C3.12159 839.483 3.01539 839.736 3.01279 840V850H2.51279C2.23279 850 2.01279 849.77 2.01279 849.5V843H0.012789V852C0.012789 852.265 0.118146 852.52 0.305682 852.707C0.493219 852.895 0.747573 853 1.01279 853ZM6.01279 845.51V842.49C6.01541 842.359 6.06924 842.234 6.16272 842.143C6.25621 842.051 6.3819 842 6.51279 842H11.5128C11.578 841.999 11.6428 842.01 11.7034 842.034C11.764 842.058 11.8192 842.094 11.8658 842.14C11.9123 842.186 11.9493 842.24 11.9746 842.3C11.9998 842.36 12.0128 842.425 12.0128 842.49V845.51C12.0102 845.641 11.9563 845.766 11.8629 845.857C11.7694 845.949 11.6437 846 11.5128 846H6.51279C6.23279 846 6.01279 845.79 6.01279 845.51ZM6.51279 848C6.23279 848 6.01279 847.77 6.01279 847.5C6.01279 847.367 6.06547 847.24 6.15924 847.146C6.253 847.053 6.38018 847 6.51279 847H11.5128C11.6454 847 11.7726 847.053 11.8663 847.146C11.9601 847.24 12.0128 847.367 12.0128 847.5C12.0128 847.633 11.9601 847.76 11.8663 847.854C11.7726 847.947 11.6454 848 11.5128 848H6.51279ZM6.50279 850C6.23279 850 6.01279 849.77 6.01279 849.5C6.01276 849.369 6.06407 849.243 6.15568 849.15C6.2473 849.056 6.37192 849.003 6.50279 849H9.52279C9.65366 849.003 9.77828 849.056 9.86989 849.15C9.96151 849.243 10.0128 849.369 10.0128 849.5C10.0128 849.631 9.96151 849.757 9.86989 849.85C9.77828 849.944 9.65366 849.997 9.52279 850H6.50279ZM5.18436 866.172C4.43422 866.922 4.01279 867.939 4.01279 869H3.29279C2.85279 869 2.69279 869.05 2.52279 869.13C2.36038 869.215 2.2278 869.348 2.14279 869.51C2.06279 869.68 2.01279 869.84 2.01279 870.28V878.72C2.01279 879.16 2.06279 879.33 2.14279 879.49C2.2278 879.652 2.36038 879.785 2.52279 879.87C2.69279 879.95 2.85279 880 3.29279 880H12.7328C13.1728 880 13.3328 879.95 13.5028 879.87C13.6652 879.785 13.7978 879.652 13.8828 879.49C13.9628 879.32 14.0128 879.16 14.0128 878.72V870.28C14.0128 869.84 13.9628 869.68 13.8828 869.51C13.7928 869.35 13.6628 869.23 13.5028 869.13C13.3328 869.05 13.1728 869 12.7328 869H12.0128C12.0128 867.939 11.5914 866.922 10.8412 866.172C10.0911 865.421 9.07365 865 8.01279 865C6.95192 865 5.93451 865.421 5.18436 866.172ZM9.95733 867.055C10.4731 867.571 10.7628 868.271 10.7628 869H5.26279C5.26279 868.271 5.55252 867.571 6.06825 867.055C6.58397 866.54 7.28344 866.25 8.01279 866.25C8.74213 866.25 9.44161 866.54 9.95733 867.055ZM9.91279 888.55L9.10279 889.64C8.3893 889.444 7.63627 889.444 6.92279 889.64L6.11279 888.55C6.05369 888.471 5.97966 888.405 5.89491 888.355C5.81016 888.304 5.71636 888.271 5.61886 888.258C5.52135 888.244 5.42206 888.249 5.32665 888.273C5.23124 888.298 5.14158 888.341 5.06279 888.4C4.984 888.459 4.91761 888.533 4.86743 888.618C4.81725 888.703 4.78426 888.796 4.77033 888.894C4.7564 888.991 4.76181 889.091 4.78625 889.186C4.8107 889.282 4.85369 889.371 4.91279 889.45L5.61279 890.4C4.97913 891.128 4.59383 892.038 4.51279 893H11.5128C11.3428 891.84 10.9828 890.98 10.4128 890.39L11.1128 889.45C11.1719 889.371 11.2149 889.282 11.2393 889.186C11.2638 889.091 11.2692 888.991 11.2553 888.894C11.2413 888.796 11.2083 888.703 11.1581 888.618C11.108 888.533 11.0416 888.459 10.9628 888.4C10.884 888.341 10.7943 888.298 10.6989 888.273C10.6035 888.249 10.5042 888.244 10.4067 888.258C10.3092 888.271 10.2154 888.304 10.1307 888.355C10.0459 888.405 9.97188 888.471 9.91279 888.55ZM3.51279 894C3.43279 894.31 3.37279 894.64 3.32279 894.97L2.78279 894.62C2.75546 894.6 2.73251 894.575 2.71532 894.545C2.69812 894.516 2.68706 894.484 2.68279 894.45L2.25279 891.88C2.23968 891.78 2.20674 891.685 2.1559 891.598C2.10506 891.512 2.03737 891.436 1.95683 891.376C1.8763 891.316 1.78455 891.273 1.68704 891.249C1.58953 891.226 1.48824 891.222 1.38916 891.238C1.29008 891.254 1.19523 891.289 1.11024 891.343C1.02524 891.396 0.951834 891.466 0.894356 891.548C0.836878 891.631 0.796502 891.724 0.77562 891.822C0.754738 891.92 0.753775 892.021 0.772789 892.12L1.20279 894.7C1.24255 894.934 1.32955 895.158 1.45849 895.357C1.58743 895.557 1.75561 895.728 1.95279 895.86L3.21279 896.7C3.21654 897.573 3.30699 898.444 3.48279 899.3L1.80279 900.7C1.49434 900.955 1.28257 901.308 1.20279 901.7L0.772789 903.85C0.753091 903.947 0.752726 904.047 0.771716 904.145C0.790705 904.242 0.828677 904.335 0.883464 904.417C0.938251 904.5 1.00878 904.571 1.09102 904.626C1.17326 904.682 1.26561 904.72 1.36279 904.74C1.45997 904.76 1.56007 904.76 1.65739 904.741C1.75471 904.722 1.84734 904.684 1.92998 904.629C2.01263 904.575 2.08367 904.504 2.13906 904.422C2.19444 904.34 2.23309 904.247 2.25279 904.15L2.68279 901.99C2.69326 901.936 2.72139 901.887 2.76279 901.85L3.93279 900.88C4.69279 902.94 6.05279 904.5 8.01279 904.5C9.97279 904.5 11.3328 902.94 12.0928 900.88L13.2628 901.85C13.3042 901.887 13.3323 901.936 13.3428 901.99L13.7828 904.15C13.8025 904.247 13.841 904.338 13.8961 904.42C13.9513 904.501 14.022 904.571 14.1041 904.626C14.1863 904.68 14.2784 904.718 14.3751 904.736C14.4718 904.755 14.5713 904.755 14.6678 904.735C14.7643 904.715 14.856 904.677 14.9376 904.622C15.0193 904.567 15.0893 904.496 15.1436 904.414C15.1979 904.331 15.2355 904.239 15.2542 904.143C15.273 904.046 15.2725 903.946 15.2528 903.85L14.8228 901.7C14.7428 901.3 14.5228 900.95 14.2228 900.7L12.5428 899.3C12.7186 898.444 12.809 897.573 12.8128 896.7L14.0728 895.86C14.4728 895.6 14.7428 895.17 14.8228 894.7L15.2528 892.12C15.2718 892.021 15.2708 891.92 15.25 891.822C15.2291 891.724 15.1887 891.631 15.1312 891.548C15.0737 891.466 15.0003 891.396 14.9153 891.343C14.8303 891.289 14.7355 891.254 14.6364 891.238C14.5373 891.222 14.436 891.226 14.3385 891.249C14.241 891.273 14.1493 891.316 14.0687 891.376C13.9882 891.436 13.9205 891.512 13.8697 891.598C13.8188 891.685 13.7859 891.78 13.7728 891.88L13.3428 894.45C13.3373 894.484 13.3247 894.517 13.3058 894.547C13.2868 894.576 13.262 894.601 13.2328 894.62L12.7028 894.97C12.6528 894.64 12.5928 894.31 12.5128 894H3.51279ZM0.617642 928.063C1.0199 929.034 1.60951 929.917 2.35279 930.66C3.85391 932.161 5.88988 933.004 8.01279 933.004C10.1357 933.004 12.1717 932.161 13.6728 930.66C15.1739 929.159 16.0172 927.123 16.0172 925C16.0172 922.877 15.1739 920.841 13.6728 919.34C12.9295 918.597 12.0471 918.007 11.076 917.605C10.1048 917.203 9.06395 916.996 8.01279 916.996C6.96163 916.996 5.92076 917.203 4.94962 917.605C3.97847 918.007 3.09607 918.597 2.35279 919.34C1.60951 920.083 1.0199 920.966 0.617642 921.937C0.215381 922.908 0.00833988 923.949 0.00833991 925C0.00833995 926.051 0.215381 927.092 0.617642 928.063ZM8.50307 927.45C8.98862 927.352 9.43404 927.112 9.78279 926.76C9.91759 926.627 10.0926 926.542 10.2807 926.518C10.4688 926.495 10.6593 926.534 10.8228 926.63C10.9062 926.68 10.9779 926.747 11.0331 926.827C11.0883 926.907 11.1257 926.998 11.1428 927.094C11.1598 927.19 11.1562 927.288 11.132 927.382C11.1079 927.476 11.0638 927.564 11.0028 927.64L10.8428 927.83C10.2832 928.389 9.57046 928.769 8.79466 928.923C8.01886 929.077 7.21482 928.998 6.48417 928.695C5.75353 928.392 5.12908 927.88 4.68975 927.222C4.25042 926.564 4.01594 925.791 4.01594 925C4.01594 924.209 4.25042 923.436 4.68975 922.778C5.12908 922.12 5.75353 921.608 6.48417 921.305C7.21482 921.002 8.01886 920.923 8.79466 921.077C9.57046 921.231 10.2832 921.611 10.8428 922.17C10.9023 922.231 10.959 922.294 11.0128 922.36C11.0756 922.436 11.1211 922.525 11.1463 922.62C11.1714 922.715 11.1756 922.815 11.1585 922.912C11.1413 923.009 11.1034 923.101 11.0471 923.182C10.9909 923.262 10.9178 923.33 10.8328 923.38C10.6673 923.477 10.474 923.516 10.2837 923.491C10.0934 923.465 9.91708 923.377 9.78279 923.24C9.43404 922.888 8.98862 922.648 8.50307 922.55C8.01753 922.451 7.51374 922.5 7.05565 922.688C6.59755 922.877 6.20581 923.197 5.93014 923.609C5.65447 924.02 5.50729 924.505 5.50729 925C5.50729 925.495 5.65447 925.98 5.93014 926.391C6.20581 926.803 6.59755 927.123 7.05565 927.312C7.51374 927.5 8.01753 927.549 8.50307 927.45ZM2.35593 958.657C3.85623 960.157 5.89106 961 8.01279 961C10.1345 961 12.1694 960.157 13.6696 958.657C15.1699 957.157 16.0128 955.122 16.0128 953C16.0128 950.878 15.1699 948.843 13.6696 947.343C12.1694 945.843 10.1345 945 8.01279 945C5.89106 945 3.85623 945.843 2.35593 947.343C0.855644 948.843 0.012789 950.878 0.012789 953C0.012789 955.122 0.855644 957.157 2.35593 958.657ZM2.29279 977.02H2.22279L2.23279 977.01C2.2052 977.011 2.17814 977.018 2.15315 977.03C2.12816 977.042 2.10573 977.058 2.08715 977.078C2.06857 977.099 2.05421 977.123 2.04488 977.149C2.03555 977.175 2.03144 977.202 2.03279 977.23V984.08C2.01411 984.179 2.01411 984.281 2.03279 984.38C2.08534 984.449 2.15921 984.498 2.24279 984.52C2.31702 984.591 2.40568 984.646 2.50279 984.68L7.50279 986.68C7.63855 986.734 7.77921 986.774 7.92279 986.8C8.01183 986.819 8.10375 986.819 8.19279 986.8C8.34279 986.77 8.48279 986.73 8.61279 986.67L13.6128 984.67C13.709 984.639 13.7976 984.588 13.8728 984.52C13.9318 984.479 13.9744 984.419 13.9928 984.35C14.0128 984.25 14.0128 984.14 13.9928 984.04V977.21C13.9991 977.196 14.0024 977.181 14.0024 977.165C14.0024 977.156 14.0014 977.148 13.9993 977.139C13.9978 977.133 13.9956 977.126 13.9928 977.12C13.9692 977.074 13.9297 977.039 13.8818 977.021C13.8339 977.002 13.7809 977.002 13.7328 977.02L8.57279 979.12C8.44279 979.17 8.30279 979.22 8.16279 979.25C8.06279 979.27 7.97279 979.27 7.88279 979.25C7.73279 979.22 7.59279 979.17 7.46279 979.12L2.29279 977.02ZM8.57279 973.15C8.44279 973.09 8.30279 973.04 8.15279 973.02H8.16279C8.07053 973 7.97505 973 7.88279 973.02C7.73279 973.05 7.59279 973.09 7.46279 973.15L2.19279 975.25C2.1459 975.276 2.11032 975.319 2.09279 975.37C2.07602 975.418 2.07805 975.47 2.09847 975.517C2.11889 975.563 2.15618 975.6 2.20279 975.62L7.46279 977.72C7.59439 977.776 7.73197 977.816 7.87279 977.84C7.96505 977.86 8.06053 977.86 8.15279 977.84C8.30279 977.82 8.44279 977.77 8.57279 977.72L13.8428 975.62C13.8897 975.594 13.9253 975.551 13.9428 975.5C13.9626 975.451 13.9621 975.396 13.9415 975.347C13.9209 975.299 13.8818 975.26 13.8328 975.24L8.57279 973.15ZM8.86634 955.854C8.77257 955.947 8.6454 956 8.51279 956H7.01279V956.49C7.01412 956.556 7.00217 956.623 6.97764 956.684C6.95311 956.746 6.91649 956.802 6.86993 956.85C6.82336 956.897 6.76779 956.935 6.70647 956.961C6.64515 956.987 6.5793 957 6.51279 957C6.38018 957 6.253 956.947 6.15924 956.854C6.06547 956.76 6.01279 956.633 6.01279 956.5V956.01L5.51279 956C5.23279 956 5.01279 955.78 5.01279 955.5C5.01541 955.369 5.06924 955.245 5.16272 955.153C5.25621 955.061 5.3819 955.01 5.51279 955.01H6.01279V954L5.51279 953.99C5.23279 953.99 5.01279 953.76 5.01279 953.49C5.01541 953.359 5.06924 953.235 5.16272 953.143C5.25621 953.051 5.3819 953 5.51279 953H6.01279V949.51C6.01279 949.377 6.06547 949.25 6.15924 949.156C6.253 949.063 6.38018 949.01 6.51279 949.01H8.51279C10.2428 949.01 11.5128 950 11.5128 951.5C11.5128 953 10.2628 954 8.51279 954H7.01279V955H8.51279C8.6454 955 8.77257 955.053 8.86634 955.146C8.96011 955.24 9.01279 955.367 9.01279 955.5C9.01279 955.633 8.96011 955.76 8.86634 955.854ZM8.51279 950H7.01279V953H8.51279C10.0128 953 10.5128 952.25 10.5128 951.5C10.5128 950.75 10.0128 950 8.51279 950ZM16.0172 287C16.0172 284.877 15.1739 282.841 13.6728 281.34C12.9295 280.597 12.0471 280.007 11.076 279.605C10.1048 279.203 9.06395 278.996 8.01279 278.996C6.96163 278.996 5.92076 279.203 4.94962 279.605C3.97847 280.007 3.09607 280.597 2.35279 281.34C1.60951 282.083 1.0199 282.966 0.617643 283.937C0.215381 284.908 0.00834027 285.949 0.00834027 287C0.00834027 288.051 0.215381 289.092 0.617643 290.063C1.0199 291.034 1.60951 291.917 2.35279 292.66C3.85391 294.161 5.88988 295.004 8.01279 295.004C10.1357 295.004 12.1717 294.161 13.6728 292.66C15.1739 291.159 16.0172 289.123 16.0172 287ZM6.67833 290.229C6.25367 290.053 5.86781 289.795 5.54279 289.47C4.88638 288.814 4.51761 287.923 4.51761 286.995C4.51761 286.067 4.88638 285.176 5.54279 284.52C6.1992 283.864 7.08948 283.495 8.01779 283.495C8.94609 283.495 9.83638 283.864 10.4928 284.52C10.8178 284.845 11.0756 285.231 11.2515 285.656C11.4274 286.08 11.518 286.535 11.518 286.995C11.518 287.455 11.4274 287.91 11.2515 288.334C11.0756 288.759 10.8178 289.145 10.4928 289.47C10.1678 289.795 9.78191 290.053 9.35725 290.229C8.93259 290.405 8.47744 290.495 8.01779 290.495C7.55814 290.495 7.10299 290.405 6.67833 290.229ZM13.9628 290.2L12.4628 289.4C13.2728 287.9 13.2728 286.1 12.4628 284.6L13.9628 283.8C14.4915 284.784 14.7682 285.883 14.7682 287C14.7682 288.117 14.4915 289.216 13.9628 290.2ZM8.01279 280.255C9.12961 280.255 10.229 280.531 11.2128 281.06L10.4128 282.54C9.67524 282.143 8.85057 281.935 8.01279 281.935C7.17501 281.935 6.35034 282.143 5.61279 282.54L4.81279 281.06C5.79655 280.531 6.89597 280.255 8.01279 280.255ZM2.07056 283.804C1.54334 284.787 1.26742 285.885 1.26742 287C1.26742 288.117 1.54412 289.216 2.07279 290.2L3.56279 289.4C3.16542 288.662 2.9574 287.838 2.9574 287C2.9574 286.162 3.16542 285.338 3.56279 284.6L2.07056 283.804ZM8.01279 293.745C6.89597 293.745 5.79655 293.469 4.81279 292.94L5.61279 291.46C7.11279 292.26 8.91279 292.26 10.4128 291.46L11.2128 292.94C10.229 293.469 9.12961 293.745 8.01279 293.745ZM13.4163 393.479C11.9999 391.99 10.0653 391.103 8.01279 391C5.89106 391 3.85623 391.843 2.35593 393.343C0.855644 394.843 0.012789 396.878 0.012789 399C0.012789 401.122 0.855644 403.157 2.35593 404.657C3.85623 406.157 5.89106 407 8.01279 407C10.0653 406.897 11.9999 406.01 13.4163 404.521C14.8328 403.032 15.6227 401.055 15.6227 399C15.6227 396.945 14.8328 394.968 13.4163 393.479ZM10.1828 392.53C12.8828 393.44 14.8328 396 14.8328 399C14.8337 400.501 14.3379 401.96 13.4228 403.15C13.1728 402.95 12.9028 402.43 13.1528 401.88C13.4128 401.33 13.4728 400.06 13.4128 399.56C13.3628 399.06 13.1128 397.87 12.4128 397.86C11.7128 397.85 11.2228 397.62 10.8128 396.79C10.3449 395.854 10.8657 395.33 11.2993 394.893C11.6627 394.527 11.9649 394.223 11.5728 393.79C11.4959 393.707 11.3255 393.779 11.1211 393.865C10.6605 394.06 10.0275 394.327 9.90279 393.06C9.88279 392.93 10.0128 392.73 10.1828 392.53ZM3.7713 393.656C4.72597 392.898 5.86578 392.409 7.07279 392.24C6.97295 392.44 6.76796 392.565 6.56476 392.69C6.44233 392.765 6.32054 392.84 6.22279 392.93C5.97932 393.152 5.79423 393.265 5.63792 393.36C5.42827 393.487 5.27038 393.584 5.09279 393.87C4.96248 394.087 4.70012 394.344 4.445 394.594C4.11275 394.919 3.79279 395.232 3.79279 395.43C3.79279 395.79 4.29279 396.22 4.55279 396.13C4.98532 396.047 5.43172 396.071 5.85279 396.2C5.90355 396.217 5.99633 396.234 6.11732 396.256C6.92587 396.405 8.99434 396.786 8.20279 398.9C8.07477 399.229 7.77192 399.393 7.44035 399.574C6.99494 399.816 6.4977 400.086 6.30279 400.82C6.25279 401 6.07279 401.8 6.06279 402.07C6.05713 402.183 6.07791 402.387 6.10177 402.621C6.1622 403.214 6.2424 404 5.96279 404C5.56279 404 4.51279 402.63 4.51279 402.38C4.51279 402.288 4.47631 402.114 4.43016 401.893C4.35078 401.514 4.24279 400.998 4.24279 400.53C4.24279 400.18 3.96627 399.996 3.6713 399.799C3.33411 399.574 2.97279 399.333 2.97279 398.81C2.97279 398.34 3.1655 397.992 3.32362 397.707C3.46469 397.453 3.57823 397.248 3.50279 397.05C3.37917 396.696 2.53563 396.626 1.96287 396.58C1.84063 396.57 1.73073 396.561 1.64279 396.55C2.08178 395.413 2.81663 394.414 3.7713 393.656ZM8.915 405.76C7.89281 405.899 6.85249 405.803 5.87279 405.48H5.86279C6.03309 405.389 6.14128 405.287 6.2361 405.198C6.36954 405.072 6.47648 404.972 6.69279 404.96C6.96047 404.954 7.19973 404.886 7.46232 404.812C7.61174 404.77 7.76872 404.726 7.94279 404.69C8.10219 404.656 8.31057 404.573 8.54442 404.479C8.92672 404.327 9.37708 404.147 9.79279 404.11C10.3628 404.07 11.4728 404.14 11.7728 404.68C10.9144 405.252 9.93719 405.621 8.915 405.76Z" fill="#7D9CB8"/>
<path d="M8.66279 -83.7C8.26279 -84.1 7.66279 -84.1 7.36279 -83.7L0.212789 -76.75C-0.187211 -76.35 0.012789 -76.05 0.512789 -76.05L2.01279 -76V-71C2.01279 -70 2.01279 -70 3.01279 -70H5.51279C5.6454 -70 5.77257 -70.0527 5.86634 -70.1464C5.96011 -70.2402 6.01279 -70.3674 6.01279 -70.5V-74C6.01279 -74.5304 6.2235 -75.0391 6.59858 -75.4142C6.97365 -75.7893 7.48236 -76 8.01279 -76C8.54322 -76 9.05193 -75.7893 9.427 -75.4142C9.80207 -75.0391 10.0128 -74.5304 10.0128 -74V-70.5C10.0114 -70.434 10.0234 -70.3683 10.0481 -70.3071C10.0727 -70.2458 10.1095 -70.1901 10.1562 -70.1434C10.2029 -70.0967 10.2586 -70.0599 10.3198 -70.0353C10.3811 -70.0106 10.4468 -69.9986 10.5128 -70H13.0128C14.0128 -70 14.0128 -70 14.0128 -71V-76L15.5928 -76.06C15.9928 -76.16 16.1928 -76.46 15.7928 -76.76L8.66279 -83.7Z" fill="#7D9CB8"/>
</g>
</svg>
