<svg width="16" height="14" viewBox="0 0 16 14" fill="none" xmlns="http://www.w3.org/2000/svg">
<mask id="mask0" mask-type="alpha" maskUnits="userSpaceOnUse" x="0" y="0" width="16" height="14">
<rect width="16" height="14" fill="#7D9CB8"/>
</mask>
<g mask="url(#mask0)">
<path fill-rule="evenodd" clip-rule="evenodd" d="M8.01279 626.93C10.7528 626.93 13.0528 626.08 13.7828 624.92V624.93C13.9328 624.67 14.0128 624.81 14.0128 624.93V626.63C14.0128 628.29 11.3228 630 8.01279 630C4.70279 630 2.01279 628.3 2.01279 626.63V624.93C2.01279 624.81 2.09279 624.67 2.24279 624.93C2.97279 626.08 5.27279 626.93 8.01279 626.93ZM8.01279 622.34C10.7628 622.34 13.0828 621.59 13.7828 620.56C13.9328 620.35 14.0128 620.46 14.0128 620.56V622.57C14.0128 624.07 11.3228 625.29 8.01279 625.29C4.70279 625.29 2.01279 624.06 2.01279 622.56V620.56C2.01279 620.46 2.09279 620.35 2.23279 620.56C2.95279 621.59 5.26279 622.34 8.01279 622.34ZM2.01279 617.24C2.01279 616 4.70279 615 8.01279 615C11.3228 615 14.0128 616.01 14.0128 617.24V618.32C14.0128 619.63 11.3228 620.7 8.01279 620.7C4.70279 620.7 2.01279 619.63 2.01279 618.32V617.24ZM12.4128 655C12.1528 654.77 12.0528 654.53 11.9528 654L12.5128 650.5C12.5228 650.48 14.0128 647.5 11.3928 645.5C10.4219 644.761 9.90841 644.652 9.57733 644.581C9.46508 644.557 9.37381 644.538 9.29279 644.5C9.25275 644.48 9.18375 644.402 9.08916 644.295C8.90026 644.082 8.60926 643.753 8.24279 643.54C7.55279 643.14 6.66279 643 6.66279 643C6.89894 643.528 7.08314 644.077 7.21279 644.64C6.88279 644.76 6.41279 644.94 5.93279 645.18C4.68656 645.798 4.4225 646.426 4.11069 647.167L4.09279 647.21C3.35279 648.19 2.50279 648.66 2.49279 648.66C2.47242 648.671 2.44994 648.683 2.42616 648.696C2.26316 648.783 2.03897 648.902 2.01279 649.12C2.00279 649.25 2.02279 649.35 2.47279 650C2.67279 650.3 3.97279 651.04 4.04279 651C4.1588 650.938 4.43761 650.824 4.78605 650.682C5.60902 650.346 6.82044 649.851 7.19279 649.5C7.19279 651.019 6.04859 652.316 5.13925 653.347C4.55183 654.013 4.06241 654.568 4.04279 655H2.65279C2.43279 655 2.35279 655.02 2.27279 655.06C2.19008 655.105 2.12362 655.175 2.08279 655.26C2.03279 655.34 2.01279 655.42 2.01279 655.64V657.36C2.01279 657.58 2.03279 657.66 2.07279 657.74C2.11792 657.823 2.18788 657.889 2.27279 657.93C2.35279 657.98 2.43279 658 2.65279 658H13.3728C13.5928 658 13.6728 657.98 13.7528 657.94C13.8355 657.895 13.902 657.825 13.9428 657.74C13.9928 657.66 14.0128 657.58 14.0128 657.36V655.64C14.0128 655.42 13.9928 655.34 13.9528 655.26C13.9077 655.177 13.8377 655.111 13.7528 655.07C13.6728 655.02 13.5928 655 13.3728 655H12.4128ZM8.01279 602C12.2128 602 13.4728 599.55 13.8528 598.08V598.06L14.8728 598.16L13.1428 595L10.8928 597.81L11.8128 597.89C11.5328 598.65 10.8128 599.65 9.01279 599.92V593.82C9.68 593.584 10.2423 593.12 10.6004 592.51C10.9585 591.899 11.0893 591.182 10.9696 590.484C10.8499 589.787 10.4875 589.154 9.94645 588.698C9.40538 588.242 8.72048 587.992 8.01279 587.992C7.3051 587.992 6.6202 588.242 6.07913 588.698C5.53806 589.154 5.17566 589.787 5.05599 590.484C4.93632 591.182 5.06708 591.899 5.42516 592.51C5.78323 593.12 6.34558 593.584 7.01279 593.82V599.92C5.21279 599.65 4.49279 598.65 4.20279 597.89L5.13279 597.81L2.88279 595L1.15279 598.17L2.17279 598.08C2.55279 599.55 3.81279 602 8.01279 602ZM8.7199 591.707C8.53236 591.895 8.27801 592 8.01279 592C7.74757 592 7.49322 591.895 7.30568 591.707C7.11815 591.52 7.01279 591.265 7.01279 591C7.01279 590.735 7.11815 590.48 7.30568 590.293C7.49322 590.105 7.74757 590 8.01279 590C8.27801 590 8.53236 590.105 8.7199 590.293C8.90743 590.48 9.01279 590.735 9.01279 591C9.01279 591.265 8.90743 591.52 8.7199 591.707ZM0.49471 561.082C0.326506 561.282 0.24326 561.539 0.262789 561.8L1.05279 570.78C1.07816 571.042 1.20577 571.283 1.40795 571.452C1.61012 571.62 1.87056 571.702 2.13279 571.68L11.1128 570.9C11.3747 570.875 11.6161 570.747 11.7846 570.545C11.9531 570.343 12.0351 570.082 12.0128 569.82L11.2228 560.84C11.1974 560.578 11.0698 560.337 10.8676 560.168C10.6655 560 10.405 559.918 10.1428 559.94L1.16279 560.73C0.902715 560.755 0.662915 560.882 0.49471 561.082ZM3.7199 563.707C3.53236 563.895 3.27801 564 3.01279 564C2.74757 564 2.49322 563.895 2.30568 563.707C2.11815 563.52 2.01279 563.265 2.01279 563C2.01279 562.735 2.11815 562.48 2.30568 562.293C2.49322 562.105 2.74757 562 3.01279 562C3.27801 562 3.53236 562.105 3.7199 562.293C3.90743 562.48 4.01279 562.735 4.01279 563C4.01279 563.265 3.90743 563.52 3.7199 563.707ZM6.7199 566.707C6.53236 566.895 6.27801 567 6.01279 567C5.74757 567 5.49322 566.895 5.30568 566.707C5.11815 566.52 5.01279 566.265 5.01279 566C5.01279 565.735 5.11815 565.48 5.30568 565.293C5.49322 565.105 5.74757 565 6.01279 565C6.27801 565 6.53236 565.105 6.7199 565.293C6.90743 565.48 7.01279 565.735 7.01279 566C7.01279 566.265 6.90743 566.52 6.7199 566.707ZM9.7199 568.707C9.53236 568.895 9.27801 569 9.01279 569C8.74757 569 8.49322 568.895 8.30568 568.707C8.11815 568.52 8.01279 568.265 8.01279 568C8.01279 567.735 8.11815 567.48 8.30568 567.293C8.49322 567.105 8.74757 567 9.01279 567C9.27801 567 9.53236 567.105 9.7199 567.293C9.90743 567.48 10.0128 567.735 10.0128 568C10.0128 568.265 9.90743 568.52 9.7199 568.707ZM15.1428 565.02L12.9428 564.82L13.5028 571.32C13.5251 571.582 13.4431 571.843 13.2746 572.045C13.1061 572.247 12.8647 572.375 12.6028 572.4L4.38279 573.11L4.30279 574.11C4.28326 574.371 4.36651 574.628 4.53471 574.828C4.70292 575.028 4.94272 575.155 5.20279 575.18L14.1828 575.97C14.4449 575.989 14.7042 575.905 14.9045 575.734C15.1047 575.564 15.2298 575.322 15.2528 575.06L16.0428 566.09C16.0623 565.829 15.9791 565.572 15.8109 565.372C15.6427 565.172 15.4029 565.045 15.1428 565.02ZM0.502789 542.02C0.222789 542.02 0.012789 542.25 0.012789 542.52V545.53C0.0114585 545.595 0.0231499 545.66 0.0471783 545.721C0.0712067 545.781 0.107089 545.836 0.152723 545.883C0.198357 545.929 0.252824 545.967 0.312935 545.992C0.373046 546.017 0.437591 546.03 0.502789 546.03H3.52279C3.80279 546.03 4.01279 545.81 4.01279 545.54V542.52C4.01279 542.24 3.79279 542.02 3.52279 542.02H0.502789ZM5.50279 542.02C5.22279 542.02 5.01279 542.25 5.01279 542.52V545.53C5.01146 545.595 5.02315 545.66 5.04718 545.721C5.07121 545.781 5.10709 545.836 5.15272 545.883C5.19836 545.929 5.25282 545.967 5.31294 545.992C5.37305 546.017 5.43759 546.03 5.50279 546.03H8.52279C8.80279 546.03 9.01279 545.81 9.01279 545.54V542.52C9.01279 542.24 8.79279 542.02 8.52279 542.02H5.50279ZM10.5028 542.02C10.2228 542.02 10.0128 542.25 10.0128 542.52V545.53C10.0115 545.595 10.0231 545.66 10.0472 545.721C10.0712 545.781 10.1071 545.836 10.1527 545.883C10.1984 545.929 10.2528 545.967 10.3129 545.992C10.373 546.017 10.4376 546.03 10.5028 546.03H13.5228C13.8028 546.03 14.0128 545.81 14.0128 545.54V542.52C14.0128 542.24 13.7928 542.02 13.5228 542.02H10.5028ZM5.50279 537.02C5.22279 537.02 5.01279 537.25 5.01279 537.52V540.53C5.01146 540.595 5.02315 540.66 5.04718 540.721C5.07121 540.781 5.10709 540.836 5.15272 540.883C5.19836 540.929 5.25282 540.967 5.31294 540.992C5.37305 541.017 5.43759 541.03 5.50279 541.03H8.52279C8.80279 541.03 9.01279 540.81 9.01279 540.54V537.52C9.01279 537.24 8.79279 537.02 8.52279 537.02H5.50279ZM10.4207 533.025C10.4207 533.154 10.4718 533.278 10.5628 533.37L12.6928 535.51C12.7846 535.601 12.9086 535.652 13.0378 535.652C13.167 535.652 13.291 535.601 13.3828 535.51L15.5228 533.38C15.5694 533.334 15.6063 533.28 15.6316 533.22C15.6569 533.16 15.6699 533.095 15.6699 533.03C15.6699 532.965 15.6569 532.9 15.6316 532.84C15.6063 532.78 15.5694 532.726 15.5228 532.68L13.3928 530.55C13.3472 530.503 13.2927 530.466 13.2326 530.441C13.1725 530.416 13.108 530.403 13.0428 530.403C12.9776 530.403 12.9131 530.416 12.853 530.441C12.7929 530.466 12.7384 530.503 12.6928 530.55L10.5628 532.68C10.4718 532.772 10.4207 532.896 10.4207 533.025ZM0.502789 537.02C0.222789 537.02 0.012789 537.24 0.012789 537.51V540.53C0.0114585 540.595 0.0231499 540.66 0.0471783 540.721C0.0712067 540.781 0.107089 540.836 0.152723 540.883C0.198357 540.929 0.252824 540.967 0.312935 540.992C0.373046 541.017 0.437591 541.03 0.502789 541.03H3.52279C3.80279 541.03 4.01279 540.81 4.01279 540.54V537.52C4.01279 537.24 3.79279 537.02 3.52279 537.02H0.502789ZM0.502789 532.02C0.222789 532.02 0.012789 532.24 0.012789 532.51V535.53C0.0114585 535.595 0.0231499 535.66 0.0471783 535.721C0.0712067 535.781 0.107089 535.836 0.152723 535.883C0.198357 535.929 0.252824 535.967 0.312935 535.992C0.373046 536.017 0.437591 536.03 0.502789 536.03H3.52279C3.80279 536.03 4.01279 535.81 4.01279 535.54V532.52C4.01279 532.24 3.79279 532.02 3.52279 532.02H0.502789ZM4.99121 533.039C4.99961 533.103 5.02054 533.164 5.05279 533.22L5.06279 533.21L6.56279 535.83C6.62932 535.941 6.73715 536.021 6.86271 536.053C6.98826 536.085 7.12132 536.066 7.23279 536L9.85279 534.51C9.96393 534.443 10.0442 534.336 10.0761 534.21C10.1079 534.085 10.0888 533.951 10.0228 533.84L8.52279 531.22C8.45626 531.109 8.34843 531.029 8.22287 530.997C8.09732 530.965 7.96426 530.984 7.85279 531.05L5.23279 532.55C5.17692 532.582 5.12794 532.625 5.08865 532.676C5.04935 532.727 5.02052 532.785 5.0038 532.848C4.98708 532.91 4.9828 532.975 4.99121 533.039ZM11.7662 535.896C11.6429 535.929 11.5376 536.01 11.4728 536.12L9.95279 538.74C9.92094 538.796 9.90059 538.859 9.89291 538.923C9.88523 538.987 9.89038 539.052 9.90805 539.115C9.92571 539.177 9.95556 539.235 9.99585 539.286C10.0361 539.337 10.0861 539.379 10.1428 539.41L12.7528 540.92C12.8086 540.952 12.8702 540.973 12.9341 540.982C12.998 540.99 13.0629 540.986 13.1251 540.969C13.1874 540.952 13.2457 540.923 13.2968 540.884C13.3478 540.845 13.3907 540.796 13.4228 540.74L14.9328 538.12C14.965 538.064 14.986 538.003 14.9944 537.939C15.0028 537.875 14.9985 537.81 14.9818 537.748C14.9651 537.685 14.9362 537.627 14.8969 537.576C14.8576 537.525 14.8087 537.482 14.7528 537.45L12.1328 535.94C12.021 535.878 11.8895 535.862 11.7662 535.896ZM4.01279 396V392H3.51279C2.69279 392 2.01279 392.67 2.01279 393.5V404.5C2.01279 404.898 2.17082 405.279 2.45213 405.561C2.73343 405.842 3.11496 406 3.51279 406H13.5128C13.6454 406 13.7726 405.947 13.8663 405.854C13.9601 405.76 14.0128 405.633 14.0128 405.5V405H3.51279C3.23279 405 3.01279 404.77 3.01279 404.5C3.01279 404.367 3.06547 404.24 3.15924 404.146C3.253 404.053 3.38018 404 3.51279 404H14.0128V393.5C14.0128 393.102 13.8548 392.721 13.5734 392.439C13.2921 392.158 12.9106 392 12.5128 392H7.01279V396L5.51279 394L4.01279 396ZM9.05279 420H7.97279C7.64279 420 7.52279 420.03 7.39279 420.1C7.27375 420.163 7.17628 420.261 7.11279 420.38C7.04279 420.5 7.01279 420.63 7.01279 420.96V432.04C7.01279 432.37 7.04279 432.49 7.11279 432.62C7.17628 432.739 7.27375 432.837 7.39279 432.9C7.51279 432.96 7.64279 433 7.97279 433H9.05279C9.38279 433 9.50279 432.97 9.63279 432.9C9.75183 432.837 9.8493 432.739 9.91279 432.62C9.97279 432.49 10.0128 432.37 10.0128 432.04V420.96C10.0128 420.63 9.98279 420.51 9.91279 420.38C9.8493 420.261 9.75183 420.163 9.63279 420.1C9.50279 420.04 9.38279 420 9.05279 420ZM4.05279 426.98H2.97279C2.64279 426.98 2.52279 427.02 2.39279 427.08C2.27229 427.146 2.17467 427.247 2.11279 427.37C2.04279 427.49 2.01279 427.61 2.01279 427.95V432.02C2.01279 432.36 2.04279 432.48 2.11279 432.6C2.17628 432.719 2.27375 432.817 2.39279 432.88C2.51279 432.95 2.64279 432.98 2.97279 432.98H4.05279C4.38279 432.98 4.50279 432.95 4.63279 432.88C4.75183 432.817 4.8493 432.719 4.91279 432.6C4.98279 432.48 5.01279 432.36 5.01279 432.02V427.95C5.01279 427.61 4.98279 427.49 4.91279 427.37C4.85091 427.247 4.75329 427.146 4.63279 427.08C4.51279 427.02 4.38279 426.98 4.05279 426.98ZM14.6328 423.1C14.5028 423.04 14.3828 423 14.0528 423H12.9728C12.6428 423 12.5228 423.03 12.3928 423.1C12.2737 423.163 12.1763 423.261 12.1128 423.38C12.0428 423.51 12.0128 423.63 12.0128 423.96V432.04C12.0128 432.37 12.0428 432.49 12.1128 432.62C12.1763 432.739 12.2737 432.837 12.3928 432.9C12.5128 432.96 12.6428 433 12.9728 433H14.0528C14.3828 433 14.5028 432.97 14.6328 432.9C14.7518 432.837 14.8493 432.739 14.9128 432.62C14.9728 432.49 15.0128 432.37 15.0128 432.04V423.96C15.0128 423.63 14.9828 423.51 14.9128 423.38C14.8493 423.261 14.7518 423.163 14.6328 423.1ZM7.11162 517.375C9.73808 516.305 10.2107 516.112 9.85279 513.04L9.86279 513.05C9.86279 513.05 15.6028 508.99 14.9628 504.35C14.9515 504.274 14.9165 504.204 14.8628 504.15C14.8328 504.1 14.7628 504.06 14.6628 504.05C10.0228 503.41 5.97279 509.16 5.97279 509.16C2.89173 508.801 2.69906 509.277 1.62594 511.93C1.47306 512.308 1.30231 512.73 1.10279 513.2C0.802789 513.91 1.29279 514.16 1.84279 513.96L3.59279 513.32L5.70279 515.42L5.05279 517.17C4.85279 517.71 5.10279 518.21 5.82279 517.91C6.30082 517.705 6.72907 517.531 7.11162 517.375ZM11.0792 508.639C10.9248 508.568 10.7865 508.466 10.6728 508.34C10.4592 508.102 10.3447 507.792 10.3527 507.473C10.3607 507.154 10.4907 506.849 10.7159 506.623C10.9411 506.396 11.2446 506.265 11.5638 506.255C11.8831 506.245 12.194 506.358 12.4328 506.57C12.5599 506.683 12.6626 506.821 12.7346 506.975C12.8066 507.129 12.8465 507.296 12.8517 507.466C12.8569 507.636 12.8274 507.805 12.765 507.963C12.7026 508.121 12.6086 508.265 12.4887 508.386C12.3688 508.506 12.2256 508.601 12.0678 508.664C11.91 508.728 11.7409 508.758 11.5709 508.754C11.4009 508.75 11.2336 508.711 11.0792 508.639ZM7.01279 456V455H2.01279V460.01C2.01542 460.273 2.12194 460.525 2.30919 460.711C2.49645 460.896 2.7493 461 3.01279 461H14.0128C14.2763 461 14.5291 460.896 14.7164 460.711C14.9036 460.525 15.0102 460.273 15.0128 460.01V455H10.0128V456H7.01279ZM1.08602 450.624C1.03636 450.747 1.01147 450.878 1.01279 451.01V454H16.0128V451.01C16.0141 450.878 15.9892 450.747 15.9396 450.624C15.8899 450.502 15.8164 450.39 15.7235 450.296C15.6305 450.202 15.5198 450.128 15.3978 450.077C15.2758 450.026 15.145 450 15.0128 450H12.5128L11.5128 448H5.51279L4.51279 450H2.01279C1.88062 450 1.74976 450.026 1.62778 450.077C1.5058 450.128 1.39511 450.202 1.30212 450.296C1.20913 450.39 1.13568 450.502 1.08602 450.624ZM11.0128 450H6.01279L6.51279 449H10.5128L11.0128 450ZM10.1828 312.12L8.62279 307.72C8.57685 307.595 8.49374 307.487 8.38466 307.411C8.27558 307.335 8.14578 307.294 8.01279 307.294C7.87979 307.294 7.75 307.335 7.64092 307.411C7.53184 307.487 7.44872 307.595 7.40279 307.72L5.84279 312.11H1.95279C1.81637 312.11 1.6834 312.153 1.57273 312.233C1.46205 312.312 1.37929 312.425 1.33614 312.554C1.293 312.684 1.29168 312.824 1.33236 312.954C1.37303 313.084 1.45365 313.198 1.56279 313.28L4.76279 315.7L3.56279 320.15C3.52398 320.283 3.52847 320.424 3.5756 320.554C3.62272 320.684 3.71004 320.796 3.82487 320.873C3.9397 320.949 4.07607 320.988 4.21416 320.982C4.35225 320.976 4.48488 320.926 4.59279 320.84L8.01279 318.22L11.4328 320.84C11.541 320.922 11.6723 320.969 11.8082 320.972C11.9441 320.976 12.0777 320.937 12.1903 320.861C12.3029 320.785 12.3888 320.675 12.4359 320.548C12.4829 320.42 12.4889 320.281 12.4528 320.15L11.2528 315.7L14.4728 313.28C14.5785 313.196 14.6557 313.082 14.6936 312.953C14.7315 312.823 14.7282 312.686 14.6843 312.558C14.6404 312.431 14.5579 312.32 14.4484 312.242C14.3388 312.163 14.2076 312.121 14.0728 312.12H10.1828ZM5.01279 259.5C5.01279 258.7 4.31279 258 3.51279 258C2.71279 258 2.01279 258.7 2.01279 259.5C2.01279 260.3 2.71279 261 3.51279 261C4.31279 261 5.01279 260.3 5.01279 259.5ZM10.0128 259.5C10.0128 258.7 9.31279 258 8.51279 258C7.71279 258 7.01279 258.7 7.01279 259.5C7.01279 260.3 7.71279 261 8.51279 261C9.31279 261 10.0128 260.3 10.0128 259.5ZM15.0128 259.5C15.0128 258.7 14.3128 258 13.5128 258C12.7128 258 12.0128 258.7 12.0128 259.5C12.0128 260.3 12.7128 261 13.5128 261C14.3128 261 15.0128 260.3 15.0128 259.5ZM11.0128 345L13.9728 346.48V346.49C13.9715 346.556 13.9831 346.621 14.007 346.682C14.0309 346.743 14.0666 346.799 14.1121 346.846C14.1576 346.894 14.212 346.932 14.2722 346.958C14.3324 346.984 14.3971 346.999 14.4628 347H14.5128C14.5793 347 14.6451 346.987 14.7065 346.961C14.7678 346.935 14.8234 346.898 14.8699 346.85C14.9165 346.803 14.9531 346.746 14.9776 346.684C15.0022 346.623 15.0141 346.556 15.0128 346.49V337.51C15.0128 337.23 14.7928 337 14.5128 337H14.4728C14.4063 337 14.3404 337.013 14.2791 337.039C14.2178 337.065 14.1622 337.102 14.1157 337.15C14.0691 337.197 14.0325 337.254 14.0079 337.316C13.9834 337.377 13.9715 337.444 13.9728 337.51V337.52L11.0128 339V345ZM7.77279 348.78L7.17279 345H10.0128V339H4.01279C3.21714 339 2.45408 339.316 1.89147 339.879C1.32886 340.441 1.01279 341.204 1.01279 342C1.01279 342.796 1.32886 343.559 1.89147 344.121C2.45408 344.684 3.21714 345 4.01279 345H5.17279L5.85279 349.05C5.89703 349.305 6.03846 349.533 6.24734 349.686C6.45622 349.839 6.71627 349.905 6.97279 349.87C7.09723 349.852 7.21681 349.809 7.32457 349.744C7.43234 349.679 7.52616 349.594 7.60058 349.492C7.675 349.391 7.72855 349.276 7.75811 349.153C7.78767 349.031 7.79266 348.904 7.77279 348.78ZM9.01279 280V284.5C9.01279 284.633 9.06547 284.76 9.15924 284.854C9.253 284.947 9.38018 285 9.51279 285H14.0128L9.01279 280ZM8.01279 280H3.29279C2.85279 280 2.69279 280.05 2.52279 280.13C2.36038 280.215 2.2278 280.348 2.14279 280.51C2.06279 280.68 2.01279 280.84 2.01279 281.28V292.72C2.01279 293.16 2.06279 293.32 2.14279 293.49C2.2278 293.652 2.36038 293.785 2.52279 293.87C2.69279 293.95 2.85279 294 3.29279 294H12.7328C13.1728 294 13.3328 293.95 13.5028 293.87C13.6652 293.785 13.7978 293.652 13.8828 293.49C13.9628 293.32 14.0128 293.16 14.0128 292.72V286H9.29279C8.85279 286 8.69279 285.95 8.52279 285.87C8.36279 285.78 8.24279 285.65 8.14279 285.49C8.06279 285.32 8.01279 285.16 8.01279 284.72V280ZM16.0028 143.71C16.1128 142.84 15.3628 142.08 14.5128 142.08H13.1228C12.9128 142.08 12.5828 141.86 12.4828 141.64L11.9528 140.44C11.8428 140.22 11.6328 140 11.3128 140H4.81279C4.59279 140 4.27279 140.22 4.17279 140.44L3.64279 141.64C3.53279 141.86 3.32279 142.08 3.00279 142.08H1.61279C0.762789 142.08 0.012789 143.06 0.012789 143.93V151.36C0.012789 152.24 0.762789 153 1.61279 153H14.4028C15.2528 153 16.0028 152.23 16.0028 151.36V143.71ZM12.0128 147C12.0128 149.17 10.1828 151 8.01279 151C5.84279 151 4.01279 149.17 4.01279 147C4.01279 144.83 5.84279 143 8.01279 143C10.1828 143 12.0128 144.83 12.0128 147ZM10.5128 147C10.5128 145.59 9.42279 144.5 8.01279 144.5C6.60279 144.5 5.51279 145.59 5.51279 147C5.51279 148.41 6.60279 149.5 8.01279 149.5C9.42279 149.5 10.5128 148.41 10.5128 147ZM12.0128 171V176.82C11.586 176.821 11.164 176.909 10.7728 177.08C9.50279 177.62 8.80279 178.84 9.21279 179.8C9.62279 180.77 10.9828 181.12 12.2528 180.57C13.2528 180.15 13.9028 179.3 13.9328 178.49L14.0128 178.5V167L4.02279 169.96V179C4.02199 179.02 4.02199 179.04 4.02279 179.06C3.62697 179.053 3.23339 179.121 2.86279 179.26C1.56279 179.73 0.802789 180.9 1.16279 181.9C1.52279 182.88 2.86279 183.3 4.16279 182.83C5.33279 182.4 6.06279 181.4 5.93279 180.48L6.01279 180.5V173L12.0128 171ZM5.01279 210H11.0128V208H13.0128V210H14.0128C14.278 210 14.5324 209.895 14.7199 209.707C14.9074 209.52 15.0128 209.265 15.0128 209V197C15.0128 196.735 14.9074 196.48 14.7199 196.293C14.5324 196.105 14.278 196 14.0128 196H13.0128V198H11.0128V196H5.01279V198H3.01279V196H2.01279C1.74757 196 1.49322 196.105 1.30568 196.293C1.11815 196.48 1.01279 196.735 1.01279 197V209C1.01279 209.265 1.11815 209.52 1.30568 209.707C1.49322 209.895 1.74757 210 2.01279 210H3.01279V208H5.01279V210ZM5.01279 200V202H3.01279V200H5.01279ZM13.0128 200V202H11.0128V200H13.0128ZM5.01279 204V206H3.01279V204H5.01279ZM13.0128 204V206H11.0128V204H13.0128ZM14.1828 237C16.7828 236.79 15.8828 232.65 15.7828 232.25C15.2828 229.93 13.9928 226 11.1128 226C10.557 226.084 10.0173 226.252 9.51279 226.5C8.21279 227 7.62279 227 6.43279 226.5C5.73279 226.1 4.83279 226 4.83279 226C2.04279 226 0.642789 230.03 0.242789 232.25C0.142789 232.66 -0.747211 236.9 1.74279 237C2.50583 237.077 3.39363 236.073 4.17266 235.192C4.40437 234.93 4.62646 234.679 4.83279 234.47C5.72279 233.47 6.52279 232.97 7.91279 232.97C9.30279 232.97 10.2028 233.47 11.0028 234.47C11.2011 234.671 11.4135 234.91 11.6359 235.161C12.4224 236.05 13.333 237.078 14.1828 237ZM10.5128 231C10.2328 231 10.0128 230.77 10.0128 230.5C10.0128 230.367 10.0655 230.24 10.1592 230.146C10.253 230.053 10.3802 230 10.5128 230C10.6454 230 10.7726 230.053 10.8663 230.146C10.9601 230.24 11.0128 230.367 11.0128 230.5C11.0128 230.633 10.9601 230.76 10.8663 230.854C10.7726 230.947 10.6454 231 10.5128 231ZM12.5128 231C12.2328 231 12.0128 230.77 12.0128 230.5C12.0128 230.367 12.0655 230.24 12.1592 230.146C12.253 230.053 12.3802 230 12.5128 230C12.6454 230 12.7726 230.053 12.8663 230.146C12.9601 230.24 13.0128 230.367 13.0128 230.5C13.0128 230.633 12.9601 230.76 12.8663 230.854C12.7726 230.947 12.6454 231 12.5128 231ZM5.01279 229.5V230H5.51279C5.6454 230 5.77257 230.053 5.86634 230.146C5.96011 230.24 6.01279 230.367 6.01279 230.5C6.01279 230.633 5.96011 230.76 5.86634 230.854C5.77257 230.947 5.6454 231 5.51279 231H5.01279V231.5C5.01279 231.633 4.96011 231.76 4.86634 231.854C4.77257 231.947 4.6454 232 4.51279 232C4.38018 232 4.253 231.947 4.15924 231.854C4.06547 231.76 4.01279 231.633 4.01279 231.5V231H3.51279C3.38018 231 3.253 230.947 3.15924 230.854C3.06547 230.76 3.01279 230.633 3.01279 230.5C3.01279 230.367 3.06547 230.24 3.15924 230.146C3.253 230.053 3.38018 230 3.51279 230H4.01279V229.5C4.01279 229.367 4.06547 229.24 4.15924 229.146C4.253 229.053 4.38018 229 4.51279 229C4.6454 229 4.77257 229.053 4.86634 229.146C4.96011 229.24 5.01279 229.367 5.01279 229.5ZM14.0128 96.1C14.0128 94.7 13.4128 92 8.01279 92C2.61279 92 2.01279 94.6 2.01279 96.1C2.01279 96.8 2.37279 97 3.81279 97H12.3328C13.7728 97 14.0128 96.8 14.0128 96.1ZM5.01279 87.5C5.01279 89.83 6.35279 91 8.01279 91C9.67279 91 11.0128 89.83 11.0128 87.5C11.0128 85.17 9.67279 84 8.01279 84C6.35279 84 5.01279 85.17 5.01279 87.5ZM5.01279 119C0.0127892 119 0.012789 121.6 0.012789 123.1C0.012789 123.8 0.312789 124 1.51279 124H8.61279C9.81279 124 10.0128 123.8 10.0128 123.1C10.0128 121.7 10.0128 119 5.01279 119ZM11.6128 123.72L11.6028 124H14.6128C15.8128 124 16.0128 123.8 16.0128 123.1C16.0128 121.7 15.5128 119 11.0128 119L10.1428 119.02C11.5728 120.38 11.6128 122.35 11.6128 123.72ZM3.01279 115.5C3.01279 117.17 3.91279 118 5.01279 118C6.11279 118 7.01279 117.17 7.01279 115.5C7.01279 113.83 6.11279 113 5.01279 113C3.91279 113 3.01279 113.83 3.01279 115.5ZM9.01279 115.5C9.01279 117.17 9.91279 118 11.0128 118C12.1128 118 13.0128 117.17 13.0128 115.5C13.0128 113.83 12.1128 113 11.0128 113C9.91279 113 9.01279 113.83 9.01279 115.5ZM16.0128 35C16.0128 32.9 14.4428 31.09 12.2428 30.36C13.0428 31.38 13.5128 32.63 13.5128 34C13.5128 36.71 11.6728 38.94 9.07279 39.94C9.75686 40.0321 10.4506 40.0254 11.1328 39.92C11.6028 40.6 12.4428 41.02 14.0228 41.02C13.5828 40.37 13.2828 39.72 13.2028 39.24C14.8928 38.35 16.0128 36.79 16.0128 35ZM1.99279 40C3.58279 40 4.41279 39.6 4.89279 38.9V38.91C5.25279 38.97 5.63279 39 6.01279 39C9.32279 39 12.0128 36.76 12.0128 34C12.0128 31.24 9.32279 29 6.01279 29C2.70279 29 0.012789 31.24 0.012789 34C0.012789 35.78 1.13279 37.35 2.82279 38.24C2.74279 38.71 2.44279 39.36 1.99279 40ZM6.59858 69.4142C6.97365 69.7893 7.48236 70 8.01279 70C8.54322 70 9.05193 69.7893 9.427 69.4142C9.80207 69.0391 10.0128 68.5304 10.0128 68H6.01279C6.01279 68.5304 6.2235 69.0391 6.59858 69.4142ZM14.5628 65.6C14.0228 64.8 12.8628 64 12.8628 64V61C12.8628 58.4 11.4028 56.5 9.19279 56C9.19279 56 9.20279 55 8.01279 55C6.82279 55 6.82279 56 6.82279 56C4.35279 56.5 3.16279 58.4 3.16279 61V64C3.16279 64 2.00279 64.8 1.46279 65.6C0.502789 66.9 1.14279 67 2.64279 67H13.3828C14.8728 67 15.5228 66.9 14.5628 65.6ZM1.01279 937H13.5128C14.3328 937 15.0128 936.33 15.0128 935.5V924C15.0128 923.735 14.9074 923.48 14.7199 923.293C14.5324 923.105 14.278 923 14.0128 923H4.01279C3.74838 923.003 3.49554 923.109 3.30856 923.296C3.12159 923.483 3.01539 923.736 3.01279 924V934H2.51279C2.23279 934 2.01279 933.77 2.01279 933.5V927H0.012789V936C0.012789 936.265 0.118146 936.52 0.305682 936.707C0.493219 936.895 0.747573 937 1.01279 937ZM6.01279 929.51V926.49C6.01541 926.359 6.06924 926.234 6.16272 926.143C6.25621 926.051 6.3819 926 6.51279 926H11.5128C11.578 925.999 11.6428 926.01 11.7034 926.034C11.764 926.058 11.8192 926.094 11.8658 926.14C11.9123 926.186 11.9493 926.24 11.9746 926.3C11.9998 926.36 12.0128 926.425 12.0128 926.49V929.51C12.0102 929.641 11.9563 929.766 11.8629 929.857C11.7694 929.949 11.6437 930 11.5128 930H6.51279C6.23279 930 6.01279 929.79 6.01279 929.51ZM6.51279 932C6.23279 932 6.01279 931.77 6.01279 931.5C6.01279 931.367 6.06547 931.24 6.15924 931.146C6.253 931.053 6.38018 931 6.51279 931H11.5128C11.6454 931 11.7726 931.053 11.8663 931.146C11.9601 931.24 12.0128 931.367 12.0128 931.5C12.0128 931.633 11.9601 931.76 11.8663 931.854C11.7726 931.947 11.6454 932 11.5128 932H6.51279ZM6.50279 934C6.23279 934 6.01279 933.77 6.01279 933.5C6.01276 933.369 6.06407 933.243 6.15568 933.15C6.2473 933.056 6.37192 933.003 6.50279 933H9.52279C9.65366 933.003 9.77828 933.056 9.86989 933.15C9.96151 933.243 10.0128 933.369 10.0128 933.5C10.0128 933.631 9.96151 933.757 9.86989 933.85C9.77828 933.944 9.65366 933.997 9.52279 934H6.50279ZM5.18436 950.172C4.43422 950.922 4.01279 951.939 4.01279 953H3.29279C2.85279 953 2.69279 953.05 2.52279 953.13C2.36038 953.215 2.2278 953.348 2.14279 953.51C2.06279 953.68 2.01279 953.84 2.01279 954.28V962.72C2.01279 963.16 2.06279 963.33 2.14279 963.49C2.2278 963.652 2.36038 963.785 2.52279 963.87C2.69279 963.95 2.85279 964 3.29279 964H12.7328C13.1728 964 13.3328 963.95 13.5028 963.87C13.6652 963.785 13.7978 963.652 13.8828 963.49C13.9628 963.32 14.0128 963.16 14.0128 962.72V954.28C14.0128 953.84 13.9628 953.68 13.8828 953.51C13.7928 953.35 13.6628 953.23 13.5028 953.13C13.3328 953.05 13.1728 953 12.7328 953H12.0128C12.0128 951.939 11.5914 950.922 10.8412 950.172C10.0911 949.421 9.07365 949 8.01279 949C6.95192 949 5.93451 949.421 5.18436 950.172ZM9.95733 951.055C10.4731 951.571 10.7628 952.271 10.7628 953H5.26279C5.26279 952.271 5.55252 951.571 6.06825 951.055C6.58397 950.54 7.28344 950.25 8.01279 950.25C8.74213 950.25 9.44161 950.54 9.95733 951.055ZM9.91279 972.55L9.10279 973.64C8.3893 973.444 7.63627 973.444 6.92279 973.64L6.11279 972.55C6.05369 972.471 5.97966 972.405 5.89491 972.355C5.81016 972.304 5.71636 972.271 5.61886 972.258C5.52135 972.244 5.42206 972.249 5.32665 972.273C5.23124 972.298 5.14158 972.341 5.06279 972.4C4.984 972.459 4.91761 972.533 4.86743 972.618C4.81725 972.703 4.78426 972.796 4.77033 972.894C4.7564 972.991 4.76181 973.091 4.78625 973.186C4.8107 973.282 4.85369 973.371 4.91279 973.45L5.61279 974.4C4.97913 975.128 4.59383 976.038 4.51279 977H11.5128C11.3428 975.84 10.9828 974.98 10.4128 974.39L11.1128 973.45C11.1719 973.371 11.2149 973.282 11.2393 973.186C11.2638 973.091 11.2692 972.991 11.2553 972.894C11.2413 972.796 11.2083 972.703 11.1581 972.618C11.108 972.533 11.0416 972.459 10.9628 972.4C10.884 972.341 10.7943 972.298 10.6989 972.273C10.6035 972.249 10.5042 972.244 10.4067 972.258C10.3092 972.271 10.2154 972.304 10.1307 972.355C10.0459 972.405 9.97188 972.471 9.91279 972.55ZM3.51279 978C3.43279 978.31 3.37279 978.64 3.32279 978.97L2.78279 978.62C2.75546 978.6 2.73251 978.575 2.71532 978.545C2.69812 978.516 2.68706 978.484 2.68279 978.45L2.25279 975.88C2.23968 975.78 2.20674 975.685 2.1559 975.598C2.10506 975.512 2.03737 975.436 1.95683 975.376C1.8763 975.316 1.78455 975.273 1.68704 975.249C1.58953 975.226 1.48824 975.222 1.38916 975.238C1.29008 975.254 1.19523 975.289 1.11024 975.343C1.02524 975.396 0.951834 975.466 0.894356 975.548C0.836878 975.631 0.796502 975.724 0.77562 975.822C0.754738 975.92 0.753775 976.021 0.772789 976.12L1.20279 978.7C1.24255 978.934 1.32955 979.158 1.45849 979.357C1.58743 979.557 1.75561 979.728 1.95279 979.86L3.21279 980.7C3.21654 981.573 3.30699 982.444 3.48279 983.3L1.80279 984.7C1.49434 984.955 1.28257 985.308 1.20279 985.7L0.772789 987.85C0.753091 987.947 0.752726 988.047 0.771716 988.145C0.790705 988.242 0.828677 988.335 0.883464 988.417C0.938251 988.5 1.00878 988.571 1.09102 988.626C1.17326 988.682 1.26561 988.72 1.36279 988.74C1.45997 988.76 1.56007 988.76 1.65739 988.741C1.75471 988.722 1.84734 988.684 1.92998 988.629C2.01263 988.575 2.08367 988.504 2.13906 988.422C2.19444 988.34 2.23309 988.247 2.25279 988.15L2.68279 985.99C2.69326 985.936 2.72139 985.887 2.76279 985.85L3.93279 984.88C4.69279 986.94 6.05279 988.5 8.01279 988.5C9.97279 988.5 11.3328 986.94 12.0928 984.88L13.2628 985.85C13.3042 985.887 13.3323 985.936 13.3428 985.99L13.7828 988.15C13.8025 988.247 13.841 988.338 13.8961 988.42C13.9513 988.501 14.022 988.571 14.1041 988.626C14.1863 988.68 14.2784 988.718 14.3751 988.736C14.4718 988.755 14.5713 988.755 14.6678 988.735C14.7643 988.715 14.856 988.677 14.9376 988.622C15.0193 988.567 15.0893 988.496 15.1436 988.414C15.1979 988.331 15.2355 988.239 15.2542 988.143C15.273 988.046 15.2725 987.946 15.2528 987.85L14.8228 985.7C14.7428 985.3 14.5228 984.95 14.2228 984.7L12.5428 983.3C12.7186 982.444 12.809 981.573 12.8128 980.7L14.0728 979.86C14.4728 979.6 14.7428 979.17 14.8228 978.7L15.2528 976.12C15.2718 976.021 15.2708 975.92 15.25 975.822C15.2291 975.724 15.1887 975.631 15.1312 975.548C15.0737 975.466 15.0003 975.396 14.9153 975.343C14.8303 975.289 14.7355 975.254 14.6364 975.238C14.5373 975.222 14.436 975.226 14.3385 975.249C14.241 975.273 14.1493 975.316 14.0687 975.376C13.9882 975.436 13.9205 975.512 13.8697 975.598C13.8188 975.685 13.7859 975.78 13.7728 975.88L13.3428 978.45C13.3373 978.484 13.3247 978.517 13.3058 978.547C13.2868 978.576 13.262 978.601 13.2328 978.62L12.7028 978.97C12.6528 978.64 12.5928 978.31 12.5128 978H3.51279ZM0.617642 1012.06C1.0199 1013.03 1.60951 1013.92 2.35279 1014.66C3.85391 1016.16 5.88988 1017 8.01279 1017C10.1357 1017 12.1717 1016.16 13.6728 1014.66C15.1739 1013.16 16.0172 1011.12 16.0172 1009C16.0172 1006.88 15.1739 1004.84 13.6728 1003.34C12.9295 1002.6 12.0471 1002.01 11.076 1001.6C10.1048 1001.2 9.06395 1001 8.01279 1001C6.96163 1001 5.92076 1001.2 4.94962 1001.6C3.97847 1002.01 3.09607 1002.6 2.35279 1003.34C1.60951 1004.08 1.0199 1004.97 0.617642 1005.94C0.215381 1006.91 0.00833988 1007.95 0.00833991 1009C0.00833995 1010.05 0.215381 1011.09 0.617642 1012.06ZM8.50307 1011.45C8.98862 1011.35 9.43404 1011.11 9.78279 1010.76C9.91759 1010.63 10.0926 1010.54 10.2807 1010.52C10.4688 1010.49 10.6593 1010.53 10.8228 1010.63C10.9062 1010.68 10.9779 1010.75 11.0331 1010.83C11.0883 1010.91 11.1257 1011 11.1428 1011.09C11.1598 1011.19 11.1562 1011.29 11.132 1011.38C11.1079 1011.48 11.0638 1011.56 11.0028 1011.64L10.8428 1011.83C10.2832 1012.39 9.57046 1012.77 8.79466 1012.92C8.01886 1013.08 7.21482 1013 6.48417 1012.7C5.75353 1012.39 5.12908 1011.88 4.68975 1011.22C4.25042 1010.56 4.01594 1009.79 4.01594 1009C4.01594 1008.21 4.25042 1007.44 4.68975 1006.78C5.12908 1006.12 5.75353 1005.61 6.48417 1005.3C7.21482 1005 8.01886 1004.92 8.79466 1005.08C9.57046 1005.23 10.2832 1005.61 10.8428 1006.17C10.9023 1006.23 10.959 1006.29 11.0128 1006.36C11.0756 1006.44 11.1211 1006.52 11.1463 1006.62C11.1714 1006.71 11.1756 1006.81 11.1585 1006.91C11.1413 1007.01 11.1034 1007.1 11.0471 1007.18C10.9909 1007.26 10.9178 1007.33 10.8328 1007.38C10.6673 1007.48 10.474 1007.52 10.2837 1007.49C10.0934 1007.47 9.91708 1007.38 9.78279 1007.24C9.43404 1006.89 8.98862 1006.65 8.50307 1006.55C8.01753 1006.45 7.51374 1006.5 7.05565 1006.69C6.59755 1006.88 6.20581 1007.2 5.93014 1007.61C5.65447 1008.02 5.50729 1008.5 5.50729 1009C5.50729 1009.5 5.65447 1009.98 5.93014 1010.39C6.20581 1010.8 6.59755 1011.12 7.05565 1011.31C7.51374 1011.5 8.01753 1011.55 8.50307 1011.45ZM2.35593 1042.66C3.85623 1044.16 5.89106 1045 8.01279 1045C10.1345 1045 12.1694 1044.16 13.6696 1042.66C15.1699 1041.16 16.0128 1039.12 16.0128 1037C16.0128 1034.88 15.1699 1032.84 13.6696 1031.34C12.1694 1029.84 10.1345 1029 8.01279 1029C5.89106 1029 3.85623 1029.84 2.35593 1031.34C0.855644 1032.84 0.012789 1034.88 0.012789 1037C0.012789 1039.12 0.855644 1041.16 2.35593 1042.66ZM2.29279 1061.02H2.22279L2.23279 1061.01C2.2052 1061.01 2.17814 1061.02 2.15315 1061.03C2.12816 1061.04 2.10573 1061.06 2.08715 1061.08C2.06857 1061.1 2.05421 1061.12 2.04488 1061.15C2.03555 1061.17 2.03144 1061.2 2.03279 1061.23V1068.08C2.01411 1068.18 2.01411 1068.28 2.03279 1068.38C2.08534 1068.45 2.15921 1068.5 2.24279 1068.52C2.31702 1068.59 2.40568 1068.65 2.50279 1068.68L7.50279 1070.68C7.63855 1070.73 7.77921 1070.77 7.92279 1070.8C8.01183 1070.82 8.10375 1070.82 8.19279 1070.8C8.34279 1070.77 8.48279 1070.73 8.61279 1070.67L13.6128 1068.67C13.709 1068.64 13.7976 1068.59 13.8728 1068.52C13.9318 1068.48 13.9744 1068.42 13.9928 1068.35C14.0128 1068.25 14.0128 1068.14 13.9928 1068.04V1061.21C13.9991 1061.2 14.0024 1061.18 14.0024 1061.17C14.0024 1061.16 14.0014 1061.15 13.9993 1061.14C13.9978 1061.13 13.9956 1061.13 13.9928 1061.12C13.9692 1061.07 13.9297 1061.04 13.8818 1061.02C13.8339 1061 13.7809 1061 13.7328 1061.02L8.57279 1063.12C8.44279 1063.17 8.30279 1063.22 8.16279 1063.25C8.06279 1063.27 7.97279 1063.27 7.88279 1063.25C7.73279 1063.22 7.59279 1063.17 7.46279 1063.12L2.29279 1061.02ZM8.57279 1057.15C8.44279 1057.09 8.30279 1057.04 8.15279 1057.02H8.16279C8.07053 1057 7.97505 1057 7.88279 1057.02C7.73279 1057.05 7.59279 1057.09 7.46279 1057.15L2.19279 1059.25C2.1459 1059.28 2.11032 1059.32 2.09279 1059.37C2.07602 1059.42 2.07805 1059.47 2.09847 1059.52C2.11889 1059.56 2.15618 1059.6 2.20279 1059.62L7.46279 1061.72C7.59439 1061.78 7.73197 1061.82 7.87279 1061.84C7.96505 1061.86 8.06053 1061.86 8.15279 1061.84C8.30279 1061.82 8.44279 1061.77 8.57279 1061.72L13.8428 1059.62C13.8897 1059.59 13.9253 1059.55 13.9428 1059.5C13.9626 1059.45 13.9621 1059.4 13.9415 1059.35C13.9209 1059.3 13.8818 1059.26 13.8328 1059.24L8.57279 1057.15ZM8.86634 1039.85C8.77257 1039.95 8.6454 1040 8.51279 1040H7.01279V1040.49C7.01412 1040.56 7.00217 1040.62 6.97764 1040.68C6.95311 1040.75 6.91649 1040.8 6.86993 1040.85C6.82336 1040.9 6.76779 1040.94 6.70647 1040.96C6.64515 1040.99 6.5793 1041 6.51279 1041C6.38018 1041 6.253 1040.95 6.15924 1040.85C6.06547 1040.76 6.01279 1040.63 6.01279 1040.5V1040.01L5.51279 1040C5.23279 1040 5.01279 1039.78 5.01279 1039.5C5.01541 1039.37 5.06924 1039.24 5.16272 1039.15C5.25621 1039.06 5.3819 1039.01 5.51279 1039.01H6.01279V1038L5.51279 1037.99C5.23279 1037.99 5.01279 1037.76 5.01279 1037.49C5.01541 1037.36 5.06924 1037.23 5.16272 1037.14C5.25621 1037.05 5.3819 1037 5.51279 1037H6.01279V1033.51C6.01279 1033.38 6.06547 1033.25 6.15924 1033.16C6.253 1033.06 6.38018 1033.01 6.51279 1033.01H8.51279C10.2428 1033.01 11.5128 1034 11.5128 1035.5C11.5128 1037 10.2628 1038 8.51279 1038H7.01279V1039H8.51279C8.6454 1039 8.77257 1039.05 8.86634 1039.15C8.96011 1039.24 9.01279 1039.37 9.01279 1039.5C9.01279 1039.63 8.96011 1039.76 8.86634 1039.85ZM8.51279 1034H7.01279V1037H8.51279C10.0128 1037 10.5128 1036.25 10.5128 1035.5C10.5128 1034.75 10.0128 1034 8.51279 1034ZM16.0172 371C16.0172 368.877 15.1739 366.841 13.6728 365.34C12.9295 364.597 12.0471 364.007 11.076 363.605C10.1048 363.203 9.06395 362.996 8.01279 362.996C6.96163 362.996 5.92076 363.203 4.94962 363.605C3.97847 364.007 3.09607 364.597 2.35279 365.34C1.60951 366.083 1.0199 366.966 0.617643 367.937C0.215381 368.908 0.00834027 369.949 0.00834027 371C0.00834027 372.051 0.215381 373.092 0.617643 374.063C1.0199 375.034 1.60951 375.917 2.35279 376.66C3.85391 378.161 5.88988 379.004 8.01279 379.004C10.1357 379.004 12.1717 378.161 13.6728 376.66C15.1739 375.159 16.0172 373.123 16.0172 371ZM6.67833 374.229C6.25367 374.053 5.86781 373.795 5.54279 373.47C4.88638 372.814 4.51761 371.923 4.51761 370.995C4.51761 370.067 4.88638 369.176 5.54279 368.52C6.1992 367.864 7.08948 367.495 8.01779 367.495C8.94609 367.495 9.83638 367.864 10.4928 368.52C10.8178 368.845 11.0756 369.231 11.2515 369.656C11.4274 370.08 11.518 370.535 11.518 370.995C11.518 371.455 11.4274 371.91 11.2515 372.334C11.0756 372.759 10.8178 373.145 10.4928 373.47C10.1678 373.795 9.78191 374.053 9.35725 374.229C8.93259 374.405 8.47744 374.495 8.01779 374.495C7.55814 374.495 7.10299 374.405 6.67833 374.229ZM13.9628 374.2L12.4628 373.4C13.2728 371.9 13.2728 370.1 12.4628 368.6L13.9628 367.8C14.4915 368.784 14.7682 369.883 14.7682 371C14.7682 372.117 14.4915 373.216 13.9628 374.2ZM8.01279 364.255C9.12961 364.255 10.229 364.531 11.2128 365.06L10.4128 366.54C9.67524 366.143 8.85057 365.935 8.01279 365.935C7.17501 365.935 6.35034 366.143 5.61279 366.54L4.81279 365.06C5.79655 364.531 6.89597 364.255 8.01279 364.255ZM2.07056 367.804C1.54334 368.787 1.26742 369.885 1.26742 371C1.26742 372.117 1.54412 373.216 2.07279 374.2L3.56279 373.4C3.16542 372.662 2.9574 371.838 2.9574 371C2.9574 370.162 3.16542 369.338 3.56279 368.6L2.07056 367.804ZM8.01279 377.745C6.89597 377.745 5.79655 377.469 4.81279 376.94L5.61279 375.46C7.11279 376.26 8.91279 376.26 10.4128 375.46L11.2128 376.94C10.229 377.469 9.12961 377.745 8.01279 377.745ZM13.4163 477.479C11.9999 475.99 10.0653 475.103 8.01279 475C5.89106 475 3.85623 475.843 2.35593 477.343C0.855644 478.843 0.012789 480.878 0.012789 483C0.012789 485.122 0.855644 487.157 2.35593 488.657C3.85623 490.157 5.89106 491 8.01279 491C10.0653 490.897 11.9999 490.01 13.4163 488.521C14.8328 487.032 15.6227 485.055 15.6227 483C15.6227 480.945 14.8328 478.968 13.4163 477.479ZM10.1828 476.53C12.8828 477.44 14.8328 480 14.8328 483C14.8337 484.501 14.3379 485.96 13.4228 487.15C13.1728 486.95 12.9028 486.43 13.1528 485.88C13.4128 485.33 13.4728 484.06 13.4128 483.56C13.3628 483.06 13.1128 481.87 12.4128 481.86C11.7128 481.85 11.2228 481.62 10.8128 480.79C10.3449 479.854 10.8657 479.33 11.2993 478.893C11.6627 478.527 11.9649 478.223 11.5728 477.79C11.4959 477.707 11.3255 477.779 11.1211 477.865C10.6605 478.06 10.0275 478.327 9.90279 477.06C9.88279 476.93 10.0128 476.73 10.1828 476.53ZM3.7713 477.656C4.72597 476.898 5.86578 476.409 7.07279 476.24C6.97295 476.44 6.76796 476.565 6.56476 476.69C6.44233 476.765 6.32054 476.84 6.22279 476.93C5.97932 477.152 5.79423 477.265 5.63792 477.36C5.42827 477.487 5.27038 477.584 5.09279 477.87C4.96248 478.087 4.70012 478.344 4.445 478.594C4.11275 478.919 3.79279 479.232 3.79279 479.43C3.79279 479.79 4.29279 480.22 4.55279 480.13C4.98532 480.047 5.43172 480.071 5.85279 480.2C5.90355 480.217 5.99633 480.234 6.11732 480.256C6.92587 480.405 8.99434 480.786 8.20279 482.9C8.07477 483.229 7.77192 483.393 7.44035 483.574C6.99494 483.816 6.4977 484.086 6.30279 484.82C6.25279 485 6.07279 485.8 6.06279 486.07C6.05713 486.183 6.07791 486.387 6.10177 486.621C6.1622 487.214 6.2424 488 5.96279 488C5.56279 488 4.51279 486.63 4.51279 486.38C4.51279 486.288 4.47631 486.114 4.43016 485.893C4.35078 485.514 4.24279 484.998 4.24279 484.53C4.24279 484.18 3.96627 483.996 3.6713 483.799C3.33411 483.574 2.97279 483.333 2.97279 482.81C2.97279 482.34 3.1655 481.992 3.32362 481.707C3.46469 481.453 3.57823 481.248 3.50279 481.05C3.37917 480.696 2.53563 480.626 1.96287 480.58C1.84063 480.57 1.73073 480.561 1.64279 480.55C2.08178 479.413 2.81663 478.414 3.7713 477.656ZM8.915 489.76C7.89281 489.899 6.85249 489.803 5.87279 489.48H5.86279C6.03309 489.389 6.14128 489.287 6.2361 489.198C6.36954 489.072 6.47648 488.972 6.69279 488.96C6.96047 488.954 7.19973 488.886 7.46232 488.812C7.61174 488.77 7.76872 488.726 7.94279 488.69C8.10219 488.656 8.31057 488.573 8.54442 488.479C8.92672 488.327 9.37708 488.147 9.79279 488.11C10.3628 488.07 11.4728 488.14 11.7728 488.68C10.9144 489.252 9.93719 489.621 8.915 489.76Z" fill="#7D9CB8"/>
<path d="M8.66279 0.3C8.26279 -0.1 7.66279 -0.1 7.36279 0.3L0.212789 7.25C-0.187211 7.65 0.012789 7.95 0.512789 7.95L2.01279 8V13C2.01279 14 2.01279 14 3.01279 14H5.51279C5.6454 14 5.77257 13.9473 5.86634 13.8536C5.96011 13.7598 6.01279 13.6326 6.01279 13.5V10C6.01279 9.46957 6.2235 8.96086 6.59858 8.58579C6.97365 8.21071 7.48236 8 8.01279 8C8.54322 8 9.05193 8.21071 9.427 8.58579C9.80207 8.96086 10.0128 9.46957 10.0128 10V13.5C10.0114 13.566 10.0234 13.6317 10.0481 13.6929C10.0727 13.7542 10.1095 13.8099 10.1562 13.8566C10.2029 13.9033 10.2586 13.9401 10.3198 13.9647C10.3811 13.9894 10.4468 14.0014 10.5128 14H13.0128C14.0128 14 14.0128 14 14.0128 13V8L15.5928 7.94C15.9928 7.84 16.1928 7.54 15.7928 7.24L8.66279 0.3Z" fill="#7D9CB8"/>
</g>
</svg>
