<svg width="16" height="12" viewBox="0 0 16 12" fill="none" xmlns="http://www.w3.org/2000/svg">
<mask id="mask0" mask-type="alpha" maskUnits="userSpaceOnUse" x="0" y="0" width="16" height="12">
<rect width="16" height="12" fill="#7D9CB8"/>
</mask>
<g mask="url(#mask0)">
<path fill-rule="evenodd" clip-rule="evenodd" d="M8.01279 597.93C10.7528 597.93 13.0528 597.08 13.7828 595.92V595.93C13.9328 595.67 14.0128 595.81 14.0128 595.93V597.63C14.0128 599.29 11.3228 601 8.01279 601C4.70279 601 2.01279 599.3 2.01279 597.63V595.93C2.01279 595.81 2.09279 595.67 2.24279 595.93C2.97279 597.08 5.27279 597.93 8.01279 597.93ZM8.01279 593.34C10.7628 593.34 13.0828 592.59 13.7828 591.56C13.9328 591.35 14.0128 591.46 14.0128 591.56V593.57C14.0128 595.07 11.3228 596.29 8.01279 596.29C4.70279 596.29 2.01279 595.06 2.01279 593.56V591.56C2.01279 591.46 2.09279 591.35 2.23279 591.56C2.95279 592.59 5.26279 593.34 8.01279 593.34ZM2.01279 588.24C2.01279 587 4.70279 586 8.01279 586C11.3228 586 14.0128 587.01 14.0128 588.24V589.32C14.0128 590.63 11.3228 591.7 8.01279 591.7C4.70279 591.7 2.01279 590.63 2.01279 589.32V588.24ZM12.4128 626C12.1528 625.77 12.0528 625.53 11.9528 625L12.5128 621.5C12.5228 621.48 14.0128 618.5 11.3928 616.5C10.4219 615.761 9.90841 615.652 9.57733 615.581C9.46508 615.557 9.37381 615.538 9.29279 615.5C9.25275 615.48 9.18375 615.402 9.08916 615.295C8.90026 615.082 8.60926 614.753 8.24279 614.54C7.55279 614.14 6.66279 614 6.66279 614C6.89894 614.528 7.08314 615.077 7.21279 615.64C6.88279 615.76 6.41279 615.94 5.93279 616.18C4.68656 616.798 4.4225 617.426 4.11069 618.167L4.09279 618.21C3.35279 619.19 2.50279 619.66 2.49279 619.66C2.47242 619.671 2.44994 619.683 2.42616 619.696C2.26316 619.783 2.03897 619.902 2.01279 620.12C2.00279 620.25 2.02279 620.35 2.47279 621C2.67279 621.3 3.97279 622.04 4.04279 622C4.1588 621.938 4.43761 621.824 4.78605 621.682C5.60902 621.346 6.82044 620.851 7.19279 620.5C7.19279 622.019 6.04859 623.316 5.13925 624.347C4.55183 625.013 4.06241 625.568 4.04279 626H2.65279C2.43279 626 2.35279 626.02 2.27279 626.06C2.19008 626.105 2.12362 626.175 2.08279 626.26C2.03279 626.34 2.01279 626.42 2.01279 626.64V628.36C2.01279 628.58 2.03279 628.66 2.07279 628.74C2.11792 628.823 2.18788 628.889 2.27279 628.93C2.35279 628.98 2.43279 629 2.65279 629H13.3728C13.5928 629 13.6728 628.98 13.7528 628.94C13.8355 628.895 13.902 628.825 13.9428 628.74C13.9928 628.66 14.0128 628.58 14.0128 628.36V626.64C14.0128 626.42 13.9928 626.34 13.9528 626.26C13.9077 626.177 13.8377 626.111 13.7528 626.07C13.6728 626.02 13.5928 626 13.3728 626H12.4128ZM8.01279 573C12.2128 573 13.4728 570.55 13.8528 569.08V569.06L14.8728 569.16L13.1428 566L10.8928 568.81L11.8128 568.89C11.5328 569.65 10.8128 570.65 9.01279 570.92V564.82C9.68 564.584 10.2423 564.12 10.6004 563.51C10.9585 562.899 11.0893 562.182 10.9696 561.484C10.8499 560.787 10.4875 560.154 9.94645 559.698C9.40538 559.242 8.72048 558.992 8.01279 558.992C7.3051 558.992 6.6202 559.242 6.07913 559.698C5.53806 560.154 5.17566 560.787 5.05599 561.484C4.93632 562.182 5.06708 562.899 5.42516 563.51C5.78323 564.12 6.34558 564.584 7.01279 564.82V570.92C5.21279 570.65 4.49279 569.65 4.20279 568.89L5.13279 568.81L2.88279 566L1.15279 569.17L2.17279 569.08C2.55279 570.55 3.81279 573 8.01279 573ZM8.7199 562.707C8.53236 562.895 8.27801 563 8.01279 563C7.74757 563 7.49322 562.895 7.30568 562.707C7.11815 562.52 7.01279 562.265 7.01279 562C7.01279 561.735 7.11815 561.48 7.30568 561.293C7.49322 561.105 7.74757 561 8.01279 561C8.27801 561 8.53236 561.105 8.7199 561.293C8.90743 561.48 9.01279 561.735 9.01279 562C9.01279 562.265 8.90743 562.52 8.7199 562.707ZM0.49471 532.082C0.326506 532.282 0.24326 532.539 0.262789 532.8L1.05279 541.78C1.07816 542.042 1.20577 542.283 1.40795 542.452C1.61012 542.62 1.87056 542.702 2.13279 542.68L11.1128 541.9C11.3747 541.875 11.6161 541.747 11.7846 541.545C11.9531 541.343 12.0351 541.082 12.0128 540.82L11.2228 531.84C11.1974 531.578 11.0698 531.337 10.8676 531.168C10.6655 531 10.405 530.918 10.1428 530.94L1.16279 531.73C0.902715 531.755 0.662915 531.882 0.49471 532.082ZM3.7199 534.707C3.53236 534.895 3.27801 535 3.01279 535C2.74757 535 2.49322 534.895 2.30568 534.707C2.11815 534.52 2.01279 534.265 2.01279 534C2.01279 533.735 2.11815 533.48 2.30568 533.293C2.49322 533.105 2.74757 533 3.01279 533C3.27801 533 3.53236 533.105 3.7199 533.293C3.90743 533.48 4.01279 533.735 4.01279 534C4.01279 534.265 3.90743 534.52 3.7199 534.707ZM6.7199 537.707C6.53236 537.895 6.27801 538 6.01279 538C5.74757 538 5.49322 537.895 5.30568 537.707C5.11815 537.52 5.01279 537.265 5.01279 537C5.01279 536.735 5.11815 536.48 5.30568 536.293C5.49322 536.105 5.74757 536 6.01279 536C6.27801 536 6.53236 536.105 6.7199 536.293C6.90743 536.48 7.01279 536.735 7.01279 537C7.01279 537.265 6.90743 537.52 6.7199 537.707ZM9.7199 539.707C9.53236 539.895 9.27801 540 9.01279 540C8.74757 540 8.49322 539.895 8.30568 539.707C8.11815 539.52 8.01279 539.265 8.01279 539C8.01279 538.735 8.11815 538.48 8.30568 538.293C8.49322 538.105 8.74757 538 9.01279 538C9.27801 538 9.53236 538.105 9.7199 538.293C9.90743 538.48 10.0128 538.735 10.0128 539C10.0128 539.265 9.90743 539.52 9.7199 539.707ZM15.1428 536.02L12.9428 535.82L13.5028 542.32C13.5251 542.582 13.4431 542.843 13.2746 543.045C13.1061 543.247 12.8647 543.375 12.6028 543.4L4.38279 544.11L4.30279 545.11C4.28326 545.371 4.36651 545.628 4.53471 545.828C4.70292 546.028 4.94272 546.155 5.20279 546.18L14.1828 546.97C14.4449 546.989 14.7042 546.905 14.9045 546.734C15.1047 546.564 15.2298 546.322 15.2528 546.06L16.0428 537.09C16.0623 536.829 15.9791 536.572 15.8109 536.372C15.6427 536.172 15.4029 536.045 15.1428 536.02ZM0.502789 513.02C0.222789 513.02 0.012789 513.25 0.012789 513.52V516.53C0.0114585 516.595 0.0231499 516.66 0.0471783 516.721C0.0712067 516.781 0.107089 516.836 0.152723 516.883C0.198357 516.929 0.252824 516.967 0.312935 516.992C0.373046 517.017 0.437591 517.03 0.502789 517.03H3.52279C3.80279 517.03 4.01279 516.81 4.01279 516.54V513.52C4.01279 513.24 3.79279 513.02 3.52279 513.02H0.502789ZM5.50279 513.02C5.22279 513.02 5.01279 513.25 5.01279 513.52V516.53C5.01146 516.595 5.02315 516.66 5.04718 516.721C5.07121 516.781 5.10709 516.836 5.15272 516.883C5.19836 516.929 5.25282 516.967 5.31294 516.992C5.37305 517.017 5.43759 517.03 5.50279 517.03H8.52279C8.80279 517.03 9.01279 516.81 9.01279 516.54V513.52C9.01279 513.24 8.79279 513.02 8.52279 513.02H5.50279ZM10.5028 513.02C10.2228 513.02 10.0128 513.25 10.0128 513.52V516.53C10.0115 516.595 10.0231 516.66 10.0472 516.721C10.0712 516.781 10.1071 516.836 10.1527 516.883C10.1984 516.929 10.2528 516.967 10.3129 516.992C10.373 517.017 10.4376 517.03 10.5028 517.03H13.5228C13.8028 517.03 14.0128 516.81 14.0128 516.54V513.52C14.0128 513.24 13.7928 513.02 13.5228 513.02H10.5028ZM5.50279 508.02C5.22279 508.02 5.01279 508.25 5.01279 508.52V511.53C5.01146 511.595 5.02315 511.66 5.04718 511.721C5.07121 511.781 5.10709 511.836 5.15272 511.883C5.19836 511.929 5.25282 511.967 5.31294 511.992C5.37305 512.017 5.43759 512.03 5.50279 512.03H8.52279C8.80279 512.03 9.01279 511.81 9.01279 511.54V508.52C9.01279 508.24 8.79279 508.02 8.52279 508.02H5.50279ZM10.4207 504.025C10.4207 504.154 10.4718 504.278 10.5628 504.37L12.6928 506.51C12.7846 506.601 12.9086 506.652 13.0378 506.652C13.167 506.652 13.291 506.601 13.3828 506.51L15.5228 504.38C15.5694 504.334 15.6063 504.28 15.6316 504.22C15.6569 504.16 15.6699 504.095 15.6699 504.03C15.6699 503.965 15.6569 503.9 15.6316 503.84C15.6063 503.78 15.5694 503.726 15.5228 503.68L13.3928 501.55C13.3472 501.503 13.2927 501.466 13.2326 501.441C13.1725 501.416 13.108 501.403 13.0428 501.403C12.9776 501.403 12.9131 501.416 12.853 501.441C12.7929 501.466 12.7384 501.503 12.6928 501.55L10.5628 503.68C10.4718 503.772 10.4207 503.896 10.4207 504.025ZM0.502789 508.02C0.222789 508.02 0.012789 508.24 0.012789 508.51V511.53C0.0114585 511.595 0.0231499 511.66 0.0471783 511.721C0.0712067 511.781 0.107089 511.836 0.152723 511.883C0.198357 511.929 0.252824 511.967 0.312935 511.992C0.373046 512.017 0.437591 512.03 0.502789 512.03H3.52279C3.80279 512.03 4.01279 511.81 4.01279 511.54V508.52C4.01279 508.24 3.79279 508.02 3.52279 508.02H0.502789ZM0.502789 503.02C0.222789 503.02 0.012789 503.24 0.012789 503.51V506.53C0.0114585 506.595 0.0231499 506.66 0.0471783 506.721C0.0712067 506.781 0.107089 506.836 0.152723 506.883C0.198357 506.929 0.252824 506.967 0.312935 506.992C0.373046 507.017 0.437591 507.03 0.502789 507.03H3.52279C3.80279 507.03 4.01279 506.81 4.01279 506.54V503.52C4.01279 503.24 3.79279 503.02 3.52279 503.02H0.502789ZM4.99121 504.039C4.99961 504.103 5.02054 504.164 5.05279 504.22L5.06279 504.21L6.56279 506.83C6.62932 506.941 6.73715 507.021 6.86271 507.053C6.98826 507.085 7.12132 507.066 7.23279 507L9.85279 505.51C9.96393 505.443 10.0442 505.336 10.0761 505.21C10.1079 505.085 10.0888 504.951 10.0228 504.84L8.52279 502.22C8.45626 502.109 8.34843 502.029 8.22287 501.997C8.09732 501.965 7.96426 501.984 7.85279 502.05L5.23279 503.55C5.17692 503.582 5.12794 503.625 5.08865 503.676C5.04935 503.727 5.02052 503.785 5.0038 503.848C4.98708 503.91 4.9828 503.975 4.99121 504.039ZM11.7662 506.896C11.6429 506.929 11.5376 507.01 11.4728 507.12L9.95279 509.74C9.92094 509.796 9.90059 509.859 9.89291 509.923C9.88523 509.987 9.89038 510.052 9.90805 510.115C9.92571 510.177 9.95556 510.235 9.99585 510.286C10.0361 510.337 10.0861 510.379 10.1428 510.41L12.7528 511.92C12.8086 511.952 12.8702 511.973 12.9341 511.982C12.998 511.99 13.0629 511.986 13.1251 511.969C13.1874 511.952 13.2457 511.923 13.2968 511.884C13.3478 511.845 13.3907 511.796 13.4228 511.74L14.9328 509.12C14.965 509.064 14.986 509.003 14.9944 508.939C15.0028 508.875 14.9985 508.81 14.9818 508.748C14.9651 508.685 14.9362 508.627 14.8969 508.576C14.8576 508.525 14.8087 508.482 14.7528 508.45L12.1328 506.94C12.021 506.878 11.8895 506.862 11.7662 506.896ZM4.01279 367V363H3.51279C2.69279 363 2.01279 363.67 2.01279 364.5V375.5C2.01279 375.898 2.17082 376.279 2.45213 376.561C2.73343 376.842 3.11496 377 3.51279 377H13.5128C13.6454 377 13.7726 376.947 13.8663 376.854C13.9601 376.76 14.0128 376.633 14.0128 376.5V376H3.51279C3.23279 376 3.01279 375.77 3.01279 375.5C3.01279 375.367 3.06547 375.24 3.15924 375.146C3.253 375.053 3.38018 375 3.51279 375H14.0128V364.5C14.0128 364.102 13.8548 363.721 13.5734 363.439C13.2921 363.158 12.9106 363 12.5128 363H7.01279V367L5.51279 365L4.01279 367ZM9.05279 391H7.97279C7.64279 391 7.52279 391.03 7.39279 391.1C7.27375 391.163 7.17628 391.261 7.11279 391.38C7.04279 391.5 7.01279 391.63 7.01279 391.96V403.04C7.01279 403.37 7.04279 403.49 7.11279 403.62C7.17628 403.739 7.27375 403.837 7.39279 403.9C7.51279 403.96 7.64279 404 7.97279 404H9.05279C9.38279 404 9.50279 403.97 9.63279 403.9C9.75183 403.837 9.8493 403.739 9.91279 403.62C9.97279 403.49 10.0128 403.37 10.0128 403.04V391.96C10.0128 391.63 9.98279 391.51 9.91279 391.38C9.8493 391.261 9.75183 391.163 9.63279 391.1C9.50279 391.04 9.38279 391 9.05279 391ZM4.05279 397.98H2.97279C2.64279 397.98 2.52279 398.02 2.39279 398.08C2.27229 398.146 2.17467 398.247 2.11279 398.37C2.04279 398.49 2.01279 398.61 2.01279 398.95V403.02C2.01279 403.36 2.04279 403.48 2.11279 403.6C2.17628 403.719 2.27375 403.817 2.39279 403.88C2.51279 403.95 2.64279 403.98 2.97279 403.98H4.05279C4.38279 403.98 4.50279 403.95 4.63279 403.88C4.75183 403.817 4.8493 403.719 4.91279 403.6C4.98279 403.48 5.01279 403.36 5.01279 403.02V398.95C5.01279 398.61 4.98279 398.49 4.91279 398.37C4.85091 398.247 4.75329 398.146 4.63279 398.08C4.51279 398.02 4.38279 397.98 4.05279 397.98ZM14.6328 394.1C14.5028 394.04 14.3828 394 14.0528 394H12.9728C12.6428 394 12.5228 394.03 12.3928 394.1C12.2737 394.163 12.1763 394.261 12.1128 394.38C12.0428 394.51 12.0128 394.63 12.0128 394.96V403.04C12.0128 403.37 12.0428 403.49 12.1128 403.62C12.1763 403.739 12.2737 403.837 12.3928 403.9C12.5128 403.96 12.6428 404 12.9728 404H14.0528C14.3828 404 14.5028 403.97 14.6328 403.9C14.7518 403.837 14.8493 403.739 14.9128 403.62C14.9728 403.49 15.0128 403.37 15.0128 403.04V394.96C15.0128 394.63 14.9828 394.51 14.9128 394.38C14.8493 394.261 14.7518 394.163 14.6328 394.1ZM7.11162 488.375C9.73808 487.305 10.2107 487.112 9.85279 484.04L9.86279 484.05C9.86279 484.05 15.6028 479.99 14.9628 475.35C14.9515 475.274 14.9165 475.204 14.8628 475.15C14.8328 475.1 14.7628 475.06 14.6628 475.05C10.0228 474.41 5.97279 480.16 5.97279 480.16C2.89173 479.801 2.69906 480.277 1.62594 482.93C1.47306 483.308 1.30231 483.73 1.10279 484.2C0.802789 484.91 1.29279 485.16 1.84279 484.96L3.59279 484.32L5.70279 486.42L5.05279 488.17C4.85279 488.71 5.10279 489.21 5.82279 488.91C6.30082 488.705 6.72907 488.531 7.11162 488.375ZM11.0792 479.639C10.9248 479.568 10.7865 479.466 10.6728 479.34C10.4592 479.102 10.3447 478.792 10.3527 478.473C10.3607 478.154 10.4907 477.849 10.7159 477.623C10.9411 477.396 11.2446 477.265 11.5638 477.255C11.8831 477.245 12.194 477.358 12.4328 477.57C12.5599 477.683 12.6626 477.821 12.7346 477.975C12.8066 478.129 12.8465 478.296 12.8517 478.466C12.8569 478.636 12.8274 478.805 12.765 478.963C12.7026 479.121 12.6086 479.265 12.4887 479.386C12.3688 479.506 12.2256 479.601 12.0678 479.664C11.91 479.728 11.7409 479.758 11.5709 479.754C11.4009 479.75 11.2336 479.711 11.0792 479.639ZM7.01279 427V426H2.01279V431.01C2.01542 431.273 2.12194 431.525 2.30919 431.711C2.49645 431.896 2.7493 432 3.01279 432H14.0128C14.2763 432 14.5291 431.896 14.7164 431.711C14.9036 431.525 15.0102 431.273 15.0128 431.01V426H10.0128V427H7.01279ZM1.08602 421.624C1.03636 421.747 1.01147 421.878 1.01279 422.01V425H16.0128V422.01C16.0141 421.878 15.9892 421.747 15.9396 421.624C15.8899 421.502 15.8164 421.39 15.7235 421.296C15.6305 421.202 15.5198 421.128 15.3978 421.077C15.2758 421.026 15.145 421 15.0128 421H12.5128L11.5128 419H5.51279L4.51279 421H2.01279C1.88062 421 1.74976 421.026 1.62778 421.077C1.5058 421.128 1.39511 421.202 1.30212 421.296C1.20913 421.39 1.13568 421.502 1.08602 421.624ZM11.0128 421H6.01279L6.51279 420H10.5128L11.0128 421ZM10.1828 283.12L8.62279 278.72C8.57685 278.595 8.49374 278.487 8.38466 278.411C8.27558 278.335 8.14578 278.294 8.01279 278.294C7.87979 278.294 7.75 278.335 7.64092 278.411C7.53184 278.487 7.44872 278.595 7.40279 278.72L5.84279 283.11H1.95279C1.81637 283.11 1.6834 283.153 1.57273 283.233C1.46205 283.312 1.37929 283.425 1.33614 283.554C1.293 283.684 1.29168 283.824 1.33236 283.954C1.37303 284.084 1.45365 284.198 1.56279 284.28L4.76279 286.7L3.56279 291.15C3.52398 291.283 3.52847 291.424 3.5756 291.554C3.62272 291.684 3.71004 291.796 3.82487 291.873C3.9397 291.949 4.07607 291.988 4.21416 291.982C4.35225 291.976 4.48488 291.926 4.59279 291.84L8.01279 289.22L11.4328 291.84C11.541 291.922 11.6723 291.969 11.8082 291.972C11.9441 291.976 12.0777 291.937 12.1903 291.861C12.3029 291.785 12.3888 291.675 12.4359 291.548C12.4829 291.42 12.4889 291.281 12.4528 291.15L11.2528 286.7L14.4728 284.28C14.5785 284.196 14.6557 284.082 14.6936 283.953C14.7315 283.823 14.7282 283.686 14.6843 283.558C14.6404 283.431 14.5579 283.32 14.4484 283.242C14.3388 283.163 14.2076 283.121 14.0728 283.12H10.1828ZM5.01279 230.5C5.01279 229.7 4.31279 229 3.51279 229C2.71279 229 2.01279 229.7 2.01279 230.5C2.01279 231.3 2.71279 232 3.51279 232C4.31279 232 5.01279 231.3 5.01279 230.5ZM10.0128 230.5C10.0128 229.7 9.31279 229 8.51279 229C7.71279 229 7.01279 229.7 7.01279 230.5C7.01279 231.3 7.71279 232 8.51279 232C9.31279 232 10.0128 231.3 10.0128 230.5ZM15.0128 230.5C15.0128 229.7 14.3128 229 13.5128 229C12.7128 229 12.0128 229.7 12.0128 230.5C12.0128 231.3 12.7128 232 13.5128 232C14.3128 232 15.0128 231.3 15.0128 230.5ZM11.0128 316L13.9728 317.48V317.49C13.9715 317.556 13.9831 317.621 14.007 317.682C14.0309 317.743 14.0666 317.799 14.1121 317.846C14.1576 317.894 14.212 317.932 14.2722 317.958C14.3324 317.984 14.3971 317.999 14.4628 318H14.5128C14.5793 318 14.6451 317.987 14.7065 317.961C14.7678 317.935 14.8234 317.898 14.8699 317.85C14.9165 317.803 14.9531 317.746 14.9776 317.684C15.0022 317.623 15.0141 317.556 15.0128 317.49V308.51C15.0128 308.23 14.7928 308 14.5128 308H14.4728C14.4063 308 14.3404 308.013 14.2791 308.039C14.2178 308.065 14.1622 308.102 14.1157 308.15C14.0691 308.197 14.0325 308.254 14.0079 308.316C13.9834 308.377 13.9715 308.444 13.9728 308.51V308.52L11.0128 310V316ZM7.77279 319.78L7.17279 316H10.0128V310H4.01279C3.21714 310 2.45408 310.316 1.89147 310.879C1.32886 311.441 1.01279 312.204 1.01279 313C1.01279 313.796 1.32886 314.559 1.89147 315.121C2.45408 315.684 3.21714 316 4.01279 316H5.17279L5.85279 320.05C5.89703 320.305 6.03846 320.533 6.24734 320.686C6.45622 320.839 6.71627 320.905 6.97279 320.87C7.09723 320.852 7.21681 320.809 7.32457 320.744C7.43234 320.679 7.52616 320.594 7.60058 320.492C7.675 320.391 7.72855 320.276 7.75811 320.153C7.78767 320.031 7.79266 319.904 7.77279 319.78ZM9.01279 251V255.5C9.01279 255.633 9.06547 255.76 9.15924 255.854C9.253 255.947 9.38018 256 9.51279 256H14.0128L9.01279 251ZM8.01279 251H3.29279C2.85279 251 2.69279 251.05 2.52279 251.13C2.36038 251.215 2.2278 251.348 2.14279 251.51C2.06279 251.68 2.01279 251.84 2.01279 252.28V263.72C2.01279 264.16 2.06279 264.32 2.14279 264.49C2.2278 264.652 2.36038 264.785 2.52279 264.87C2.69279 264.95 2.85279 265 3.29279 265H12.7328C13.1728 265 13.3328 264.95 13.5028 264.87C13.6652 264.785 13.7978 264.652 13.8828 264.49C13.9628 264.32 14.0128 264.16 14.0128 263.72V257H9.29279C8.85279 257 8.69279 256.95 8.52279 256.87C8.36279 256.78 8.24279 256.65 8.14279 256.49C8.06279 256.32 8.01279 256.16 8.01279 255.72V251ZM16.0028 114.71C16.1128 113.84 15.3628 113.08 14.5128 113.08H13.1228C12.9128 113.08 12.5828 112.86 12.4828 112.64L11.9528 111.44C11.8428 111.22 11.6328 111 11.3128 111H4.81279C4.59279 111 4.27279 111.22 4.17279 111.44L3.64279 112.64C3.53279 112.86 3.32279 113.08 3.00279 113.08H1.61279C0.762789 113.08 0.012789 114.06 0.012789 114.93V122.36C0.012789 123.24 0.762789 124 1.61279 124H14.4028C15.2528 124 16.0028 123.23 16.0028 122.36V114.71ZM12.0128 118C12.0128 120.17 10.1828 122 8.01279 122C5.84279 122 4.01279 120.17 4.01279 118C4.01279 115.83 5.84279 114 8.01279 114C10.1828 114 12.0128 115.83 12.0128 118ZM10.5128 118C10.5128 116.59 9.42279 115.5 8.01279 115.5C6.60279 115.5 5.51279 116.59 5.51279 118C5.51279 119.41 6.60279 120.5 8.01279 120.5C9.42279 120.5 10.5128 119.41 10.5128 118ZM12.0128 142V147.82C11.586 147.821 11.164 147.909 10.7728 148.08C9.50279 148.62 8.80279 149.84 9.21279 150.8C9.62279 151.77 10.9828 152.12 12.2528 151.57C13.2528 151.15 13.9028 150.3 13.9328 149.49L14.0128 149.5V138L4.02279 140.96V150C4.02199 150.02 4.02199 150.04 4.02279 150.06C3.62697 150.053 3.23339 150.121 2.86279 150.26C1.56279 150.73 0.802789 151.9 1.16279 152.9C1.52279 153.88 2.86279 154.3 4.16279 153.83C5.33279 153.4 6.06279 152.4 5.93279 151.48L6.01279 151.5V144L12.0128 142ZM5.01279 181H11.0128V179H13.0128V181H14.0128C14.278 181 14.5324 180.895 14.7199 180.707C14.9074 180.52 15.0128 180.265 15.0128 180V168C15.0128 167.735 14.9074 167.48 14.7199 167.293C14.5324 167.105 14.278 167 14.0128 167H13.0128V169H11.0128V167H5.01279V169H3.01279V167H2.01279C1.74757 167 1.49322 167.105 1.30568 167.293C1.11815 167.48 1.01279 167.735 1.01279 168V180C1.01279 180.265 1.11815 180.52 1.30568 180.707C1.49322 180.895 1.74757 181 2.01279 181H3.01279V179H5.01279V181ZM5.01279 171V173H3.01279V171H5.01279ZM13.0128 171V173H11.0128V171H13.0128ZM5.01279 175V177H3.01279V175H5.01279ZM13.0128 175V177H11.0128V175H13.0128ZM14.1828 208C16.7828 207.79 15.8828 203.65 15.7828 203.25C15.2828 200.93 13.9928 197 11.1128 197C10.557 197.084 10.0173 197.252 9.51279 197.5C8.21279 198 7.62279 198 6.43279 197.5C5.73279 197.1 4.83279 197 4.83279 197C2.04279 197 0.642789 201.03 0.242789 203.25C0.142789 203.66 -0.747211 207.9 1.74279 208C2.50583 208.077 3.39363 207.073 4.17266 206.192C4.40437 205.93 4.62646 205.679 4.83279 205.47C5.72279 204.47 6.52279 203.97 7.91279 203.97C9.30279 203.97 10.2028 204.47 11.0028 205.47C11.2011 205.671 11.4135 205.91 11.6359 206.161C12.4224 207.05 13.333 208.078 14.1828 208ZM10.5128 202C10.2328 202 10.0128 201.77 10.0128 201.5C10.0128 201.367 10.0655 201.24 10.1592 201.146C10.253 201.053 10.3802 201 10.5128 201C10.6454 201 10.7726 201.053 10.8663 201.146C10.9601 201.24 11.0128 201.367 11.0128 201.5C11.0128 201.633 10.9601 201.76 10.8663 201.854C10.7726 201.947 10.6454 202 10.5128 202ZM12.5128 202C12.2328 202 12.0128 201.77 12.0128 201.5C12.0128 201.367 12.0655 201.24 12.1592 201.146C12.253 201.053 12.3802 201 12.5128 201C12.6454 201 12.7726 201.053 12.8663 201.146C12.9601 201.24 13.0128 201.367 13.0128 201.5C13.0128 201.633 12.9601 201.76 12.8663 201.854C12.7726 201.947 12.6454 202 12.5128 202ZM5.01279 200.5V201H5.51279C5.6454 201 5.77257 201.053 5.86634 201.146C5.96011 201.24 6.01279 201.367 6.01279 201.5C6.01279 201.633 5.96011 201.76 5.86634 201.854C5.77257 201.947 5.6454 202 5.51279 202H5.01279V202.5C5.01279 202.633 4.96011 202.76 4.86634 202.854C4.77257 202.947 4.6454 203 4.51279 203C4.38018 203 4.253 202.947 4.15924 202.854C4.06547 202.76 4.01279 202.633 4.01279 202.5V202H3.51279C3.38018 202 3.253 201.947 3.15924 201.854C3.06547 201.76 3.01279 201.633 3.01279 201.5C3.01279 201.367 3.06547 201.24 3.15924 201.146C3.253 201.053 3.38018 201 3.51279 201H4.01279V200.5C4.01279 200.367 4.06547 200.24 4.15924 200.146C4.253 200.053 4.38018 200 4.51279 200C4.6454 200 4.77257 200.053 4.86634 200.146C4.96011 200.24 5.01279 200.367 5.01279 200.5ZM14.0128 67.1C14.0128 65.7 13.4128 63 8.01279 63C2.61279 63 2.01279 65.6 2.01279 67.1C2.01279 67.8 2.37279 68 3.81279 68H12.3328C13.7728 68 14.0128 67.8 14.0128 67.1ZM5.01279 58.5C5.01279 60.83 6.35279 62 8.01279 62C9.67279 62 11.0128 60.83 11.0128 58.5C11.0128 56.17 9.67279 55 8.01279 55C6.35279 55 5.01279 56.17 5.01279 58.5ZM5.01279 90C0.0127892 90 0.012789 92.6 0.012789 94.1C0.012789 94.8 0.312789 95 1.51279 95H8.61279C9.81279 95 10.0128 94.8 10.0128 94.1C10.0128 92.7 10.0128 90 5.01279 90ZM11.6128 94.72L11.6028 95H14.6128C15.8128 95 16.0128 94.8 16.0128 94.1C16.0128 92.7 15.5128 90 11.0128 90L10.1428 90.02C11.5728 91.38 11.6128 93.35 11.6128 94.72ZM3.01279 86.5C3.01279 88.17 3.91279 89 5.01279 89C6.11279 89 7.01279 88.17 7.01279 86.5C7.01279 84.83 6.11279 84 5.01279 84C3.91279 84 3.01279 84.83 3.01279 86.5ZM9.01279 86.5C9.01279 88.17 9.91279 89 11.0128 89C12.1128 89 13.0128 88.17 13.0128 86.5C13.0128 84.83 12.1128 84 11.0128 84C9.91279 84 9.01279 84.83 9.01279 86.5ZM16.0128 6C16.0128 3.9 14.4428 2.09 12.2428 1.36C13.0428 2.38 13.5128 3.63 13.5128 5C13.5128 7.71 11.6728 9.94 9.07279 10.94C9.75686 11.0321 10.4506 11.0254 11.1328 10.92C11.6028 11.6 12.4428 12.02 14.0228 12.02C13.5828 11.37 13.2828 10.72 13.2028 10.24C14.8928 9.35 16.0128 7.79 16.0128 6ZM1.99279 11C3.58279 11 4.41279 10.6 4.89279 9.9V9.91C5.25279 9.97 5.63279 10 6.01279 10C9.32279 10 12.0128 7.76 12.0128 5C12.0128 2.24 9.32279 0 6.01279 0C2.70279 0 0.012789 2.24 0.012789 5C0.012789 6.78 1.13279 8.35 2.82279 9.24C2.74279 9.71 2.44279 10.36 1.99279 11ZM6.59858 40.4142C6.97365 40.7893 7.48236 41 8.01279 41C8.54322 41 9.05193 40.7893 9.427 40.4142C9.80207 40.0391 10.0128 39.5304 10.0128 39H6.01279C6.01279 39.5304 6.2235 40.0391 6.59858 40.4142ZM14.5628 36.6C14.0228 35.8 12.8628 35 12.8628 35V32C12.8628 29.4 11.4028 27.5 9.19279 27C9.19279 27 9.20279 26 8.01279 26C6.82279 26 6.82279 27 6.82279 27C4.35279 27.5 3.16279 29.4 3.16279 32V35C3.16279 35 2.00279 35.8 1.46279 36.6C0.502789 37.9 1.14279 38 2.64279 38H13.3828C14.8728 38 15.5228 37.9 14.5628 36.6ZM1.01279 908H13.5128C14.3328 908 15.0128 907.33 15.0128 906.5V895C15.0128 894.735 14.9074 894.48 14.7199 894.293C14.5324 894.105 14.278 894 14.0128 894H4.01279C3.74838 894.003 3.49554 894.109 3.30856 894.296C3.12159 894.483 3.01539 894.736 3.01279 895V905H2.51279C2.23279 905 2.01279 904.77 2.01279 904.5V898H0.012789V907C0.012789 907.265 0.118146 907.52 0.305682 907.707C0.493219 907.895 0.747573 908 1.01279 908ZM6.01279 900.51V897.49C6.01541 897.359 6.06924 897.234 6.16272 897.143C6.25621 897.051 6.3819 897 6.51279 897H11.5128C11.578 896.999 11.6428 897.01 11.7034 897.034C11.764 897.058 11.8192 897.094 11.8658 897.14C11.9123 897.186 11.9493 897.24 11.9746 897.3C11.9998 897.36 12.0128 897.425 12.0128 897.49V900.51C12.0102 900.641 11.9563 900.766 11.8629 900.857C11.7694 900.949 11.6437 901 11.5128 901H6.51279C6.23279 901 6.01279 900.79 6.01279 900.51ZM6.51279 903C6.23279 903 6.01279 902.77 6.01279 902.5C6.01279 902.367 6.06547 902.24 6.15924 902.146C6.253 902.053 6.38018 902 6.51279 902H11.5128C11.6454 902 11.7726 902.053 11.8663 902.146C11.9601 902.24 12.0128 902.367 12.0128 902.5C12.0128 902.633 11.9601 902.76 11.8663 902.854C11.7726 902.947 11.6454 903 11.5128 903H6.51279ZM6.50279 905C6.23279 905 6.01279 904.77 6.01279 904.5C6.01276 904.369 6.06407 904.243 6.15568 904.15C6.2473 904.056 6.37192 904.003 6.50279 904H9.52279C9.65366 904.003 9.77828 904.056 9.86989 904.15C9.96151 904.243 10.0128 904.369 10.0128 904.5C10.0128 904.631 9.96151 904.757 9.86989 904.85C9.77828 904.944 9.65366 904.997 9.52279 905H6.50279ZM5.18436 921.172C4.43422 921.922 4.01279 922.939 4.01279 924H3.29279C2.85279 924 2.69279 924.05 2.52279 924.13C2.36038 924.215 2.2278 924.348 2.14279 924.51C2.06279 924.68 2.01279 924.84 2.01279 925.28V933.72C2.01279 934.16 2.06279 934.33 2.14279 934.49C2.2278 934.652 2.36038 934.785 2.52279 934.87C2.69279 934.95 2.85279 935 3.29279 935H12.7328C13.1728 935 13.3328 934.95 13.5028 934.87C13.6652 934.785 13.7978 934.652 13.8828 934.49C13.9628 934.32 14.0128 934.16 14.0128 933.72V925.28C14.0128 924.84 13.9628 924.68 13.8828 924.51C13.7928 924.35 13.6628 924.23 13.5028 924.13C13.3328 924.05 13.1728 924 12.7328 924H12.0128C12.0128 922.939 11.5914 921.922 10.8412 921.172C10.0911 920.421 9.07365 920 8.01279 920C6.95192 920 5.93451 920.421 5.18436 921.172ZM9.95733 922.055C10.4731 922.571 10.7628 923.271 10.7628 924H5.26279C5.26279 923.271 5.55252 922.571 6.06825 922.055C6.58397 921.54 7.28344 921.25 8.01279 921.25C8.74213 921.25 9.44161 921.54 9.95733 922.055ZM9.91279 943.55L9.10279 944.64C8.3893 944.444 7.63627 944.444 6.92279 944.64L6.11279 943.55C6.05369 943.471 5.97966 943.405 5.89491 943.355C5.81016 943.304 5.71636 943.271 5.61886 943.258C5.52135 943.244 5.42206 943.249 5.32665 943.273C5.23124 943.298 5.14158 943.341 5.06279 943.4C4.984 943.459 4.91761 943.533 4.86743 943.618C4.81725 943.703 4.78426 943.796 4.77033 943.894C4.7564 943.991 4.76181 944.091 4.78625 944.186C4.8107 944.282 4.85369 944.371 4.91279 944.45L5.61279 945.4C4.97913 946.128 4.59383 947.038 4.51279 948H11.5128C11.3428 946.84 10.9828 945.98 10.4128 945.39L11.1128 944.45C11.1719 944.371 11.2149 944.282 11.2393 944.186C11.2638 944.091 11.2692 943.991 11.2553 943.894C11.2413 943.796 11.2083 943.703 11.1581 943.618C11.108 943.533 11.0416 943.459 10.9628 943.4C10.884 943.341 10.7943 943.298 10.6989 943.273C10.6035 943.249 10.5042 943.244 10.4067 943.258C10.3092 943.271 10.2154 943.304 10.1307 943.355C10.0459 943.405 9.97188 943.471 9.91279 943.55ZM3.51279 949C3.43279 949.31 3.37279 949.64 3.32279 949.97L2.78279 949.62C2.75546 949.6 2.73251 949.575 2.71532 949.545C2.69812 949.516 2.68706 949.484 2.68279 949.45L2.25279 946.88C2.23968 946.78 2.20674 946.685 2.1559 946.598C2.10506 946.512 2.03737 946.436 1.95683 946.376C1.8763 946.316 1.78455 946.273 1.68704 946.249C1.58953 946.226 1.48824 946.222 1.38916 946.238C1.29008 946.254 1.19523 946.289 1.11024 946.343C1.02524 946.396 0.951834 946.466 0.894356 946.548C0.836878 946.631 0.796502 946.724 0.77562 946.822C0.754738 946.92 0.753775 947.021 0.772789 947.12L1.20279 949.7C1.24255 949.934 1.32955 950.158 1.45849 950.357C1.58743 950.557 1.75561 950.728 1.95279 950.86L3.21279 951.7C3.21654 952.573 3.30699 953.444 3.48279 954.3L1.80279 955.7C1.49434 955.955 1.28257 956.308 1.20279 956.7L0.772789 958.85C0.753091 958.947 0.752726 959.047 0.771716 959.145C0.790705 959.242 0.828677 959.335 0.883464 959.417C0.938251 959.5 1.00878 959.571 1.09102 959.626C1.17326 959.682 1.26561 959.72 1.36279 959.74C1.45997 959.76 1.56007 959.76 1.65739 959.741C1.75471 959.722 1.84734 959.684 1.92998 959.629C2.01263 959.575 2.08367 959.504 2.13906 959.422C2.19444 959.34 2.23309 959.247 2.25279 959.15L2.68279 956.99C2.69326 956.936 2.72139 956.887 2.76279 956.85L3.93279 955.88C4.69279 957.94 6.05279 959.5 8.01279 959.5C9.97279 959.5 11.3328 957.94 12.0928 955.88L13.2628 956.85C13.3042 956.887 13.3323 956.936 13.3428 956.99L13.7828 959.15C13.8025 959.247 13.841 959.338 13.8961 959.42C13.9513 959.501 14.022 959.571 14.1041 959.626C14.1863 959.68 14.2784 959.718 14.3751 959.736C14.4718 959.755 14.5713 959.755 14.6678 959.735C14.7643 959.715 14.856 959.677 14.9376 959.622C15.0193 959.567 15.0893 959.496 15.1436 959.414C15.1979 959.331 15.2355 959.239 15.2542 959.143C15.273 959.046 15.2725 958.946 15.2528 958.85L14.8228 956.7C14.7428 956.3 14.5228 955.95 14.2228 955.7L12.5428 954.3C12.7186 953.444 12.809 952.573 12.8128 951.7L14.0728 950.86C14.4728 950.6 14.7428 950.17 14.8228 949.7L15.2528 947.12C15.2718 947.021 15.2708 946.92 15.25 946.822C15.2291 946.724 15.1887 946.631 15.1312 946.548C15.0737 946.466 15.0003 946.396 14.9153 946.343C14.8303 946.289 14.7355 946.254 14.6364 946.238C14.5373 946.222 14.436 946.226 14.3385 946.249C14.241 946.273 14.1493 946.316 14.0687 946.376C13.9882 946.436 13.9205 946.512 13.8697 946.598C13.8188 946.685 13.7859 946.78 13.7728 946.88L13.3428 949.45C13.3373 949.484 13.3247 949.517 13.3058 949.547C13.2868 949.576 13.262 949.601 13.2328 949.62L12.7028 949.97C12.6528 949.64 12.5928 949.31 12.5128 949H3.51279ZM0.617642 983.063C1.0199 984.034 1.60951 984.917 2.35279 985.66C3.85391 987.161 5.88988 988.004 8.01279 988.004C10.1357 988.004 12.1717 987.161 13.6728 985.66C15.1739 984.159 16.0172 982.123 16.0172 980C16.0172 977.877 15.1739 975.841 13.6728 974.34C12.9295 973.597 12.0471 973.007 11.076 972.605C10.1048 972.203 9.06395 971.996 8.01279 971.996C6.96163 971.996 5.92076 972.203 4.94962 972.605C3.97847 973.007 3.09607 973.597 2.35279 974.34C1.60951 975.083 1.0199 975.966 0.617642 976.937C0.215381 977.908 0.00833988 978.949 0.00833991 980C0.00833995 981.051 0.215381 982.092 0.617642 983.063ZM8.50307 982.45C8.98862 982.352 9.43404 982.112 9.78279 981.76C9.91759 981.627 10.0926 981.542 10.2807 981.518C10.4688 981.495 10.6593 981.534 10.8228 981.63C10.9062 981.68 10.9779 981.747 11.0331 981.827C11.0883 981.907 11.1257 981.998 11.1428 982.094C11.1598 982.19 11.1562 982.288 11.132 982.382C11.1079 982.476 11.0638 982.564 11.0028 982.64L10.8428 982.83C10.2832 983.389 9.57046 983.769 8.79466 983.923C8.01886 984.077 7.21482 983.998 6.48417 983.695C5.75353 983.392 5.12908 982.88 4.68975 982.222C4.25042 981.564 4.01594 980.791 4.01594 980C4.01594 979.209 4.25042 978.436 4.68975 977.778C5.12908 977.12 5.75353 976.608 6.48417 976.305C7.21482 976.002 8.01886 975.923 8.79466 976.077C9.57046 976.231 10.2832 976.611 10.8428 977.17C10.9023 977.231 10.959 977.294 11.0128 977.36C11.0756 977.436 11.1211 977.525 11.1463 977.62C11.1714 977.715 11.1756 977.815 11.1585 977.912C11.1413 978.009 11.1034 978.101 11.0471 978.182C10.9909 978.262 10.9178 978.33 10.8328 978.38C10.6673 978.477 10.474 978.516 10.2837 978.491C10.0934 978.465 9.91708 978.377 9.78279 978.24C9.43404 977.888 8.98862 977.648 8.50307 977.55C8.01753 977.451 7.51374 977.5 7.05565 977.688C6.59755 977.877 6.20581 978.197 5.93014 978.609C5.65447 979.02 5.50729 979.505 5.50729 980C5.50729 980.495 5.65447 980.98 5.93014 981.391C6.20581 981.803 6.59755 982.123 7.05565 982.312C7.51374 982.5 8.01753 982.549 8.50307 982.45ZM2.35593 1013.66C3.85623 1015.16 5.89106 1016 8.01279 1016C10.1345 1016 12.1694 1015.16 13.6696 1013.66C15.1699 1012.16 16.0128 1010.12 16.0128 1008C16.0128 1005.88 15.1699 1003.84 13.6696 1002.34C12.1694 1000.84 10.1345 1000 8.01279 1000C5.89106 1000 3.85623 1000.84 2.35593 1002.34C0.855644 1003.84 0.012789 1005.88 0.012789 1008C0.012789 1010.12 0.855644 1012.16 2.35593 1013.66ZM2.29279 1032.02H2.22279L2.23279 1032.01C2.2052 1032.01 2.17814 1032.02 2.15315 1032.03C2.12816 1032.04 2.10573 1032.06 2.08715 1032.08C2.06857 1032.1 2.05421 1032.12 2.04488 1032.15C2.03555 1032.17 2.03144 1032.2 2.03279 1032.23V1039.08C2.01411 1039.18 2.01411 1039.28 2.03279 1039.38C2.08534 1039.45 2.15921 1039.5 2.24279 1039.52C2.31702 1039.59 2.40568 1039.65 2.50279 1039.68L7.50279 1041.68C7.63855 1041.73 7.77921 1041.77 7.92279 1041.8C8.01183 1041.82 8.10375 1041.82 8.19279 1041.8C8.34279 1041.77 8.48279 1041.73 8.61279 1041.67L13.6128 1039.67C13.709 1039.64 13.7976 1039.59 13.8728 1039.52C13.9318 1039.48 13.9744 1039.42 13.9928 1039.35C14.0128 1039.25 14.0128 1039.14 13.9928 1039.04V1032.21C13.9991 1032.2 14.0024 1032.18 14.0024 1032.17C14.0024 1032.16 14.0014 1032.15 13.9993 1032.14C13.9978 1032.13 13.9956 1032.13 13.9928 1032.12C13.9692 1032.07 13.9297 1032.04 13.8818 1032.02C13.8339 1032 13.7809 1032 13.7328 1032.02L8.57279 1034.12C8.44279 1034.17 8.30279 1034.22 8.16279 1034.25C8.06279 1034.27 7.97279 1034.27 7.88279 1034.25C7.73279 1034.22 7.59279 1034.17 7.46279 1034.12L2.29279 1032.02ZM8.57279 1028.15C8.44279 1028.09 8.30279 1028.04 8.15279 1028.02H8.16279C8.07053 1028 7.97505 1028 7.88279 1028.02C7.73279 1028.05 7.59279 1028.09 7.46279 1028.15L2.19279 1030.25C2.1459 1030.28 2.11032 1030.32 2.09279 1030.37C2.07602 1030.42 2.07805 1030.47 2.09847 1030.52C2.11889 1030.56 2.15618 1030.6 2.20279 1030.62L7.46279 1032.72C7.59439 1032.78 7.73197 1032.82 7.87279 1032.84C7.96505 1032.86 8.06053 1032.86 8.15279 1032.84C8.30279 1032.82 8.44279 1032.77 8.57279 1032.72L13.8428 1030.62C13.8897 1030.59 13.9253 1030.55 13.9428 1030.5C13.9626 1030.45 13.9621 1030.4 13.9415 1030.35C13.9209 1030.3 13.8818 1030.26 13.8328 1030.24L8.57279 1028.15ZM8.86634 1010.85C8.77257 1010.95 8.6454 1011 8.51279 1011H7.01279V1011.49C7.01412 1011.56 7.00217 1011.62 6.97764 1011.68C6.95311 1011.75 6.91649 1011.8 6.86993 1011.85C6.82336 1011.9 6.76779 1011.94 6.70647 1011.96C6.64515 1011.99 6.5793 1012 6.51279 1012C6.38018 1012 6.253 1011.95 6.15924 1011.85C6.06547 1011.76 6.01279 1011.63 6.01279 1011.5V1011.01L5.51279 1011C5.23279 1011 5.01279 1010.78 5.01279 1010.5C5.01541 1010.37 5.06924 1010.24 5.16272 1010.15C5.25621 1010.06 5.3819 1010.01 5.51279 1010.01H6.01279V1009L5.51279 1008.99C5.23279 1008.99 5.01279 1008.76 5.01279 1008.49C5.01541 1008.36 5.06924 1008.23 5.16272 1008.14C5.25621 1008.05 5.3819 1008 5.51279 1008H6.01279V1004.51C6.01279 1004.38 6.06547 1004.25 6.15924 1004.16C6.253 1004.06 6.38018 1004.01 6.51279 1004.01H8.51279C10.2428 1004.01 11.5128 1005 11.5128 1006.5C11.5128 1008 10.2628 1009 8.51279 1009H7.01279V1010H8.51279C8.6454 1010 8.77257 1010.05 8.86634 1010.15C8.96011 1010.24 9.01279 1010.37 9.01279 1010.5C9.01279 1010.63 8.96011 1010.76 8.86634 1010.85ZM8.51279 1005H7.01279V1008H8.51279C10.0128 1008 10.5128 1007.25 10.5128 1006.5C10.5128 1005.75 10.0128 1005 8.51279 1005ZM16.0172 342C16.0172 339.877 15.1739 337.841 13.6728 336.34C12.9295 335.597 12.0471 335.007 11.076 334.605C10.1048 334.203 9.06395 333.996 8.01279 333.996C6.96163 333.996 5.92076 334.203 4.94962 334.605C3.97847 335.007 3.09607 335.597 2.35279 336.34C1.60951 337.083 1.0199 337.966 0.617643 338.937C0.215381 339.908 0.00834027 340.949 0.00834027 342C0.00834027 343.051 0.215381 344.092 0.617643 345.063C1.0199 346.034 1.60951 346.917 2.35279 347.66C3.85391 349.161 5.88988 350.004 8.01279 350.004C10.1357 350.004 12.1717 349.161 13.6728 347.66C15.1739 346.159 16.0172 344.123 16.0172 342ZM6.67833 345.229C6.25367 345.053 5.86781 344.795 5.54279 344.47C4.88638 343.814 4.51761 342.923 4.51761 341.995C4.51761 341.067 4.88638 340.176 5.54279 339.52C6.1992 338.864 7.08948 338.495 8.01779 338.495C8.94609 338.495 9.83638 338.864 10.4928 339.52C10.8178 339.845 11.0756 340.231 11.2515 340.656C11.4274 341.08 11.518 341.535 11.518 341.995C11.518 342.455 11.4274 342.91 11.2515 343.334C11.0756 343.759 10.8178 344.145 10.4928 344.47C10.1678 344.795 9.78191 345.053 9.35725 345.229C8.93259 345.405 8.47744 345.495 8.01779 345.495C7.55814 345.495 7.10299 345.405 6.67833 345.229ZM13.9628 345.2L12.4628 344.4C13.2728 342.9 13.2728 341.1 12.4628 339.6L13.9628 338.8C14.4915 339.784 14.7682 340.883 14.7682 342C14.7682 343.117 14.4915 344.216 13.9628 345.2ZM8.01279 335.255C9.12961 335.255 10.229 335.531 11.2128 336.06L10.4128 337.54C9.67524 337.143 8.85057 336.935 8.01279 336.935C7.17501 336.935 6.35034 337.143 5.61279 337.54L4.81279 336.06C5.79655 335.531 6.89597 335.255 8.01279 335.255ZM2.07056 338.804C1.54334 339.787 1.26742 340.885 1.26742 342C1.26742 343.117 1.54412 344.216 2.07279 345.2L3.56279 344.4C3.16542 343.662 2.9574 342.838 2.9574 342C2.9574 341.162 3.16542 340.338 3.56279 339.6L2.07056 338.804ZM8.01279 348.745C6.89597 348.745 5.79655 348.469 4.81279 347.94L5.61279 346.46C7.11279 347.26 8.91279 347.26 10.4128 346.46L11.2128 347.94C10.229 348.469 9.12961 348.745 8.01279 348.745ZM13.4163 448.479C11.9999 446.99 10.0653 446.103 8.01279 446C5.89106 446 3.85623 446.843 2.35593 448.343C0.855644 449.843 0.012789 451.878 0.012789 454C0.012789 456.122 0.855644 458.157 2.35593 459.657C3.85623 461.157 5.89106 462 8.01279 462C10.0653 461.897 11.9999 461.01 13.4163 459.521C14.8328 458.032 15.6227 456.055 15.6227 454C15.6227 451.945 14.8328 449.968 13.4163 448.479ZM10.1828 447.53C12.8828 448.44 14.8328 451 14.8328 454C14.8337 455.501 14.3379 456.96 13.4228 458.15C13.1728 457.95 12.9028 457.43 13.1528 456.88C13.4128 456.33 13.4728 455.06 13.4128 454.56C13.3628 454.06 13.1128 452.87 12.4128 452.86C11.7128 452.85 11.2228 452.62 10.8128 451.79C10.3449 450.854 10.8657 450.33 11.2993 449.893C11.6627 449.527 11.9649 449.223 11.5728 448.79C11.4959 448.707 11.3255 448.779 11.1211 448.865C10.6605 449.06 10.0275 449.327 9.90279 448.06C9.88279 447.93 10.0128 447.73 10.1828 447.53ZM3.7713 448.656C4.72597 447.898 5.86578 447.409 7.07279 447.24C6.97295 447.44 6.76796 447.565 6.56476 447.69C6.44233 447.765 6.32054 447.84 6.22279 447.93C5.97932 448.152 5.79423 448.265 5.63792 448.36C5.42827 448.487 5.27038 448.584 5.09279 448.87C4.96248 449.087 4.70012 449.344 4.445 449.594C4.11275 449.919 3.79279 450.232 3.79279 450.43C3.79279 450.79 4.29279 451.22 4.55279 451.13C4.98532 451.047 5.43172 451.071 5.85279 451.2C5.90355 451.217 5.99633 451.234 6.11732 451.256C6.92587 451.405 8.99434 451.786 8.20279 453.9C8.07477 454.229 7.77192 454.393 7.44035 454.574C6.99494 454.816 6.4977 455.086 6.30279 455.82C6.25279 456 6.07279 456.8 6.06279 457.07C6.05713 457.183 6.07791 457.387 6.10177 457.621C6.1622 458.214 6.2424 459 5.96279 459C5.56279 459 4.51279 457.63 4.51279 457.38C4.51279 457.288 4.47631 457.114 4.43016 456.893C4.35078 456.514 4.24279 455.998 4.24279 455.53C4.24279 455.18 3.96627 454.996 3.6713 454.799C3.33411 454.574 2.97279 454.333 2.97279 453.81C2.97279 453.34 3.1655 452.992 3.32362 452.707C3.46469 452.453 3.57823 452.248 3.50279 452.05C3.37917 451.696 2.53563 451.626 1.96287 451.58C1.84063 451.57 1.73073 451.561 1.64279 451.55C2.08178 450.413 2.81663 449.414 3.7713 448.656ZM8.915 460.76C7.89281 460.899 6.85249 460.803 5.87279 460.48H5.86279C6.03309 460.389 6.14128 460.287 6.2361 460.198C6.36954 460.072 6.47648 459.972 6.69279 459.96C6.96047 459.954 7.19973 459.886 7.46232 459.812C7.61174 459.77 7.76872 459.726 7.94279 459.69C8.10219 459.656 8.31057 459.573 8.54442 459.479C8.92672 459.327 9.37708 459.147 9.79279 459.11C10.3628 459.07 11.4728 459.14 11.7728 459.68C10.9144 460.252 9.93719 460.621 8.915 460.76Z" fill="#7D9CB8"/>
<path d="M8.66279 -28.7C8.26279 -29.1 7.66279 -29.1 7.36279 -28.7L0.212789 -21.75C-0.187211 -21.35 0.012789 -21.05 0.512789 -21.05L2.01279 -21V-16C2.01279 -15 2.01279 -15 3.01279 -15H5.51279C5.6454 -15 5.77257 -15.0527 5.86634 -15.1464C5.96011 -15.2402 6.01279 -15.3674 6.01279 -15.5V-19C6.01279 -19.5304 6.2235 -20.0391 6.59858 -20.4142C6.97365 -20.7893 7.48236 -21 8.01279 -21C8.54322 -21 9.05193 -20.7893 9.427 -20.4142C9.80207 -20.0391 10.0128 -19.5304 10.0128 -19V-15.5C10.0114 -15.434 10.0234 -15.3683 10.0481 -15.3071C10.0727 -15.2458 10.1095 -15.1901 10.1562 -15.1434C10.2029 -15.0967 10.2586 -15.0599 10.3198 -15.0353C10.3811 -15.0106 10.4468 -14.9986 10.5128 -15H13.0128C14.0128 -15 14.0128 -15 14.0128 -16V-21L15.5928 -21.06C15.9928 -21.16 16.1928 -21.46 15.7928 -21.76L8.66279 -28.7Z" fill="#7D9CB8"/>
</g>
</svg>
