<svg width="16" height="14" viewBox="0 0 16 14" fill="none" xmlns="http://www.w3.org/2000/svg">
<mask id="mask0" mask-type="alpha" maskUnits="userSpaceOnUse" x="0" y="0" width="16" height="14">
<rect width="16" height="14" fill="#7D9CB8"/>
</mask>
<g mask="url(#mask0)">
<path fill-rule="evenodd" clip-rule="evenodd" d="M8.01279 -296.07C10.7528 -296.07 13.0528 -296.92 13.7828 -298.08V-298.07C13.9328 -298.33 14.0128 -298.19 14.0128 -298.07V-296.37C14.0128 -294.71 11.3228 -293 8.01279 -293C4.70279 -293 2.01279 -294.7 2.01279 -296.37V-298.07C2.01279 -298.19 2.09279 -298.33 2.24279 -298.07C2.97279 -296.92 5.27279 -296.07 8.01279 -296.07ZM8.01279 -300.66C10.7628 -300.66 13.0828 -301.41 13.7828 -302.44C13.9328 -302.65 14.0128 -302.54 14.0128 -302.44V-300.43C14.0128 -298.93 11.3228 -297.71 8.01279 -297.71C4.70279 -297.71 2.01279 -298.94 2.01279 -300.44V-302.44C2.01279 -302.54 2.09279 -302.65 2.23279 -302.44C2.95279 -301.41 5.26279 -300.66 8.01279 -300.66ZM2.01279 -305.76C2.01279 -307 4.70279 -308 8.01279 -308C11.3228 -308 14.0128 -306.99 14.0128 -305.76V-304.68C14.0128 -303.37 11.3228 -302.3 8.01279 -302.3C4.70279 -302.3 2.01279 -303.37 2.01279 -304.68V-305.76ZM12.4128 -268C12.1528 -268.23 12.0528 -268.47 11.9528 -269L12.5128 -272.5C12.5228 -272.52 14.0128 -275.5 11.3928 -277.5C10.4219 -278.239 9.90841 -278.348 9.57733 -278.419C9.46508 -278.443 9.37381 -278.462 9.29279 -278.5C9.25275 -278.52 9.18375 -278.598 9.08916 -278.705C8.90026 -278.918 8.60926 -279.247 8.24279 -279.46C7.55279 -279.86 6.66279 -280 6.66279 -280C6.89894 -279.472 7.08314 -278.923 7.21279 -278.36C6.88279 -278.24 6.41279 -278.06 5.93279 -277.82C4.68656 -277.202 4.4225 -276.574 4.11069 -275.833L4.09279 -275.79C3.35279 -274.81 2.50279 -274.34 2.49279 -274.34C2.47242 -274.329 2.44994 -274.317 2.42616 -274.304C2.26316 -274.217 2.03897 -274.098 2.01279 -273.88C2.00279 -273.75 2.02279 -273.65 2.47279 -273C2.67279 -272.7 3.97279 -271.96 4.04279 -272C4.1588 -272.062 4.43761 -272.176 4.78605 -272.318C5.60902 -272.654 6.82044 -273.149 7.19279 -273.5C7.19279 -271.981 6.04859 -270.684 5.13925 -269.653C4.55183 -268.987 4.06241 -268.432 4.04279 -268H2.65279C2.43279 -268 2.35279 -267.98 2.27279 -267.94C2.19008 -267.895 2.12362 -267.825 2.08279 -267.74C2.03279 -267.66 2.01279 -267.58 2.01279 -267.36V-265.64C2.01279 -265.42 2.03279 -265.34 2.07279 -265.26C2.11792 -265.177 2.18788 -265.111 2.27279 -265.07C2.35279 -265.02 2.43279 -265 2.65279 -265H13.3728C13.5928 -265 13.6728 -265.02 13.7528 -265.06C13.8355 -265.105 13.902 -265.175 13.9428 -265.26C13.9928 -265.34 14.0128 -265.42 14.0128 -265.64V-267.36C14.0128 -267.58 13.9928 -267.66 13.9528 -267.74C13.9077 -267.823 13.8377 -267.889 13.7528 -267.93C13.6728 -267.98 13.5928 -268 13.3728 -268H12.4128ZM8.01279 -321C12.2128 -321 13.4728 -323.45 13.8528 -324.92V-324.94L14.8728 -324.84L13.1428 -328L10.8928 -325.19L11.8128 -325.11C11.5328 -324.35 10.8128 -323.35 9.01279 -323.08V-329.18C9.68 -329.416 10.2423 -329.88 10.6004 -330.49C10.9585 -331.101 11.0893 -331.818 10.9696 -332.516C10.8499 -333.213 10.4875 -333.846 9.94645 -334.302C9.40538 -334.758 8.72048 -335.008 8.01279 -335.008C7.3051 -335.008 6.6202 -334.758 6.07913 -334.302C5.53806 -333.846 5.17566 -333.213 5.05599 -332.516C4.93632 -331.818 5.06708 -331.101 5.42516 -330.49C5.78323 -329.88 6.34558 -329.416 7.01279 -329.18V-323.08C5.21279 -323.35 4.49279 -324.35 4.20279 -325.11L5.13279 -325.19L2.88279 -328L1.15279 -324.83L2.17279 -324.92C2.55279 -323.45 3.81279 -321 8.01279 -321ZM8.7199 -331.293C8.53236 -331.105 8.27801 -331 8.01279 -331C7.74757 -331 7.49322 -331.105 7.30568 -331.293C7.11815 -331.48 7.01279 -331.735 7.01279 -332C7.01279 -332.265 7.11815 -332.52 7.30568 -332.707C7.49322 -332.895 7.74757 -333 8.01279 -333C8.27801 -333 8.53236 -332.895 8.7199 -332.707C8.90743 -332.52 9.01279 -332.265 9.01279 -332C9.01279 -331.735 8.90743 -331.48 8.7199 -331.293ZM0.49471 -361.918C0.326506 -361.718 0.24326 -361.461 0.262789 -361.2L1.05279 -352.22C1.07816 -351.958 1.20577 -351.717 1.40795 -351.548C1.61012 -351.38 1.87056 -351.298 2.13279 -351.32L11.1128 -352.1C11.3747 -352.125 11.6161 -352.253 11.7846 -352.455C11.9531 -352.657 12.0351 -352.918 12.0128 -353.18L11.2228 -362.16C11.1974 -362.422 11.0698 -362.663 10.8676 -362.832C10.6655 -363 10.405 -363.082 10.1428 -363.06L1.16279 -362.27C0.902715 -362.245 0.662915 -362.118 0.49471 -361.918ZM3.7199 -359.293C3.53236 -359.105 3.27801 -359 3.01279 -359C2.74757 -359 2.49322 -359.105 2.30568 -359.293C2.11815 -359.48 2.01279 -359.735 2.01279 -360C2.01279 -360.265 2.11815 -360.52 2.30568 -360.707C2.49322 -360.895 2.74757 -361 3.01279 -361C3.27801 -361 3.53236 -360.895 3.7199 -360.707C3.90743 -360.52 4.01279 -360.265 4.01279 -360C4.01279 -359.735 3.90743 -359.48 3.7199 -359.293ZM6.7199 -356.293C6.53236 -356.105 6.27801 -356 6.01279 -356C5.74757 -356 5.49322 -356.105 5.30568 -356.293C5.11815 -356.48 5.01279 -356.735 5.01279 -357C5.01279 -357.265 5.11815 -357.52 5.30568 -357.707C5.49322 -357.895 5.74757 -358 6.01279 -358C6.27801 -358 6.53236 -357.895 6.7199 -357.707C6.90743 -357.52 7.01279 -357.265 7.01279 -357C7.01279 -356.735 6.90743 -356.48 6.7199 -356.293ZM9.7199 -354.293C9.53236 -354.105 9.27801 -354 9.01279 -354C8.74757 -354 8.49322 -354.105 8.30568 -354.293C8.11815 -354.48 8.01279 -354.735 8.01279 -355C8.01279 -355.265 8.11815 -355.52 8.30568 -355.707C8.49322 -355.895 8.74757 -356 9.01279 -356C9.27801 -356 9.53236 -355.895 9.7199 -355.707C9.90743 -355.52 10.0128 -355.265 10.0128 -355C10.0128 -354.735 9.90743 -354.48 9.7199 -354.293ZM15.1428 -357.98L12.9428 -358.18L13.5028 -351.68C13.5251 -351.418 13.4431 -351.157 13.2746 -350.955C13.1061 -350.753 12.8647 -350.625 12.6028 -350.6L4.38279 -349.89L4.30279 -348.89C4.28326 -348.629 4.36651 -348.372 4.53471 -348.172C4.70292 -347.972 4.94272 -347.845 5.20279 -347.82L14.1828 -347.03C14.4449 -347.011 14.7042 -347.095 14.9045 -347.266C15.1047 -347.436 15.2298 -347.678 15.2528 -347.94L16.0428 -356.91C16.0623 -357.171 15.9791 -357.428 15.8109 -357.628C15.6427 -357.828 15.4029 -357.955 15.1428 -357.98ZM0.502789 -380.98C0.222789 -380.98 0.012789 -380.75 0.012789 -380.48V-377.47C0.0114585 -377.405 0.0231499 -377.34 0.0471783 -377.279C0.0712067 -377.219 0.107089 -377.164 0.152723 -377.117C0.198357 -377.071 0.252824 -377.033 0.312935 -377.008C0.373046 -376.983 0.437591 -376.97 0.502789 -376.97H3.52279C3.80279 -376.97 4.01279 -377.19 4.01279 -377.46V-380.48C4.01279 -380.76 3.79279 -380.98 3.52279 -380.98H0.502789ZM5.50279 -380.98C5.22279 -380.98 5.01279 -380.75 5.01279 -380.48V-377.47C5.01146 -377.405 5.02315 -377.34 5.04718 -377.279C5.07121 -377.219 5.10709 -377.164 5.15272 -377.117C5.19836 -377.071 5.25282 -377.033 5.31294 -377.008C5.37305 -376.983 5.43759 -376.97 5.50279 -376.97H8.52279C8.80279 -376.97 9.01279 -377.19 9.01279 -377.46V-380.48C9.01279 -380.76 8.79279 -380.98 8.52279 -380.98H5.50279ZM10.5028 -380.98C10.2228 -380.98 10.0128 -380.75 10.0128 -380.48V-377.47C10.0115 -377.405 10.0231 -377.34 10.0472 -377.279C10.0712 -377.219 10.1071 -377.164 10.1527 -377.117C10.1984 -377.071 10.2528 -377.033 10.3129 -377.008C10.373 -376.983 10.4376 -376.97 10.5028 -376.97H13.5228C13.8028 -376.97 14.0128 -377.19 14.0128 -377.46V-380.48C14.0128 -380.76 13.7928 -380.98 13.5228 -380.98H10.5028ZM5.50279 -385.98C5.22279 -385.98 5.01279 -385.75 5.01279 -385.48V-382.47C5.01146 -382.405 5.02315 -382.34 5.04718 -382.279C5.07121 -382.219 5.10709 -382.164 5.15272 -382.117C5.19836 -382.071 5.25282 -382.033 5.31294 -382.008C5.37305 -381.983 5.43759 -381.97 5.50279 -381.97H8.52279C8.80279 -381.97 9.01279 -382.19 9.01279 -382.46V-385.48C9.01279 -385.76 8.79279 -385.98 8.52279 -385.98H5.50279ZM10.4207 -389.975C10.4207 -389.846 10.4718 -389.722 10.5628 -389.63L12.6928 -387.49C12.7846 -387.399 12.9086 -387.348 13.0378 -387.348C13.167 -387.348 13.291 -387.399 13.3828 -387.49L15.5228 -389.62C15.5694 -389.666 15.6063 -389.72 15.6316 -389.78C15.6569 -389.84 15.6699 -389.905 15.6699 -389.97C15.6699 -390.035 15.6569 -390.1 15.6316 -390.16C15.6063 -390.22 15.5694 -390.274 15.5228 -390.32L13.3928 -392.45C13.3472 -392.497 13.2927 -392.534 13.2326 -392.559C13.1725 -392.584 13.108 -392.597 13.0428 -392.597C12.9776 -392.597 12.9131 -392.584 12.853 -392.559C12.7929 -392.534 12.7384 -392.497 12.6928 -392.45L10.5628 -390.32C10.4718 -390.228 10.4207 -390.104 10.4207 -389.975ZM0.502789 -385.98C0.222789 -385.98 0.012789 -385.76 0.012789 -385.49V-382.47C0.0114585 -382.405 0.0231499 -382.34 0.0471783 -382.279C0.0712067 -382.219 0.107089 -382.164 0.152723 -382.117C0.198357 -382.071 0.252824 -382.033 0.312935 -382.008C0.373046 -381.983 0.437591 -381.97 0.502789 -381.97H3.52279C3.80279 -381.97 4.01279 -382.19 4.01279 -382.46V-385.48C4.01279 -385.76 3.79279 -385.98 3.52279 -385.98H0.502789ZM0.502789 -390.98C0.222789 -390.98 0.012789 -390.76 0.012789 -390.49V-387.47C0.0114585 -387.405 0.0231499 -387.34 0.0471783 -387.279C0.0712067 -387.219 0.107089 -387.164 0.152723 -387.117C0.198357 -387.071 0.252824 -387.033 0.312935 -387.008C0.373046 -386.983 0.437591 -386.97 0.502789 -386.97H3.52279C3.80279 -386.97 4.01279 -387.19 4.01279 -387.46V-390.48C4.01279 -390.76 3.79279 -390.98 3.52279 -390.98H0.502789ZM4.99121 -389.961C4.99961 -389.897 5.02054 -389.836 5.05279 -389.78L5.06279 -389.79L6.56279 -387.17C6.62932 -387.059 6.73715 -386.979 6.86271 -386.947C6.98826 -386.915 7.12132 -386.934 7.23279 -387L9.85279 -388.49C9.96393 -388.557 10.0442 -388.664 10.0761 -388.79C10.1079 -388.915 10.0888 -389.049 10.0228 -389.16L8.52279 -391.78C8.45626 -391.891 8.34843 -391.971 8.22287 -392.003C8.09732 -392.035 7.96426 -392.016 7.85279 -391.95L5.23279 -390.45C5.17692 -390.418 5.12794 -390.375 5.08865 -390.324C5.04935 -390.273 5.02052 -390.215 5.0038 -390.152C4.98708 -390.09 4.9828 -390.025 4.99121 -389.961ZM11.7662 -387.104C11.6429 -387.071 11.5376 -386.99 11.4728 -386.88L9.95279 -384.26C9.92094 -384.204 9.90059 -384.141 9.89291 -384.077C9.88523 -384.013 9.89038 -383.948 9.90805 -383.885C9.92571 -383.823 9.95556 -383.765 9.99585 -383.714C10.0361 -383.663 10.0861 -383.621 10.1428 -383.59L12.7528 -382.08C12.8086 -382.048 12.8702 -382.027 12.9341 -382.018C12.998 -382.01 13.0629 -382.014 13.1251 -382.031C13.1874 -382.048 13.2457 -382.077 13.2968 -382.116C13.3478 -382.155 13.3907 -382.204 13.4228 -382.26L14.9328 -384.88C14.965 -384.936 14.986 -384.997 14.9944 -385.061C15.0028 -385.125 14.9985 -385.19 14.9818 -385.252C14.9651 -385.315 14.9362 -385.373 14.8969 -385.424C14.8576 -385.475 14.8087 -385.518 14.7528 -385.55L12.1328 -387.06C12.021 -387.122 11.8895 -387.138 11.7662 -387.104ZM4.01279 -527V-531H3.51279C2.69279 -531 2.01279 -530.33 2.01279 -529.5V-518.5C2.01279 -518.102 2.17082 -517.721 2.45213 -517.439C2.73343 -517.158 3.11496 -517 3.51279 -517H13.5128C13.6454 -517 13.7726 -517.053 13.8663 -517.146C13.9601 -517.24 14.0128 -517.367 14.0128 -517.5V-518H3.51279C3.23279 -518 3.01279 -518.23 3.01279 -518.5C3.01279 -518.633 3.06547 -518.76 3.15924 -518.854C3.253 -518.947 3.38018 -519 3.51279 -519H14.0128V-529.5C14.0128 -529.898 13.8548 -530.279 13.5734 -530.561C13.2921 -530.842 12.9106 -531 12.5128 -531H7.01279V-527L5.51279 -529L4.01279 -527ZM9.05279 -503H7.97279C7.64279 -503 7.52279 -502.97 7.39279 -502.9C7.27375 -502.837 7.17628 -502.739 7.11279 -502.62C7.04279 -502.5 7.01279 -502.37 7.01279 -502.04V-490.96C7.01279 -490.63 7.04279 -490.51 7.11279 -490.38C7.17628 -490.261 7.27375 -490.163 7.39279 -490.1C7.51279 -490.04 7.64279 -490 7.97279 -490H9.05279C9.38279 -490 9.50279 -490.03 9.63279 -490.1C9.75183 -490.163 9.8493 -490.261 9.91279 -490.38C9.97279 -490.51 10.0128 -490.63 10.0128 -490.96V-502.04C10.0128 -502.37 9.98279 -502.49 9.91279 -502.62C9.8493 -502.739 9.75183 -502.837 9.63279 -502.9C9.50279 -502.96 9.38279 -503 9.05279 -503ZM4.05279 -496.02H2.97279C2.64279 -496.02 2.52279 -495.98 2.39279 -495.92C2.27229 -495.854 2.17467 -495.753 2.11279 -495.63C2.04279 -495.51 2.01279 -495.39 2.01279 -495.05V-490.98C2.01279 -490.64 2.04279 -490.52 2.11279 -490.4C2.17628 -490.281 2.27375 -490.183 2.39279 -490.12C2.51279 -490.05 2.64279 -490.02 2.97279 -490.02H4.05279C4.38279 -490.02 4.50279 -490.05 4.63279 -490.12C4.75183 -490.183 4.8493 -490.281 4.91279 -490.4C4.98279 -490.52 5.01279 -490.64 5.01279 -490.98V-495.05C5.01279 -495.39 4.98279 -495.51 4.91279 -495.63C4.85091 -495.753 4.75329 -495.854 4.63279 -495.92C4.51279 -495.98 4.38279 -496.02 4.05279 -496.02ZM14.6328 -499.9C14.5028 -499.96 14.3828 -500 14.0528 -500H12.9728C12.6428 -500 12.5228 -499.97 12.3928 -499.9C12.2737 -499.837 12.1763 -499.739 12.1128 -499.62C12.0428 -499.49 12.0128 -499.37 12.0128 -499.04V-490.96C12.0128 -490.63 12.0428 -490.51 12.1128 -490.38C12.1763 -490.261 12.2737 -490.163 12.3928 -490.1C12.5128 -490.04 12.6428 -490 12.9728 -490H14.0528C14.3828 -490 14.5028 -490.03 14.6328 -490.1C14.7518 -490.163 14.8493 -490.261 14.9128 -490.38C14.9728 -490.51 15.0128 -490.63 15.0128 -490.96V-499.04C15.0128 -499.37 14.9828 -499.49 14.9128 -499.62C14.8493 -499.739 14.7518 -499.837 14.6328 -499.9ZM7.11162 -405.625C9.73808 -406.695 10.2107 -406.888 9.85279 -409.96L9.86279 -409.95C9.86279 -409.95 15.6028 -414.01 14.9628 -418.65C14.9515 -418.726 14.9165 -418.796 14.8628 -418.85C14.8328 -418.9 14.7628 -418.94 14.6628 -418.95C10.0228 -419.59 5.97279 -413.84 5.97279 -413.84C2.89173 -414.199 2.69906 -413.723 1.62594 -411.07C1.47306 -410.692 1.30231 -410.27 1.10279 -409.8C0.802789 -409.09 1.29279 -408.84 1.84279 -409.04L3.59279 -409.68L5.70279 -407.58L5.05279 -405.83C4.85279 -405.29 5.10279 -404.79 5.82279 -405.09C6.30082 -405.295 6.72907 -405.469 7.11162 -405.625ZM11.0792 -414.361C10.9248 -414.432 10.7865 -414.534 10.6728 -414.66C10.4592 -414.898 10.3447 -415.208 10.3527 -415.527C10.3607 -415.846 10.4907 -416.151 10.7159 -416.377C10.9411 -416.604 11.2446 -416.735 11.5638 -416.745C11.8831 -416.755 12.194 -416.642 12.4328 -416.43C12.5599 -416.317 12.6626 -416.179 12.7346 -416.025C12.8066 -415.871 12.8465 -415.704 12.8517 -415.534C12.8569 -415.364 12.8274 -415.195 12.765 -415.037C12.7026 -414.879 12.6086 -414.735 12.4887 -414.614C12.3688 -414.494 12.2256 -414.399 12.0678 -414.336C11.91 -414.272 11.7409 -414.242 11.5709 -414.246C11.4009 -414.25 11.2336 -414.289 11.0792 -414.361ZM7.01279 -467V-468H2.01279V-462.99C2.01542 -462.727 2.12194 -462.475 2.30919 -462.289C2.49645 -462.104 2.7493 -462 3.01279 -462H14.0128C14.2763 -462 14.5291 -462.104 14.7164 -462.289C14.9036 -462.475 15.0102 -462.727 15.0128 -462.99V-468H10.0128V-467H7.01279ZM1.08602 -472.376C1.03636 -472.253 1.01147 -472.122 1.01279 -471.99V-469H16.0128V-471.99C16.0141 -472.122 15.9892 -472.253 15.9396 -472.376C15.8899 -472.498 15.8164 -472.61 15.7235 -472.704C15.6305 -472.798 15.5198 -472.872 15.3978 -472.923C15.2758 -472.974 15.145 -473 15.0128 -473H12.5128L11.5128 -475H5.51279L4.51279 -473H2.01279C1.88062 -473 1.74976 -472.974 1.62778 -472.923C1.5058 -472.872 1.39511 -472.798 1.30212 -472.704C1.20913 -472.61 1.13568 -472.498 1.08602 -472.376ZM11.0128 -473H6.01279L6.51279 -474H10.5128L11.0128 -473ZM10.1828 -610.88L8.62279 -615.28C8.57685 -615.405 8.49374 -615.513 8.38466 -615.589C8.27558 -615.665 8.14578 -615.706 8.01279 -615.706C7.87979 -615.706 7.75 -615.665 7.64092 -615.589C7.53184 -615.513 7.44872 -615.405 7.40279 -615.28L5.84279 -610.89H1.95279C1.81637 -610.89 1.6834 -610.847 1.57273 -610.767C1.46205 -610.688 1.37929 -610.575 1.33614 -610.446C1.293 -610.316 1.29168 -610.176 1.33236 -610.046C1.37303 -609.916 1.45365 -609.802 1.56279 -609.72L4.76279 -607.3L3.56279 -602.85C3.52398 -602.717 3.52847 -602.576 3.5756 -602.446C3.62272 -602.316 3.71004 -602.204 3.82487 -602.127C3.9397 -602.051 4.07607 -602.012 4.21416 -602.018C4.35225 -602.024 4.48488 -602.074 4.59279 -602.16L8.01279 -604.78L11.4328 -602.16C11.541 -602.078 11.6723 -602.031 11.8082 -602.028C11.9441 -602.024 12.0777 -602.063 12.1903 -602.139C12.3029 -602.215 12.3888 -602.325 12.4359 -602.452C12.4829 -602.58 12.4889 -602.719 12.4528 -602.85L11.2528 -607.3L14.4728 -609.72C14.5785 -609.804 14.6557 -609.918 14.6936 -610.047C14.7315 -610.177 14.7282 -610.314 14.6843 -610.442C14.6404 -610.569 14.5579 -610.68 14.4484 -610.758C14.3388 -610.837 14.2076 -610.879 14.0728 -610.88H10.1828ZM5.01279 -663.5C5.01279 -664.3 4.31279 -665 3.51279 -665C2.71279 -665 2.01279 -664.3 2.01279 -663.5C2.01279 -662.7 2.71279 -662 3.51279 -662C4.31279 -662 5.01279 -662.7 5.01279 -663.5ZM10.0128 -663.5C10.0128 -664.3 9.31279 -665 8.51279 -665C7.71279 -665 7.01279 -664.3 7.01279 -663.5C7.01279 -662.7 7.71279 -662 8.51279 -662C9.31279 -662 10.0128 -662.7 10.0128 -663.5ZM15.0128 -663.5C15.0128 -664.3 14.3128 -665 13.5128 -665C12.7128 -665 12.0128 -664.3 12.0128 -663.5C12.0128 -662.7 12.7128 -662 13.5128 -662C14.3128 -662 15.0128 -662.7 15.0128 -663.5ZM11.0128 -578L13.9728 -576.52V-576.51C13.9715 -576.444 13.9831 -576.379 14.007 -576.318C14.0309 -576.257 14.0666 -576.201 14.1121 -576.154C14.1576 -576.106 14.212 -576.068 14.2722 -576.042C14.3324 -576.016 14.3971 -576.001 14.4628 -576H14.5128C14.5793 -576 14.6451 -576.013 14.7065 -576.039C14.7678 -576.065 14.8234 -576.102 14.8699 -576.15C14.9165 -576.197 14.9531 -576.254 14.9776 -576.316C15.0022 -576.377 15.0141 -576.444 15.0128 -576.51V-585.49C15.0128 -585.77 14.7928 -586 14.5128 -586H14.4728C14.4063 -586 14.3404 -585.987 14.2791 -585.961C14.2178 -585.935 14.1622 -585.898 14.1157 -585.85C14.0691 -585.803 14.0325 -585.746 14.0079 -585.684C13.9834 -585.623 13.9715 -585.556 13.9728 -585.49V-585.48L11.0128 -584V-578ZM7.77279 -574.22L7.17279 -578H10.0128V-584H4.01279C3.21714 -584 2.45408 -583.684 1.89147 -583.121C1.32886 -582.559 1.01279 -581.796 1.01279 -581C1.01279 -580.204 1.32886 -579.441 1.89147 -578.879C2.45408 -578.316 3.21714 -578 4.01279 -578H5.17279L5.85279 -573.95C5.89703 -573.695 6.03846 -573.467 6.24734 -573.314C6.45622 -573.161 6.71627 -573.095 6.97279 -573.13C7.09723 -573.148 7.21681 -573.191 7.32457 -573.256C7.43234 -573.321 7.52616 -573.406 7.60058 -573.508C7.675 -573.609 7.72855 -573.724 7.75811 -573.847C7.78767 -573.969 7.79266 -574.096 7.77279 -574.22ZM9.01279 -643V-638.5C9.01279 -638.367 9.06547 -638.24 9.15924 -638.146C9.253 -638.053 9.38018 -638 9.51279 -638H14.0128L9.01279 -643ZM8.01279 -643H3.29279C2.85279 -643 2.69279 -642.95 2.52279 -642.87C2.36038 -642.785 2.2278 -642.652 2.14279 -642.49C2.06279 -642.32 2.01279 -642.16 2.01279 -641.72V-630.28C2.01279 -629.84 2.06279 -629.68 2.14279 -629.51C2.2278 -629.348 2.36038 -629.215 2.52279 -629.13C2.69279 -629.05 2.85279 -629 3.29279 -629H12.7328C13.1728 -629 13.3328 -629.05 13.5028 -629.13C13.6652 -629.215 13.7978 -629.348 13.8828 -629.51C13.9628 -629.68 14.0128 -629.84 14.0128 -630.28V-637H9.29279C8.85279 -637 8.69279 -637.05 8.52279 -637.13C8.36279 -637.22 8.24279 -637.35 8.14279 -637.51C8.06279 -637.68 8.01279 -637.84 8.01279 -638.28V-643ZM16.0028 -779.29C16.1128 -780.16 15.3628 -780.92 14.5128 -780.92H13.1228C12.9128 -780.92 12.5828 -781.14 12.4828 -781.36L11.9528 -782.56C11.8428 -782.78 11.6328 -783 11.3128 -783H4.81279C4.59279 -783 4.27279 -782.78 4.17279 -782.56L3.64279 -781.36C3.53279 -781.14 3.32279 -780.92 3.00279 -780.92H1.61279C0.762789 -780.92 0.012789 -779.94 0.012789 -779.07V-771.64C0.012789 -770.76 0.762789 -770 1.61279 -770H14.4028C15.2528 -770 16.0028 -770.77 16.0028 -771.64V-779.29ZM12.0128 -776C12.0128 -773.83 10.1828 -772 8.01279 -772C5.84279 -772 4.01279 -773.83 4.01279 -776C4.01279 -778.17 5.84279 -780 8.01279 -780C10.1828 -780 12.0128 -778.17 12.0128 -776ZM10.5128 -776C10.5128 -777.41 9.42279 -778.5 8.01279 -778.5C6.60279 -778.5 5.51279 -777.41 5.51279 -776C5.51279 -774.59 6.60279 -773.5 8.01279 -773.5C9.42279 -773.5 10.5128 -774.59 10.5128 -776ZM12.0128 -752V-746.18C11.586 -746.179 11.164 -746.091 10.7728 -745.92C9.50279 -745.38 8.80279 -744.16 9.21279 -743.2C9.62279 -742.23 10.9828 -741.88 12.2528 -742.43C13.2528 -742.85 13.9028 -743.7 13.9328 -744.51L14.0128 -744.5V-756L4.02279 -753.04V-744C4.02199 -743.98 4.02199 -743.96 4.02279 -743.94C3.62697 -743.947 3.23339 -743.879 2.86279 -743.74C1.56279 -743.27 0.802789 -742.1 1.16279 -741.1C1.52279 -740.12 2.86279 -739.7 4.16279 -740.17C5.33279 -740.6 6.06279 -741.6 5.93279 -742.52L6.01279 -742.5V-750L12.0128 -752ZM5.01279 -713H11.0128V-715H13.0128V-713H14.0128C14.278 -713 14.5324 -713.105 14.7199 -713.293C14.9074 -713.48 15.0128 -713.735 15.0128 -714V-726C15.0128 -726.265 14.9074 -726.52 14.7199 -726.707C14.5324 -726.895 14.278 -727 14.0128 -727H13.0128V-725H11.0128V-727H5.01279V-725H3.01279V-727H2.01279C1.74757 -727 1.49322 -726.895 1.30568 -726.707C1.11815 -726.52 1.01279 -726.265 1.01279 -726V-714C1.01279 -713.735 1.11815 -713.48 1.30568 -713.293C1.49322 -713.105 1.74757 -713 2.01279 -713H3.01279V-715H5.01279V-713ZM5.01279 -723V-721H3.01279V-723H5.01279ZM13.0128 -723V-721H11.0128V-723H13.0128ZM5.01279 -719V-717H3.01279V-719H5.01279ZM13.0128 -719V-717H11.0128V-719H13.0128ZM14.1828 -686C16.7828 -686.21 15.8828 -690.35 15.7828 -690.75C15.2828 -693.07 13.9928 -697 11.1128 -697C10.557 -696.916 10.0173 -696.748 9.51279 -696.5C8.21279 -696 7.62279 -696 6.43279 -696.5C5.73279 -696.9 4.83279 -697 4.83279 -697C2.04279 -697 0.642789 -692.97 0.242789 -690.75C0.142789 -690.34 -0.747211 -686.1 1.74279 -686C2.50583 -685.923 3.39363 -686.927 4.17266 -687.808C4.40437 -688.07 4.62646 -688.321 4.83279 -688.53C5.72279 -689.53 6.52279 -690.03 7.91279 -690.03C9.30279 -690.03 10.2028 -689.53 11.0028 -688.53C11.2011 -688.329 11.4135 -688.09 11.6359 -687.839C12.4224 -686.95 13.333 -685.922 14.1828 -686ZM10.5128 -692C10.2328 -692 10.0128 -692.23 10.0128 -692.5C10.0128 -692.633 10.0655 -692.76 10.1592 -692.854C10.253 -692.947 10.3802 -693 10.5128 -693C10.6454 -693 10.7726 -692.947 10.8663 -692.854C10.9601 -692.76 11.0128 -692.633 11.0128 -692.5C11.0128 -692.367 10.9601 -692.24 10.8663 -692.146C10.7726 -692.053 10.6454 -692 10.5128 -692ZM12.5128 -692C12.2328 -692 12.0128 -692.23 12.0128 -692.5C12.0128 -692.633 12.0655 -692.76 12.1592 -692.854C12.253 -692.947 12.3802 -693 12.5128 -693C12.6454 -693 12.7726 -692.947 12.8663 -692.854C12.9601 -692.76 13.0128 -692.633 13.0128 -692.5C13.0128 -692.367 12.9601 -692.24 12.8663 -692.146C12.7726 -692.053 12.6454 -692 12.5128 -692ZM5.01279 -693.5V-693H5.51279C5.6454 -693 5.77257 -692.947 5.86634 -692.854C5.96011 -692.76 6.01279 -692.633 6.01279 -692.5C6.01279 -692.367 5.96011 -692.24 5.86634 -692.146C5.77257 -692.053 5.6454 -692 5.51279 -692H5.01279V-691.5C5.01279 -691.367 4.96011 -691.24 4.86634 -691.146C4.77257 -691.053 4.6454 -691 4.51279 -691C4.38018 -691 4.253 -691.053 4.15924 -691.146C4.06547 -691.24 4.01279 -691.367 4.01279 -691.5V-692H3.51279C3.38018 -692 3.253 -692.053 3.15924 -692.146C3.06547 -692.24 3.01279 -692.367 3.01279 -692.5C3.01279 -692.633 3.06547 -692.76 3.15924 -692.854C3.253 -692.947 3.38018 -693 3.51279 -693H4.01279V-693.5C4.01279 -693.633 4.06547 -693.76 4.15924 -693.854C4.253 -693.947 4.38018 -694 4.51279 -694C4.6454 -694 4.77257 -693.947 4.86634 -693.854C4.96011 -693.76 5.01279 -693.633 5.01279 -693.5ZM14.0128 -826.9C14.0128 -828.3 13.4128 -831 8.01279 -831C2.61279 -831 2.01279 -828.4 2.01279 -826.9C2.01279 -826.2 2.37279 -826 3.81279 -826H12.3328C13.7728 -826 14.0128 -826.2 14.0128 -826.9ZM5.01279 -835.5C5.01279 -833.17 6.35279 -832 8.01279 -832C9.67279 -832 11.0128 -833.17 11.0128 -835.5C11.0128 -837.83 9.67279 -839 8.01279 -839C6.35279 -839 5.01279 -837.83 5.01279 -835.5ZM5.01279 -804C0.0127892 -804 0.012789 -801.4 0.012789 -799.9C0.012789 -799.2 0.312789 -799 1.51279 -799H8.61279C9.81279 -799 10.0128 -799.2 10.0128 -799.9C10.0128 -801.3 10.0128 -804 5.01279 -804ZM11.6128 -799.28L11.6028 -799H14.6128C15.8128 -799 16.0128 -799.2 16.0128 -799.9C16.0128 -801.3 15.5128 -804 11.0128 -804L10.1428 -803.98C11.5728 -802.62 11.6128 -800.65 11.6128 -799.28ZM3.01279 -807.5C3.01279 -805.83 3.91279 -805 5.01279 -805C6.11279 -805 7.01279 -805.83 7.01279 -807.5C7.01279 -809.17 6.11279 -810 5.01279 -810C3.91279 -810 3.01279 -809.17 3.01279 -807.5ZM9.01279 -807.5C9.01279 -805.83 9.91279 -805 11.0128 -805C12.1128 -805 13.0128 -805.83 13.0128 -807.5C13.0128 -809.17 12.1128 -810 11.0128 -810C9.91279 -810 9.01279 -809.17 9.01279 -807.5ZM16.0128 -888C16.0128 -890.1 14.4428 -891.91 12.2428 -892.64C13.0428 -891.62 13.5128 -890.37 13.5128 -889C13.5128 -886.29 11.6728 -884.06 9.07279 -883.06C9.75686 -882.968 10.4506 -882.975 11.1328 -883.08C11.6028 -882.4 12.4428 -881.98 14.0228 -881.98C13.5828 -882.63 13.2828 -883.28 13.2028 -883.76C14.8928 -884.65 16.0128 -886.21 16.0128 -888ZM1.99279 -883C3.58279 -883 4.41279 -883.4 4.89279 -884.1V-884.09C5.25279 -884.03 5.63279 -884 6.01279 -884C9.32279 -884 12.0128 -886.24 12.0128 -889C12.0128 -891.76 9.32279 -894 6.01279 -894C2.70279 -894 0.012789 -891.76 0.012789 -889C0.012789 -887.22 1.13279 -885.65 2.82279 -884.76C2.74279 -884.29 2.44279 -883.64 1.99279 -883ZM6.59858 -853.586C6.97365 -853.211 7.48236 -853 8.01279 -853C8.54322 -853 9.05193 -853.211 9.427 -853.586C9.80207 -853.961 10.0128 -854.47 10.0128 -855H6.01279C6.01279 -854.47 6.2235 -853.961 6.59858 -853.586ZM14.5628 -857.4C14.0228 -858.2 12.8628 -859 12.8628 -859V-862C12.8628 -864.6 11.4028 -866.5 9.19279 -867C9.19279 -867 9.20279 -868 8.01279 -868C6.82279 -868 6.82279 -867 6.82279 -867C4.35279 -866.5 3.16279 -864.6 3.16279 -862V-859C3.16279 -859 2.00279 -858.2 1.46279 -857.4C0.502789 -856.1 1.14279 -856 2.64279 -856H13.3828C14.8728 -856 15.5228 -856.1 14.5628 -857.4ZM1.01279 14H13.5128C14.3328 14 15.0128 13.33 15.0128 12.5V1C15.0128 0.734784 14.9074 0.480444 14.7199 0.292908C14.5324 0.105371 14.278 0 14.0128 0H4.01279C3.74838 0.00260521 3.49554 0.108802 3.30856 0.295776C3.12159 0.482751 3.01539 0.735591 3.01279 1V11H2.51279C2.23279 11 2.01279 10.77 2.01279 10.5V4H0.012789V13C0.012789 13.2652 0.118146 13.5196 0.305682 13.7071C0.493219 13.8946 0.747573 14 1.01279 14ZM6.01279 6.51001V3.48999C6.01541 3.35912 6.06924 3.2345 6.16272 3.14288C6.25621 3.05127 6.3819 2.99997 6.51279 3H11.5128C11.578 2.99867 11.6428 3.01033 11.7034 3.03436C11.764 3.05839 11.8192 3.09432 11.8658 3.13995C11.9123 3.18559 11.9493 3.24006 11.9746 3.30017C11.9998 3.36028 12.0128 3.42479 12.0128 3.48999V6.51001C12.0102 6.64088 11.9563 6.7655 11.8629 6.85712C11.7694 6.94873 11.6437 7.00003 11.5128 7H6.51279C6.23279 7 6.01279 6.79001 6.01279 6.51001ZM6.51279 9C6.23279 9 6.01279 8.77 6.01279 8.5C6.01279 8.36739 6.06547 8.24019 6.15924 8.14642C6.253 8.05266 6.38018 8 6.51279 8H11.5128C11.6454 8 11.7726 8.05266 11.8663 8.14642C11.9601 8.24019 12.0128 8.36739 12.0128 8.5C12.0128 8.63261 11.9601 8.75981 11.8663 8.85358C11.7726 8.94734 11.6454 9 11.5128 9H6.51279ZM6.50279 11C6.23279 11 6.01279 10.77 6.01279 10.5C6.01276 10.3691 6.06407 10.2434 6.15568 10.15C6.2473 10.0565 6.37192 10.0026 6.50279 10H9.52279C9.65366 10.0026 9.77828 10.0565 9.86989 10.15C9.96151 10.2434 10.0128 10.3691 10.0128 10.5C10.0128 10.6309 9.96151 10.7566 9.86989 10.85C9.77828 10.9435 9.65366 10.9974 9.52279 11H6.50279ZM5.18436 27.1716C4.43422 27.9217 4.01279 28.9391 4.01279 30H3.29279C2.85279 30 2.69279 30.05 2.52279 30.13C2.36038 30.215 2.2278 30.3476 2.14279 30.51C2.06279 30.68 2.01279 30.84 2.01279 31.28V39.72C2.01279 40.16 2.06279 40.33 2.14279 40.49C2.2278 40.6524 2.36038 40.785 2.52279 40.87C2.69279 40.95 2.85279 41 3.29279 41H12.7328C13.1728 41 13.3328 40.95 13.5028 40.87C13.6652 40.785 13.7978 40.6524 13.8828 40.49C13.9628 40.32 14.0128 40.16 14.0128 39.72V31.28C14.0128 30.84 13.9628 30.68 13.8828 30.51C13.7928 30.35 13.6628 30.23 13.5028 30.13C13.3328 30.05 13.1728 30 12.7328 30H12.0128C12.0128 28.9391 11.5914 27.9217 10.8412 27.1716C10.0911 26.4214 9.07365 26 8.01279 26C6.95192 26 5.93451 26.4214 5.18436 27.1716ZM9.95733 28.0555C10.4731 28.5712 10.7628 29.2707 10.7628 30H5.26279C5.26279 29.2707 5.55252 28.5712 6.06825 28.0555C6.58397 27.5398 7.28344 27.25 8.01279 27.25C8.74213 27.25 9.44161 27.5398 9.95733 28.0555ZM9.91279 49.55L9.10279 50.64C8.3893 50.4443 7.63627 50.4443 6.92279 50.64L6.11279 49.55C6.05369 49.4712 5.97966 49.4048 5.89491 49.3546C5.81016 49.3044 5.71636 49.2715 5.61886 49.2576C5.52135 49.2436 5.42206 49.249 5.32665 49.2734C5.23124 49.2979 5.14158 49.3409 5.06279 49.4C4.984 49.4591 4.91761 49.5331 4.86743 49.6179C4.81725 49.7026 4.78426 49.7964 4.77033 49.8939C4.7564 49.9914 4.76181 50.0907 4.78625 50.1862C4.8107 50.2816 4.85369 50.3712 4.91279 50.45L5.61279 51.4C4.97913 52.1278 4.59383 53.0385 4.51279 54H11.5128C11.3428 52.84 10.9828 51.98 10.4128 51.39L11.1128 50.45C11.1719 50.3712 11.2149 50.2816 11.2393 50.1862C11.2638 50.0907 11.2692 49.9914 11.2553 49.8939C11.2413 49.7964 11.2083 49.7026 11.1581 49.6179C11.108 49.5331 11.0416 49.4591 10.9628 49.4C10.884 49.3409 10.7943 49.2979 10.6989 49.2734C10.6035 49.249 10.5042 49.2436 10.4067 49.2576C10.3092 49.2715 10.2154 49.3044 10.1307 49.3546C10.0459 49.4048 9.97188 49.4712 9.91279 49.55ZM3.51279 55C3.43279 55.31 3.37279 55.64 3.32279 55.97L2.78279 55.62C2.75546 55.5999 2.73251 55.5745 2.71532 55.5453C2.69812 55.5161 2.68706 55.4836 2.68279 55.45L2.25279 52.88C2.23968 52.7805 2.20674 52.6846 2.1559 52.5981C2.10506 52.5115 2.03737 52.4361 1.95683 52.3762C1.8763 52.3163 1.78455 52.2731 1.68704 52.2493C1.58953 52.2255 1.48824 52.2215 1.38916 52.2376C1.29008 52.2537 1.19523 52.2894 1.11024 52.3428C1.02524 52.3962 0.951834 52.4662 0.894356 52.5485C0.836878 52.6307 0.796502 52.7237 0.77562 52.8219C0.754738 52.9201 0.753775 53.0214 0.772789 53.12L1.20279 55.7C1.24255 55.9341 1.32955 56.1577 1.45849 56.3571C1.58743 56.5565 1.75561 56.7276 1.95279 56.86L3.21279 57.7C3.21654 58.5735 3.30699 59.4444 3.48279 60.3L1.80279 61.7C1.49434 61.9549 1.28257 62.3079 1.20279 62.7L0.772789 64.85C0.753091 64.9472 0.752726 65.0473 0.771716 65.1446C0.790705 65.2419 0.828677 65.3345 0.883464 65.4172C0.938251 65.4998 1.00878 65.5709 1.09102 65.6263C1.17326 65.6817 1.26561 65.7203 1.36279 65.74C1.45997 65.7597 1.56007 65.7601 1.65739 65.7411C1.75471 65.7221 1.84734 65.6841 1.92998 65.6293C2.01263 65.5745 2.08367 65.504 2.13906 65.4218C2.19444 65.3395 2.23309 65.2472 2.25279 65.15L2.68279 62.99C2.69326 62.9358 2.72139 62.8865 2.76279 62.85L3.93279 61.88C4.69279 63.94 6.05279 65.5 8.01279 65.5C9.97279 65.5 11.3328 63.94 12.0928 61.88L13.2628 62.85C13.3042 62.8865 13.3323 62.9358 13.3428 62.99L13.7828 65.15C13.8025 65.2465 13.841 65.3382 13.8961 65.4199C13.9513 65.5015 14.022 65.5715 14.1041 65.6258C14.1863 65.6801 14.2784 65.7177 14.3751 65.7365C14.4718 65.7552 14.5713 65.7547 14.6678 65.735C14.7643 65.7153 14.856 65.6768 14.9376 65.6216C15.0193 65.5665 15.0893 65.4958 15.1436 65.4136C15.1979 65.3315 15.2355 65.2394 15.2542 65.1427C15.273 65.046 15.2725 64.9465 15.2528 64.85L14.8228 62.7C14.7428 62.3 14.5228 61.95 14.2228 61.7L12.5428 60.3C12.7186 59.4444 12.809 58.5735 12.8128 57.7L14.0728 56.86C14.4728 56.6 14.7428 56.17 14.8228 55.7L15.2528 53.12C15.2718 53.0214 15.2708 52.9201 15.25 52.8219C15.2291 52.7237 15.1887 52.6307 15.1312 52.5485C15.0737 52.4662 15.0003 52.3962 14.9153 52.3428C14.8303 52.2894 14.7355 52.2537 14.6364 52.2376C14.5373 52.2215 14.436 52.2255 14.3385 52.2493C14.241 52.2731 14.1493 52.3163 14.0687 52.3762C13.9882 52.4361 13.9205 52.5115 13.8697 52.5981C13.8188 52.6846 13.7859 52.7805 13.7728 52.88L13.3428 55.45C13.3373 55.4845 13.3247 55.5174 13.3058 55.5466C13.2868 55.5759 13.262 55.6009 13.2328 55.62L12.7028 55.97C12.6528 55.64 12.5928 55.31 12.5128 55H3.51279ZM0.617642 89.0632C1.0199 90.0343 1.60951 90.9167 2.35279 91.66C3.85391 93.1611 5.88988 94.0045 8.01279 94.0045C10.1357 94.0045 12.1717 93.1611 13.6728 91.66C15.1739 90.1588 16.0172 88.1229 16.0172 86C16.0172 83.8771 15.1739 81.8412 13.6728 80.34C12.9295 79.5967 12.0471 79.0071 11.076 78.6049C10.1048 78.2026 9.06395 77.9955 8.01279 77.9955C6.96163 77.9955 5.92076 78.2026 4.94962 78.6049C3.97847 79.0071 3.09607 79.5967 2.35279 80.34C1.60951 81.0833 1.0199 81.9657 0.617642 82.9368C0.215381 83.908 0.00833988 84.9488 0.00833991 86C0.00833995 87.0512 0.215381 88.092 0.617642 89.0632ZM8.50307 88.4503C8.98862 88.3521 9.43404 88.1118 9.78279 87.76C9.91759 87.6268 10.0926 87.5418 10.2807 87.5182C10.4688 87.4947 10.6593 87.534 10.8228 87.63C10.9062 87.68 10.9779 87.7472 11.0331 87.8273C11.0883 87.9073 11.1257 87.9983 11.1428 88.094C11.1598 88.1897 11.1562 88.288 11.132 88.3822C11.1079 88.4764 11.0638 88.5643 11.0028 88.64L10.8428 88.83C10.2832 89.389 9.57046 89.7695 8.79466 89.9235C8.01886 90.0774 7.21482 89.9979 6.48417 89.6951C5.75353 89.3922 5.12908 88.8795 4.68975 88.2218C4.25042 87.5641 4.01594 86.7909 4.01594 86C4.01594 85.2091 4.25042 84.4359 4.68975 83.7782C5.12908 83.1205 5.75353 82.6078 6.48417 82.3049C7.21482 82.0021 8.01886 81.9226 8.79466 82.0765C9.57046 82.2305 10.2832 82.611 10.8428 83.17C10.9023 83.2307 10.959 83.2941 11.0128 83.36C11.0756 83.4359 11.1211 83.5245 11.1463 83.6198C11.1714 83.715 11.1756 83.8146 11.1585 83.9116C11.1413 84.0086 11.1034 84.1007 11.0471 84.1816C10.9909 84.2625 10.9178 84.3302 10.8328 84.38C10.6673 84.4772 10.474 84.5162 10.2837 84.4908C10.0934 84.4655 9.91708 84.3772 9.78279 84.24C9.43404 83.8882 8.98862 83.6479 8.50307 83.5497C8.01753 83.4514 7.51374 83.4997 7.05565 83.6882C6.59755 83.8768 6.20581 84.1972 5.93014 84.6088C5.65447 85.0204 5.50729 85.5046 5.50729 86C5.50729 86.4954 5.65447 86.9796 5.93014 87.3912C6.20581 87.8028 6.59755 88.1232 7.05565 88.3118C7.51374 88.5003 8.01753 88.5486 8.50307 88.4503ZM2.35593 119.657C3.85623 121.157 5.89106 122 8.01279 122C10.1345 122 12.1694 121.157 13.6696 119.657C15.1699 118.157 16.0128 116.122 16.0128 114C16.0128 111.878 15.1699 109.843 13.6696 108.343C12.1694 106.843 10.1345 106 8.01279 106C5.89106 106 3.85623 106.843 2.35593 108.343C0.855644 109.843 0.012789 111.878 0.012789 114C0.012789 116.122 0.855644 118.157 2.35593 119.657ZM2.29279 138.02H2.22279L2.23279 138.01C2.2052 138.011 2.17814 138.018 2.15315 138.03C2.12816 138.042 2.10573 138.058 2.08715 138.078C2.06857 138.099 2.05421 138.123 2.04488 138.149C2.03555 138.175 2.03144 138.202 2.03279 138.23V145.08C2.01411 145.179 2.01411 145.281 2.03279 145.38C2.08534 145.449 2.15921 145.498 2.24279 145.52C2.31702 145.591 2.40568 145.646 2.50279 145.68L7.50279 147.68C7.63855 147.734 7.77921 147.774 7.92279 147.8C8.01183 147.819 8.10375 147.819 8.19279 147.8C8.34279 147.77 8.48279 147.73 8.61279 147.67L13.6128 145.67C13.709 145.639 13.7976 145.588 13.8728 145.52C13.9318 145.479 13.9744 145.419 13.9928 145.35C14.0128 145.25 14.0128 145.14 13.9928 145.04V138.21C13.9991 138.196 14.0024 138.181 14.0024 138.165C14.0024 138.156 14.0014 138.148 13.9993 138.139C13.9978 138.133 13.9956 138.126 13.9928 138.12C13.9692 138.074 13.9297 138.039 13.8818 138.021C13.8339 138.002 13.7809 138.002 13.7328 138.02L8.57279 140.12C8.44279 140.17 8.30279 140.22 8.16279 140.25C8.06279 140.27 7.97279 140.27 7.88279 140.25C7.73279 140.22 7.59279 140.17 7.46279 140.12L2.29279 138.02ZM8.57279 134.15C8.44279 134.09 8.30279 134.04 8.15279 134.02H8.16279C8.07053 134 7.97505 134 7.88279 134.02C7.73279 134.05 7.59279 134.09 7.46279 134.15L2.19279 136.25C2.1459 136.276 2.11032 136.319 2.09279 136.37C2.07602 136.418 2.07805 136.47 2.09847 136.517C2.11889 136.563 2.15618 136.6 2.20279 136.62L7.46279 138.72C7.59439 138.776 7.73197 138.816 7.87279 138.84C7.96505 138.86 8.06053 138.86 8.15279 138.84C8.30279 138.82 8.44279 138.77 8.57279 138.72L13.8428 136.62C13.8897 136.594 13.9253 136.551 13.9428 136.5C13.9626 136.451 13.9621 136.396 13.9415 136.347C13.9209 136.299 13.8818 136.26 13.8328 136.24L8.57279 134.15ZM8.86634 116.854C8.77257 116.947 8.6454 117 8.51279 117H7.01279V117.49C7.01412 117.556 7.00217 117.623 6.97764 117.684C6.95311 117.746 6.91649 117.802 6.86993 117.85C6.82336 117.897 6.76779 117.935 6.70647 117.961C6.64515 117.987 6.5793 118 6.51279 118C6.38018 118 6.253 117.947 6.15924 117.854C6.06547 117.76 6.01279 117.633 6.01279 117.5V117.01L5.51279 117C5.23279 117 5.01279 116.78 5.01279 116.5C5.01541 116.369 5.06924 116.245 5.16272 116.153C5.25621 116.061 5.3819 116.01 5.51279 116.01H6.01279V115L5.51279 114.99C5.23279 114.99 5.01279 114.76 5.01279 114.49C5.01541 114.359 5.06924 114.235 5.16272 114.143C5.25621 114.051 5.3819 114 5.51279 114H6.01279V110.51C6.01279 110.377 6.06547 110.25 6.15924 110.156C6.253 110.063 6.38018 110.01 6.51279 110.01H8.51279C10.2428 110.01 11.5128 111 11.5128 112.5C11.5128 114 10.2628 115 8.51279 115H7.01279V116H8.51279C8.6454 116 8.77257 116.053 8.86634 116.146C8.96011 116.24 9.01279 116.367 9.01279 116.5C9.01279 116.633 8.96011 116.76 8.86634 116.854ZM8.51279 111H7.01279V114H8.51279C10.0128 114 10.5128 113.25 10.5128 112.5C10.5128 111.75 10.0128 111 8.51279 111ZM16.0172 -552C16.0172 -554.123 15.1739 -556.159 13.6728 -557.66C12.9295 -558.403 12.0471 -558.993 11.076 -559.395C10.1048 -559.797 9.06395 -560.004 8.01279 -560.004C6.96163 -560.004 5.92076 -559.797 4.94962 -559.395C3.97847 -558.993 3.09607 -558.403 2.35279 -557.66C1.60951 -556.917 1.0199 -556.034 0.617643 -555.063C0.215381 -554.092 0.00834027 -553.051 0.00834027 -552C0.00834027 -550.949 0.215381 -549.908 0.617643 -548.937C1.0199 -547.966 1.60951 -547.083 2.35279 -546.34C3.85391 -544.839 5.88988 -543.996 8.01279 -543.996C10.1357 -543.996 12.1717 -544.839 13.6728 -546.34C15.1739 -547.841 16.0172 -549.877 16.0172 -552ZM6.67833 -548.771C6.25367 -548.947 5.86781 -549.205 5.54279 -549.53C4.88638 -550.186 4.51761 -551.077 4.51761 -552.005C4.51761 -552.933 4.88638 -553.824 5.54279 -554.48C6.1992 -555.136 7.08948 -555.505 8.01779 -555.505C8.94609 -555.505 9.83638 -555.136 10.4928 -554.48C10.8178 -554.155 11.0756 -553.769 11.2515 -553.344C11.4274 -552.92 11.518 -552.465 11.518 -552.005C11.518 -551.545 11.4274 -551.09 11.2515 -550.666C11.0756 -550.241 10.8178 -549.855 10.4928 -549.53C10.1678 -549.205 9.78191 -548.947 9.35725 -548.771C8.93259 -548.595 8.47744 -548.505 8.01779 -548.505C7.55814 -548.505 7.10299 -548.595 6.67833 -548.771ZM13.9628 -548.8L12.4628 -549.6C13.2728 -551.1 13.2728 -552.9 12.4628 -554.4L13.9628 -555.2C14.4915 -554.216 14.7682 -553.117 14.7682 -552C14.7682 -550.883 14.4915 -549.784 13.9628 -548.8ZM8.01279 -558.745C9.12961 -558.745 10.229 -558.469 11.2128 -557.94L10.4128 -556.46C9.67524 -556.857 8.85057 -557.065 8.01279 -557.065C7.17501 -557.065 6.35034 -556.857 5.61279 -556.46L4.81279 -557.94C5.79655 -558.469 6.89597 -558.745 8.01279 -558.745ZM2.07056 -555.196C1.54334 -554.213 1.26742 -553.115 1.26742 -552C1.26742 -550.883 1.54412 -549.784 2.07279 -548.8L3.56279 -549.6C3.16542 -550.338 2.9574 -551.162 2.9574 -552C2.9574 -552.838 3.16542 -553.662 3.56279 -554.4L2.07056 -555.196ZM8.01279 -545.255C6.89597 -545.255 5.79655 -545.531 4.81279 -546.06L5.61279 -547.54C7.11279 -546.74 8.91279 -546.74 10.4128 -547.54L11.2128 -546.06C10.229 -545.531 9.12961 -545.255 8.01279 -545.255ZM13.4163 -445.521C11.9999 -447.01 10.0653 -447.897 8.01279 -448C5.89106 -448 3.85623 -447.157 2.35593 -445.657C0.855644 -444.157 0.012789 -442.122 0.012789 -440C0.012789 -437.878 0.855644 -435.843 2.35593 -434.343C3.85623 -432.843 5.89106 -432 8.01279 -432C10.0653 -432.103 11.9999 -432.99 13.4163 -434.479C14.8328 -435.968 15.6227 -437.945 15.6227 -440C15.6227 -442.055 14.8328 -444.032 13.4163 -445.521ZM10.1828 -446.47C12.8828 -445.56 14.8328 -443 14.8328 -440C14.8337 -438.499 14.3379 -437.04 13.4228 -435.85C13.1728 -436.05 12.9028 -436.57 13.1528 -437.12C13.4128 -437.67 13.4728 -438.94 13.4128 -439.44C13.3628 -439.94 13.1128 -441.13 12.4128 -441.14C11.7128 -441.15 11.2228 -441.38 10.8128 -442.21C10.3449 -443.146 10.8657 -443.67 11.2993 -444.107C11.6627 -444.473 11.9649 -444.777 11.5728 -445.21C11.4959 -445.293 11.3255 -445.221 11.1211 -445.135C10.6605 -444.94 10.0275 -444.673 9.90279 -445.94C9.88279 -446.07 10.0128 -446.27 10.1828 -446.47ZM3.7713 -445.344C4.72597 -446.102 5.86578 -446.591 7.07279 -446.76C6.97295 -446.56 6.76796 -446.435 6.56476 -446.31C6.44233 -446.235 6.32054 -446.16 6.22279 -446.07C5.97932 -445.848 5.79423 -445.735 5.63792 -445.64C5.42827 -445.513 5.27038 -445.416 5.09279 -445.13C4.96248 -444.913 4.70012 -444.656 4.445 -444.406C4.11275 -444.081 3.79279 -443.768 3.79279 -443.57C3.79279 -443.21 4.29279 -442.78 4.55279 -442.87C4.98532 -442.953 5.43172 -442.929 5.85279 -442.8C5.90355 -442.783 5.99633 -442.766 6.11732 -442.744C6.92587 -442.595 8.99434 -442.214 8.20279 -440.1C8.07477 -439.771 7.77192 -439.607 7.44035 -439.426C6.99494 -439.184 6.4977 -438.914 6.30279 -438.18C6.25279 -438 6.07279 -437.2 6.06279 -436.93C6.05713 -436.817 6.07791 -436.613 6.10177 -436.379C6.1622 -435.786 6.2424 -435 5.96279 -435C5.56279 -435 4.51279 -436.37 4.51279 -436.62C4.51279 -436.712 4.47631 -436.886 4.43016 -437.107C4.35078 -437.486 4.24279 -438.002 4.24279 -438.47C4.24279 -438.82 3.96627 -439.004 3.6713 -439.201C3.33411 -439.426 2.97279 -439.667 2.97279 -440.19C2.97279 -440.66 3.1655 -441.008 3.32362 -441.293C3.46469 -441.547 3.57823 -441.752 3.50279 -441.95C3.37917 -442.304 2.53563 -442.374 1.96287 -442.42C1.84063 -442.43 1.73073 -442.439 1.64279 -442.45C2.08178 -443.587 2.81663 -444.586 3.7713 -445.344ZM8.915 -433.24C7.89281 -433.101 6.85249 -433.197 5.87279 -433.52H5.86279C6.03309 -433.611 6.14128 -433.713 6.2361 -433.802C6.36954 -433.928 6.47648 -434.028 6.69279 -434.04C6.96047 -434.046 7.19973 -434.114 7.46232 -434.188C7.61174 -434.23 7.76872 -434.274 7.94279 -434.31C8.10219 -434.344 8.31057 -434.427 8.54442 -434.521C8.92672 -434.673 9.37708 -434.853 9.79279 -434.89C10.3628 -434.93 11.4728 -434.86 11.7728 -434.32C10.9144 -433.748 9.93719 -433.379 8.915 -433.24Z" fill="#7D9CB8"/>
<path d="M8.66279 -922.7C8.26279 -923.1 7.66279 -923.1 7.36279 -922.7L0.212789 -915.75C-0.187211 -915.35 0.012789 -915.05 0.512789 -915.05L2.01279 -915V-910C2.01279 -909 2.01279 -909 3.01279 -909H5.51279C5.6454 -909 5.77257 -909.053 5.86634 -909.146C5.96011 -909.24 6.01279 -909.367 6.01279 -909.5V-913C6.01279 -913.53 6.2235 -914.039 6.59858 -914.414C6.97365 -914.789 7.48236 -915 8.01279 -915C8.54322 -915 9.05193 -914.789 9.427 -914.414C9.80207 -914.039 10.0128 -913.53 10.0128 -913V-909.5C10.0114 -909.434 10.0234 -909.368 10.0481 -909.307C10.0727 -909.246 10.1095 -909.19 10.1562 -909.143C10.2029 -909.097 10.2586 -909.06 10.3198 -909.035C10.3811 -909.011 10.4468 -908.999 10.5128 -909H13.0128C14.0128 -909 14.0128 -909 14.0128 -910V-915L15.5928 -915.06C15.9928 -915.16 16.1928 -915.46 15.7928 -915.76L8.66279 -922.7Z" fill="#7D9CB8"/>
</g>
</svg>
